<svg width="327" height="64" viewBox="0 0 327 64" fill="none" xmlns="http://www.w3.org/2000/svg">
<rect x="112" width="103" height="6" rx="3" fill="#2D9B63"/>
<path d="M141.605 45.5107C141.605 46.6533 141.192 47.5498 140.366 48.2002C139.54 48.8506 138.4 49.1758 136.947 49.1758C135.494 49.1758 134.305 48.9502 133.379 48.499V46.5127C133.965 46.7881 134.586 47.0049 135.242 47.1631C135.904 47.3213 136.52 47.4004 137.088 47.4004C137.92 47.4004 138.532 47.2422 138.925 46.9258C139.323 46.6094 139.522 46.1846 139.522 45.6514C139.522 45.1709 139.341 44.7637 138.978 44.4297C138.614 44.0957 137.864 43.7002 136.728 43.2432C135.556 42.7686 134.729 42.2266 134.249 41.6172C133.769 41.0078 133.528 40.2754 133.528 39.4199C133.528 38.3477 133.909 37.5039 134.671 36.8887C135.433 36.2734 136.455 35.9658 137.738 35.9658C138.969 35.9658 140.193 36.2354 141.412 36.7744L140.744 38.4883C139.602 38.0078 138.582 37.7676 137.686 37.7676C137.006 37.7676 136.49 37.917 136.139 38.2158C135.787 38.5088 135.611 38.8984 135.611 39.3848C135.611 39.7188 135.682 40.0059 135.822 40.2461C135.963 40.4805 136.194 40.7031 136.517 40.9141C136.839 41.125 137.419 41.4033 138.257 41.749C139.2 42.1416 139.892 42.5078 140.331 42.8477C140.771 43.1875 141.093 43.5713 141.298 43.999C141.503 44.4268 141.605 44.9307 141.605 45.5107ZM152.495 44.1221C152.495 45.71 152.088 46.9492 151.273 47.8398C150.459 48.7305 149.325 49.1758 147.872 49.1758C146.964 49.1758 146.161 48.9707 145.464 48.5605C144.767 48.1504 144.23 47.5615 143.855 46.7939C143.48 46.0264 143.293 45.1357 143.293 44.1221C143.293 42.5459 143.697 41.3154 144.506 40.4307C145.314 39.5459 146.454 39.1035 147.925 39.1035C149.331 39.1035 150.444 39.5576 151.265 40.4658C152.085 41.3682 152.495 42.5869 152.495 44.1221ZM145.42 44.1221C145.42 46.3662 146.249 47.4883 147.907 47.4883C149.548 47.4883 150.368 46.3662 150.368 44.1221C150.368 41.9014 149.542 40.791 147.89 40.791C147.022 40.791 146.393 41.0781 146 41.6523C145.613 42.2266 145.42 43.0498 145.42 44.1221ZM159.808 39.1035C160.224 39.1035 160.566 39.1328 160.836 39.1914L160.634 41.1162C160.341 41.0459 160.036 41.0107 159.72 41.0107C158.894 41.0107 158.223 41.2803 157.707 41.8193C157.197 42.3584 156.942 43.0586 156.942 43.9199V49H154.877V39.2793H156.494L156.767 40.9932H156.872C157.194 40.4131 157.613 39.9531 158.129 39.6133C158.65 39.2734 159.21 39.1035 159.808 39.1035ZM166.268 47.5059C166.771 47.5059 167.275 47.4268 167.779 47.2686V48.8242C167.551 48.9238 167.255 49.0059 166.892 49.0703C166.534 49.1406 166.162 49.1758 165.775 49.1758C163.818 49.1758 162.84 48.1445 162.84 46.082V40.8438H161.513V39.9297L162.937 39.1738L163.64 37.1172H164.914V39.2793H167.683V40.8438H164.914V46.0469C164.914 46.5449 165.037 46.9141 165.283 47.1543C165.535 47.3887 165.863 47.5059 166.268 47.5059ZM179.372 39.1035C180.585 39.1035 181.528 39.543 182.202 40.4219C182.882 41.3008 183.222 42.5342 183.222 44.1221C183.222 45.7158 182.879 46.958 182.193 47.8486C181.508 48.7334 180.556 49.1758 179.337 49.1758C178.106 49.1758 177.151 48.7334 176.472 47.8486H176.331L175.953 49H174.406V35.3242H176.472V38.5762C176.472 38.8164 176.46 39.1738 176.437 39.6484C176.413 40.123 176.396 40.4248 176.384 40.5537H176.472C177.128 39.5869 178.095 39.1035 179.372 39.1035ZM178.836 40.791C178.004 40.791 177.403 41.0371 177.034 41.5293C176.671 42.0156 176.483 42.833 176.472 43.9814V44.1221C176.472 45.3057 176.659 46.1641 177.034 46.6973C177.409 47.2246 178.021 47.4883 178.871 47.4883C179.604 47.4883 180.157 47.1982 180.532 46.6182C180.913 46.0381 181.104 45.2002 181.104 44.1045C181.104 41.8955 180.348 40.791 178.836 40.791ZM184.145 39.2793H186.395L188.372 44.79C188.671 45.5752 188.87 46.3135 188.97 47.0049H189.04C189.093 46.6826 189.189 46.293 189.33 45.8359C189.471 45.373 190.215 43.1875 191.562 39.2793H193.795L189.638 50.292C188.882 52.3135 187.622 53.3242 185.858 53.3242C185.401 53.3242 184.956 53.2744 184.522 53.1748V51.54C184.833 51.6104 185.188 51.6455 185.586 51.6455C186.582 51.6455 187.282 51.0684 187.687 49.9141L188.047 49L184.145 39.2793Z" fill="black"/>
<line y1="63.5" x2="327" y2="63.5" stroke="#2D9B63"/>
</svg>
