<svg width="142" height="136" viewBox="0 0 142 136" fill="none" xmlns="http://www.w3.org/2000/svg">
<circle cx="71" cy="52" r="50" stroke="white" stroke-width="4"/>
<path d="M38.1128 59.9294C35.8211 59.9294 33.9633 61.7872 33.9633 64.0789C33.9633 66.3706 35.8211 68.2284 38.1128 68.2284V59.9294ZM46.3235 64.0789V68.2284C47.8436 68.2284 49.242 67.3972 49.9685 66.0619L46.3235 64.0789ZM64.8638 30L68.9155 29.1043C68.5418 27.4141 67.1582 26.1334 65.4443 25.8913C63.7303 25.6492 62.0461 26.4964 61.2188 28.017L64.8638 30ZM74.3106 72.731L70.2589 73.6268C70.6266 75.2899 71.9733 76.5595 73.6553 76.8285C75.3372 77.0975 77.0127 76.3112 77.8808 74.8457L74.3106 72.731ZM94.7049 38.299V34.1495C93.239 34.1495 91.8818 34.923 91.1347 36.1843L94.7049 38.299ZM103.887 42.4485C106.178 42.4485 108.036 40.5907 108.036 38.299C108.036 36.0073 106.178 34.1495 103.887 34.1495V42.4485ZM38.1128 68.2284H46.3235V59.9294H38.1128V68.2284ZM49.9685 66.0619L68.5088 31.983L61.2188 28.017L42.6785 62.0959L49.9685 66.0619ZM60.8122 30.8957L70.2589 73.6268L78.3622 71.8353L68.9155 29.1043L60.8122 30.8957ZM77.8808 74.8457L98.2751 40.4137L91.1347 36.1843L70.7403 70.6164L77.8808 74.8457ZM94.7049 42.4485H103.887V34.1495H94.7049V42.4485Z" fill="white"/>
<path d="M16.9648 135H12.8633L4.87891 121.902V135H0.777344V115.094H4.87891L12.877 128.219V115.094H16.9648V135ZM26.7957 135.273C24.6264 135.273 22.8582 134.608 21.491 133.277C20.1329 131.947 19.4539 130.174 19.4539 127.959V127.576C19.4539 126.09 19.741 124.764 20.3152 123.598C20.8895 122.422 21.7007 121.52 22.7488 120.891C23.8061 120.253 25.0092 119.934 26.3582 119.934C28.3816 119.934 29.9721 120.572 31.1297 121.848C32.2964 123.124 32.8797 124.933 32.8797 127.275V128.889H23.4598C23.5874 129.855 23.9702 130.63 24.6082 131.213C25.2553 131.796 26.0711 132.088 27.0555 132.088C28.5776 132.088 29.7671 131.536 30.6238 130.434L32.5652 132.607C31.9728 133.446 31.1707 134.102 30.159 134.576C29.1473 135.041 28.0262 135.273 26.7957 135.273ZM26.3445 123.133C25.5607 123.133 24.9227 123.397 24.4305 123.926C23.9474 124.454 23.6375 125.211 23.5008 126.195H28.9969V125.881C28.9786 125.006 28.7417 124.331 28.2859 123.857C27.8302 123.374 27.1831 123.133 26.3445 123.133ZM40.1813 130.174L42.9293 120.207H47.0582L42.068 135H38.2945L33.3043 120.207H37.4332L40.1813 130.174ZM55.1254 135.273C52.9561 135.273 51.1879 134.608 49.8207 133.277C48.4626 131.947 47.7836 130.174 47.7836 127.959V127.576C47.7836 126.09 48.0707 124.764 48.6449 123.598C49.2191 122.422 50.0303 121.52 51.0785 120.891C52.1358 120.253 53.3389 119.934 54.6879 119.934C56.7113 119.934 58.3018 120.572 59.4594 121.848C60.626 123.124 61.2094 124.933 61.2094 127.275V128.889H51.7895C51.9171 129.855 52.2999 130.63 52.9379 131.213C53.585 131.796 54.4008 132.088 55.3852 132.088C56.9073 132.088 58.0967 131.536 58.9535 130.434L60.8949 132.607C60.3025 133.446 59.5004 134.102 58.4887 134.576C57.477 135.041 56.3559 135.273 55.1254 135.273ZM54.6742 123.133C53.8904 123.133 53.2523 123.397 52.7602 123.926C52.2771 124.454 51.9672 125.211 51.8305 126.195H57.3266V125.881C57.3083 125.006 57.0714 124.331 56.6156 123.857C56.1599 123.374 55.5128 123.133 54.6742 123.133ZM71.4777 123.912C70.94 123.839 70.466 123.803 70.0559 123.803C68.5611 123.803 67.5812 124.309 67.1164 125.32V135H63.1652V120.207H66.8977L67.007 121.971C67.8 120.613 68.8983 119.934 70.302 119.934C70.7395 119.934 71.1496 119.993 71.5324 120.111L71.4777 123.912ZM86.4219 127.74C86.4219 130.11 85.916 131.96 84.9043 133.291C83.8926 134.613 82.4798 135.273 80.666 135.273C79.0618 135.273 77.7812 134.658 76.8242 133.428L76.6465 135H73.0918V114H77.043V121.533C77.9544 120.467 79.153 119.934 80.6387 119.934C82.4434 119.934 83.8561 120.599 84.877 121.93C85.9069 123.251 86.4219 125.115 86.4219 127.521V127.74ZM82.4707 127.453C82.4707 125.958 82.2337 124.869 81.7598 124.186C81.2858 123.493 80.5794 123.146 79.6406 123.146C78.3828 123.146 77.5169 123.661 77.043 124.691V130.529C77.526 131.568 78.401 132.088 79.668 132.088C80.944 132.088 81.7826 131.459 82.1836 130.201C82.375 129.6 82.4707 128.684 82.4707 127.453ZM87.9539 127.467C87.9539 125.999 88.2365 124.691 88.8016 123.543C89.3667 122.395 90.1779 121.506 91.2352 120.877C92.3016 120.248 93.5366 119.934 94.9402 119.934C96.9363 119.934 98.5633 120.544 99.8211 121.766C101.088 122.987 101.794 124.646 101.94 126.742L101.968 127.754C101.968 130.023 101.334 131.846 100.067 133.223C98.8003 134.59 97.1004 135.273 94.9676 135.273C92.8348 135.273 91.1303 134.59 89.8543 133.223C88.5874 131.855 87.9539 129.996 87.9539 127.645V127.467ZM91.9051 127.754C91.9051 129.158 92.1694 130.233 92.698 130.98C93.2267 131.719 93.9832 132.088 94.9676 132.088C95.9246 132.088 96.672 131.723 97.2098 130.994C97.7475 130.256 98.0164 129.08 98.0164 127.467C98.0164 126.09 97.7475 125.024 97.2098 124.268C96.672 123.511 95.9155 123.133 94.9402 123.133C93.9741 123.133 93.2267 123.511 92.698 124.268C92.1694 125.015 91.9051 126.177 91.9051 127.754ZM112.414 123.912C111.876 123.839 111.402 123.803 110.992 123.803C109.497 123.803 108.517 124.309 108.052 125.32V135H104.101V120.207H107.834L107.943 121.971C108.736 120.613 109.834 119.934 111.238 119.934C111.675 119.934 112.086 119.993 112.468 120.111L112.414 123.912ZM120.563 135.273C118.394 135.273 116.625 134.608 115.258 133.277C113.9 131.947 113.221 130.174 113.221 127.959V127.576C113.221 126.09 113.508 124.764 114.082 123.598C114.657 122.422 115.468 121.52 116.516 120.891C117.573 120.253 118.776 119.934 120.125 119.934C122.149 119.934 123.739 120.572 124.897 121.848C126.064 123.124 126.647 124.933 126.647 127.275V128.889H117.227C117.355 129.855 117.737 130.63 118.375 131.213C119.023 131.796 119.838 132.088 120.823 132.088C122.345 132.088 123.534 131.536 124.391 130.434L126.332 132.607C125.74 133.446 124.938 134.102 123.926 134.576C122.914 135.041 121.793 135.273 120.563 135.273ZM120.112 123.133C119.328 123.133 118.69 123.397 118.198 123.926C117.715 124.454 117.405 125.211 117.268 126.195H122.764V125.881C122.746 125.006 122.509 124.331 122.053 123.857C121.597 123.374 120.95 123.133 120.112 123.133ZM127.988 127.494C127.988 125.188 128.502 123.352 129.532 121.984C130.571 120.617 131.989 119.934 133.784 119.934C135.224 119.934 136.414 120.471 137.353 121.547V114H141.318V135H137.749L137.558 133.428C136.573 134.658 135.307 135.273 133.757 135.273C132.016 135.273 130.617 134.59 129.56 133.223C128.512 131.846 127.988 129.937 127.988 127.494ZM131.939 127.781C131.939 129.167 132.18 130.229 132.663 130.967C133.146 131.705 133.848 132.074 134.769 132.074C135.99 132.074 136.851 131.559 137.353 130.529V124.691C136.861 123.661 136.008 123.146 134.796 123.146C132.891 123.146 131.939 124.691 131.939 127.781Z" fill="white"/>
</svg>
