<svg width="137" height="99" viewBox="0 0 137 99" fill="none" xmlns="http://www.w3.org/2000/svg">
<path d="M10.9395 87H9.31934V77.0059H14.959V78.3867H10.9395V81.5107H14.7061V82.8984H10.9395V87ZM19.6014 87.1367C18.4256 87.1367 17.505 86.7949 16.8396 86.1113C16.1788 85.4232 15.8484 84.4775 15.8484 83.2744C15.8484 82.0394 16.1561 81.0687 16.7713 80.3623C17.3865 79.6559 18.2319 79.3027 19.3074 79.3027C20.3055 79.3027 21.0939 79.6058 21.6727 80.2119C22.2514 80.818 22.5408 81.652 22.5408 82.7139V83.582H17.5027C17.5255 84.3158 17.7238 84.8809 18.0975 85.2773C18.4712 85.6693 18.9975 85.8652 19.6766 85.8652C20.1232 85.8652 20.5379 85.8242 20.9207 85.7422C21.3081 85.6556 21.7228 85.5143 22.1648 85.3184V86.624C21.7729 86.8109 21.3764 86.943 20.9754 87.0205C20.5743 87.098 20.1163 87.1367 19.6014 87.1367ZM19.3074 80.5195C18.797 80.5195 18.3868 80.6813 18.077 81.0049C17.7716 81.3285 17.5893 81.8001 17.5301 82.4199H20.9617C20.9526 81.7956 20.8022 81.3239 20.5105 81.0049C20.2189 80.6813 19.8178 80.5195 19.3074 80.5195ZM28.7965 87L28.4752 85.9473H28.4205C28.0559 86.4076 27.6891 86.722 27.3199 86.8906C26.9508 87.0547 26.4768 87.1367 25.898 87.1367C25.1552 87.1367 24.5742 86.9362 24.1549 86.5352C23.7402 86.1341 23.5328 85.5667 23.5328 84.833C23.5328 84.0537 23.8222 83.4658 24.401 83.0693C24.9798 82.6729 25.8616 82.4564 27.0465 82.4199L28.3521 82.3789V81.9756C28.3521 81.4925 28.2382 81.1325 28.0104 80.8955C27.787 80.654 27.4384 80.5332 26.9645 80.5332C26.5771 80.5332 26.2057 80.5902 25.8502 80.7041C25.4947 80.818 25.1529 80.9525 24.8248 81.1074L24.3053 79.959C24.7154 79.7448 25.1643 79.583 25.652 79.4736C26.1396 79.3597 26.5999 79.3027 27.0328 79.3027C27.9944 79.3027 28.719 79.5124 29.2066 79.9316C29.6988 80.3509 29.9449 81.0094 29.9449 81.9072V87H28.7965ZM26.4039 85.9062C26.9872 85.9062 27.4544 85.7445 27.8053 85.4209C28.1607 85.0928 28.3385 84.6348 28.3385 84.0469V83.3906L27.3678 83.4316C26.6113 83.459 26.0598 83.5866 25.7135 83.8145C25.3717 84.0378 25.2008 84.3818 25.2008 84.8467C25.2008 85.1839 25.301 85.446 25.5016 85.6328C25.7021 85.8151 26.0029 85.9062 26.4039 85.9062ZM34.7035 85.8379C35.0954 85.8379 35.4874 85.7764 35.8793 85.6533V86.8633C35.7016 86.9408 35.4714 87.0046 35.1889 87.0547C34.9109 87.1094 34.6215 87.1367 34.3207 87.1367C32.7986 87.1367 32.0375 86.3346 32.0375 84.7305V80.6562H31.0053V79.9453L32.1127 79.3574L32.6596 77.7578H33.6508V79.4395H35.8041V80.6562H33.6508V84.7031C33.6508 85.0905 33.7465 85.3776 33.9379 85.5645C34.1339 85.7467 34.3891 85.8379 34.7035 85.8379ZM42.4289 87L42.2033 86.0088H42.1213C41.898 86.3597 41.579 86.6354 41.1643 86.8359C40.7541 87.0365 40.2847 87.1367 39.7561 87.1367C38.84 87.1367 38.1564 86.9089 37.7053 86.4531C37.2541 85.9974 37.0285 85.307 37.0285 84.3818V79.4395H38.6486V84.1016C38.6486 84.6803 38.7671 85.1156 39.0041 85.4072C39.2411 85.6943 39.6125 85.8379 40.1184 85.8379C40.7928 85.8379 41.2873 85.6374 41.6018 85.2363C41.9208 84.8307 42.0803 84.154 42.0803 83.2061V79.4395H43.6936V87H42.4289ZM49.5186 79.3027C49.8421 79.3027 50.1087 79.3255 50.3184 79.3711L50.1611 80.8682C49.9333 80.8135 49.6963 80.7861 49.4502 80.7861C48.8076 80.7861 48.2858 80.9958 47.8848 81.415C47.4883 81.8343 47.29 82.3789 47.29 83.0488V87H45.6836V79.4395H46.9414L47.1533 80.7725H47.2354C47.486 80.3213 47.8118 79.9635 48.2129 79.6992C48.6185 79.4349 49.0537 79.3027 49.5186 79.3027ZM54.7283 87.1367C53.5525 87.1367 52.632 86.7949 51.9666 86.1113C51.3058 85.4232 50.9754 84.4775 50.9754 83.2744C50.9754 82.0394 51.283 81.0687 51.8982 80.3623C52.5135 79.6559 53.3589 79.3027 54.4344 79.3027C55.4324 79.3027 56.2208 79.6058 56.7996 80.2119C57.3784 80.818 57.6678 81.652 57.6678 82.7139V83.582H52.6297C52.6525 84.3158 52.8507 84.8809 53.2244 85.2773C53.5981 85.6693 54.1245 85.8652 54.8035 85.8652C55.2501 85.8652 55.6648 85.8242 56.0477 85.7422C56.435 85.6556 56.8497 85.5143 57.2918 85.3184V86.624C56.8999 86.8109 56.5034 86.943 56.1023 87.0205C55.7013 87.098 55.2433 87.1367 54.7283 87.1367ZM54.4344 80.5195C53.924 80.5195 53.5138 80.6813 53.2039 81.0049C52.8986 81.3285 52.7163 81.8001 52.657 82.4199H56.0887C56.0796 81.7956 55.9292 81.3239 55.6375 81.0049C55.3458 80.6813 54.9448 80.5195 54.4344 80.5195ZM61.7428 87.1367C60.7994 87.1367 60.0634 86.7949 59.5348 86.1113C59.0061 85.4277 58.7418 84.4684 58.7418 83.2334C58.7418 81.9938 59.0084 81.0299 59.5416 80.3418C60.0794 79.6491 60.8222 79.3027 61.7701 79.3027C62.7636 79.3027 63.5201 79.6696 64.0396 80.4033H64.1217C64.0442 79.861 64.0055 79.4326 64.0055 79.1182V76.3633H65.6188V87H64.3609L64.0807 86.0088H64.0055C63.4905 86.7607 62.7363 87.1367 61.7428 87.1367ZM62.1734 85.8379C62.8342 85.8379 63.315 85.6533 63.6158 85.2842C63.9166 84.9105 64.0716 84.3066 64.0807 83.4727V83.2471C64.0807 82.2946 63.9257 81.6178 63.6158 81.2168C63.3059 80.8158 62.8206 80.6152 62.1598 80.6152C61.5947 80.6152 61.1594 80.8454 60.8541 81.3057C60.5488 81.7614 60.3961 82.4131 60.3961 83.2607C60.3961 84.0993 60.5442 84.7396 60.8404 85.1816C61.1367 85.6191 61.581 85.8379 62.1734 85.8379ZM77.3234 87L76.3254 84.2246H72.5041L71.5266 87H69.8039L73.5432 76.9648H75.3205L79.0598 87H77.3234ZM75.8947 82.8164L74.9582 80.0957C74.8898 79.9134 74.7941 79.6263 74.6711 79.2344C74.5526 78.8424 74.4706 78.5553 74.425 78.373C74.302 78.9336 74.1219 79.5465 73.885 80.2119L72.9826 82.8164H75.8947ZM82.957 87.1367C81.8132 87.1367 80.9427 86.804 80.3457 86.1387C79.7533 85.4688 79.457 84.5094 79.457 83.2607C79.457 81.9893 79.7669 81.0117 80.3867 80.3281C81.0111 79.6445 81.9111 79.3027 83.0869 79.3027C83.8844 79.3027 84.6022 79.4508 85.2402 79.7471L84.7549 81.0391C84.0758 80.7747 83.5153 80.6426 83.0732 80.6426C81.7653 80.6426 81.1113 81.5107 81.1113 83.2471C81.1113 84.0947 81.2731 84.7327 81.5967 85.1611C81.9248 85.585 82.4033 85.7969 83.0322 85.7969C83.7477 85.7969 84.4245 85.6191 85.0625 85.2637V86.665C84.7754 86.8337 84.4678 86.9544 84.1396 87.0273C83.8161 87.1003 83.4219 87.1367 82.957 87.1367ZM89.3562 85.8379C89.7482 85.8379 90.1401 85.7764 90.532 85.6533V86.8633C90.3543 86.9408 90.1242 87.0046 89.8416 87.0547C89.5636 87.1094 89.2742 87.1367 88.9734 87.1367C87.4513 87.1367 86.6902 86.3346 86.6902 84.7305V80.6562H85.658V79.9453L86.7654 79.3574L87.3123 77.7578H88.3035V79.4395H90.4568V80.6562H88.3035V84.7031C88.3035 85.0905 88.3992 85.3776 88.5906 85.5645C88.7866 85.7467 89.0418 85.8379 89.3562 85.8379ZM93.3561 87H91.7496V79.4395H93.3561V87ZM91.6539 77.4365C91.6539 77.1494 91.7314 76.9284 91.8863 76.7734C92.0458 76.6185 92.2714 76.541 92.5631 76.541C92.8456 76.541 93.0644 76.6185 93.2193 76.7734C93.3788 76.9284 93.4586 77.1494 93.4586 77.4365C93.4586 77.71 93.3788 77.9264 93.2193 78.0859C93.0644 78.2409 92.8456 78.3184 92.5631 78.3184C92.2714 78.3184 92.0458 78.2409 91.8863 78.0859C91.7314 77.9264 91.6539 77.71 91.6539 77.4365ZM97.0824 87L94.2113 79.4395H95.9066L97.4447 83.835C97.709 84.5732 97.8686 85.1702 97.9232 85.626H97.9779C98.0189 85.2979 98.1784 84.7008 98.4564 83.835L99.9945 79.4395H101.704L98.8187 87H97.0824ZM104.158 87H102.552V79.4395H104.158V87ZM102.456 77.4365C102.456 77.1494 102.534 76.9284 102.689 76.7734C102.848 76.6185 103.074 76.541 103.365 76.541C103.648 76.541 103.867 76.6185 104.022 76.7734C104.181 76.9284 104.261 77.1494 104.261 77.4365C104.261 77.71 104.181 77.9264 104.022 78.0859C103.867 78.2409 103.648 78.3184 103.365 78.3184C103.074 78.3184 102.848 78.2409 102.689 78.0859C102.534 77.9264 102.456 77.71 102.456 77.4365ZM108.979 85.8379C109.37 85.8379 109.762 85.7764 110.154 85.6533V86.8633C109.977 86.9408 109.746 87.0046 109.464 87.0547C109.186 87.1094 108.896 87.1367 108.596 87.1367C107.074 87.1367 106.312 86.3346 106.312 84.7305V80.6562H105.28V79.9453L106.388 79.3574L106.935 77.7578H107.926V79.4395H110.079V80.6562H107.926V84.7031C107.926 85.0905 108.021 85.3776 108.213 85.5645C108.409 85.7467 108.664 85.8379 108.979 85.8379ZM112.978 87H111.372V79.4395H112.978V87ZM111.276 77.4365C111.276 77.1494 111.354 76.9284 111.509 76.7734C111.668 76.6185 111.894 76.541 112.185 76.541C112.468 76.541 112.687 76.6185 112.842 76.7734C113.001 76.9284 113.081 77.1494 113.081 77.4365C113.081 77.71 113.001 77.9264 112.842 78.0859C112.687 78.2409 112.468 78.3184 112.185 78.3184C111.894 78.3184 111.668 78.2409 111.509 78.0859C111.354 77.9264 111.276 77.71 111.276 77.4365ZM118.284 87.1367C117.108 87.1367 116.187 86.7949 115.522 86.1113C114.861 85.4232 114.531 84.4775 114.531 83.2744C114.531 82.0394 114.838 81.0687 115.454 80.3623C116.069 79.6559 116.914 79.3027 117.99 79.3027C118.988 79.3027 119.776 79.6058 120.355 80.2119C120.934 80.818 121.223 81.652 121.223 82.7139V83.582H116.185C116.208 84.3158 116.406 84.8809 116.78 85.2773C117.154 85.6693 117.68 85.8652 118.359 85.8652C118.806 85.8652 119.22 85.8242 119.603 85.7422C119.99 85.6556 120.405 85.5143 120.847 85.3184V86.624C120.455 86.8109 120.059 86.943 119.658 87.0205C119.257 87.098 118.799 87.1367 118.284 87.1367ZM117.99 80.5195C117.479 80.5195 117.069 80.6813 116.759 81.0049C116.454 81.3285 116.272 81.8001 116.213 82.4199H119.644C119.635 81.7956 119.485 81.3239 119.193 81.0049C118.901 80.6813 118.5 80.5195 117.99 80.5195ZM127.828 84.8467C127.828 85.585 127.559 86.1523 127.021 86.5488C126.483 86.9408 125.713 87.1367 124.71 87.1367C123.703 87.1367 122.894 86.984 122.284 86.6787V85.291C123.172 85.7012 123.999 85.9062 124.765 85.9062C125.754 85.9062 126.248 85.6077 126.248 85.0107C126.248 84.8193 126.194 84.6598 126.084 84.5322C125.975 84.4046 125.795 84.2725 125.544 84.1357C125.294 83.999 124.945 83.8441 124.498 83.6709C123.628 83.3337 123.038 82.9964 122.728 82.6592C122.423 82.3219 122.27 81.8844 122.27 81.3467C122.27 80.6995 122.53 80.1982 123.049 79.8428C123.573 79.4827 124.284 79.3027 125.182 79.3027C126.071 79.3027 126.912 79.4827 127.704 79.8428L127.185 81.0527C126.369 80.7155 125.683 80.5469 125.127 80.5469C124.28 80.5469 123.856 80.7884 123.856 81.2715C123.856 81.5085 123.965 81.709 124.184 81.873C124.407 82.0371 124.89 82.2627 125.633 82.5498C126.258 82.7913 126.711 83.0124 126.994 83.2129C127.276 83.4134 127.486 83.6458 127.622 83.9102C127.759 84.1699 127.828 84.4821 127.828 84.8467Z" fill="#FAFAFA"/>
<path d="M32.3141 38.1592C29.7751 38.1592 27.7168 40.2174 27.7168 42.7565C27.7168 45.2955 29.7751 47.3537 32.3141 47.3537V38.1592ZM41.4108 42.7565V47.3537C43.095 47.3537 44.6443 46.4329 45.4492 44.9535L41.4108 42.7565ZM61.9519 5L66.4408 4.00762C66.0268 2.13504 64.4939 0.716174 62.595 0.447911C60.6961 0.179649 58.8301 1.11836 57.9136 2.80298L61.9519 5ZM72.4181 52.3423L67.9292 53.3347C68.3365 55.1773 69.8286 56.5839 71.6921 56.8819C73.5555 57.1799 75.4119 56.3089 76.3736 54.6852L72.4181 52.3423ZM95.0133 14.1946V9.59729C93.3891 9.59729 91.8855 10.4543 91.0578 11.8517L95.0133 14.1946ZM105.186 18.7919C107.725 18.7919 109.783 16.7336 109.783 14.1946C109.783 11.6556 107.725 9.59729 105.186 9.59729V18.7919ZM32.3141 47.3537H41.4108V38.1592H32.3141V47.3537ZM45.4492 44.9535L65.9903 7.19702L57.9136 2.80298L37.3725 40.5594L45.4492 44.9535ZM57.463 5.99238L67.9292 53.3347L76.907 51.3499L66.4408 4.00762L57.463 5.99238ZM76.3736 54.6852L98.9688 16.5374L91.0578 11.8517L68.4626 49.9994L76.3736 54.6852ZM95.0133 18.7919H105.186V9.59729H95.0133V18.7919Z" fill="white"/>
</svg>
