<svg width="10" height="12" viewBox="0 0 10 12" fill="none" xmlns="http://www.w3.org/2000/svg">
<path d="M1.57143 3.71436C1.25584 3.71436 1 3.99926 1 4.35072C1 4.88989 1.61297 5.39512 1.66758 5.93152L2.09561 10.1356C2.12237 10.4634 2.36915 10.7144 2.66469 10.7144H7.33531C7.63085 10.7144 7.87763 10.4634 7.90439 10.1356L8.33242 5.93152C8.38703 5.39512 9 4.88989 9 4.35072C9 3.99926 8.74416 3.71436 8.42857 3.71436H1.57143Z" fill="#2D9B63" stroke="#2D9B63" stroke-width="0.75"/>
<path d="M8.5 3.75C8.25 2 6.70825 0.75 5 0.75C3.30228 0.75 1.75 2 1.5 3.75" stroke="#2D9B63" stroke-width="0.75"/>
<path d="M5.12957 5.08034L5.66936 6.17381L6.87635 6.34946C6.93073 6.3573 6.97594 6.39537 6.99293 6.44762C7.00992 6.49988 6.99574 6.55725 6.95636 6.59558L6.0828 7.44606L6.289 8.64818C6.29827 8.70235 6.276 8.75708 6.23155 8.78939C6.18709 8.82169 6.12815 8.82596 6.0795 8.8004L5.00009 8.2337L3.9205 8.80092C3.87181 8.82636 3.81291 8.82202 3.76849 8.7897C3.72406 8.75739 3.70179 8.70269 3.711 8.64853L3.9172 7.4471L3.04364 6.59662C3.00426 6.55829 2.99008 6.50092 3.00707 6.44867C3.02406 6.39641 3.06927 6.35834 3.12365 6.3505L4.33064 6.17398L4.87043 5.08051C4.89479 5.03124 4.94498 5.00004 4.99995 5C5.05491 4.99996 5.10514 5.0311 5.12957 5.08034Z" fill="white"/>
</svg>
