<svg width="54" height="42" viewBox="0 0 54 42" fill="none" xmlns="http://www.w3.org/2000/svg">
<path d="M19.6429 7.42871C19.0117 7.42871 18.5 7.99853 18.5 8.70144C18.5 9.77978 19.7259 10.7902 19.8352 11.863L20.6912 20.2712C20.7447 20.9268 21.2383 21.4287 21.8294 21.4287H31.1706C31.7617 21.4287 32.2553 20.9268 32.3088 20.2712L33.1648 11.863C33.2741 10.7902 34.5 9.77978 34.5 8.70144C34.5 7.99853 33.9883 7.42871 33.3571 7.42871H19.6429Z" stroke="#333333" stroke-width="1.5"/>
<path d="M33.5 7.5C33 4 29.9165 1.5 26.5 1.5C23.1046 1.5 20 4 19.5 7.5" stroke="#333333" stroke-width="1.5"/>
<path d="M26.7591 10.1607L27.8387 12.3476L30.2527 12.6989C30.3615 12.7146 30.4519 12.7907 30.4859 12.8952C30.5198 12.9998 30.4915 13.1145 30.4127 13.1912L28.6656 14.8921L29.078 17.2964C29.0965 17.4047 29.052 17.5142 28.9631 17.5788C28.8742 17.6434 28.7563 17.6519 28.659 17.6008L26.5002 16.4674L24.341 17.6018C24.2436 17.6527 24.1258 17.644 24.037 17.5794C23.9481 17.5148 23.9036 17.4054 23.922 17.2971L24.3344 14.8942L22.5873 13.1932C22.5085 13.1166 22.4802 13.0018 22.5141 12.8973C22.5481 12.7928 22.6385 12.7167 22.7473 12.701L25.1613 12.348L26.2409 10.161C26.2896 10.0625 26.39 10.0001 26.4999 10C26.6098 9.99993 26.7103 10.0622 26.7591 10.1607Z" fill="#333333"/>
<path d="M0.130859 32.4336H2.67383C3.85352 32.4336 4.70508 32.6055 5.22852 32.9492C5.75586 33.293 6.01953 33.8359 6.01953 34.5781C6.01953 35.0781 5.89062 35.4941 5.63281 35.8262C5.375 36.1582 5.00391 36.3672 4.51953 36.4531V36.5117C5.12109 36.625 5.5625 36.8496 5.84375 37.1855C6.12891 37.5176 6.27148 37.9688 6.27148 38.5391C6.27148 39.3086 6.00195 39.9121 5.46289 40.3496C4.92773 40.7832 4.18164 41 3.22461 41H0.130859V32.4336ZM1.53125 35.9727H2.87891C3.46484 35.9727 3.89258 35.8809 4.16211 35.6973C4.43164 35.5098 4.56641 35.1934 4.56641 34.748C4.56641 34.3457 4.41992 34.0547 4.12695 33.875C3.83789 33.6953 3.37695 33.6055 2.74414 33.6055H1.53125V35.9727ZM1.53125 37.1094V39.8223H3.01953C3.60547 39.8223 4.04688 39.7109 4.34375 39.4883C4.64453 39.2617 4.79492 38.9062 4.79492 38.4219C4.79492 37.9766 4.64258 37.6465 4.33789 37.4316C4.0332 37.2168 3.57031 37.1094 2.94922 37.1094H1.53125ZM12.1766 41L11.9832 40.1504H11.9129C11.7215 40.4512 11.448 40.6875 11.0926 40.8594C10.741 41.0312 10.3387 41.1172 9.88555 41.1172C9.10039 41.1172 8.51445 40.9219 8.12773 40.5312C7.74102 40.1406 7.54766 39.5488 7.54766 38.7559V34.5195H8.93633V38.5156C8.93633 39.0117 9.03789 39.3848 9.24102 39.6348C9.44414 39.8809 9.7625 40.0039 10.1961 40.0039C10.7742 40.0039 11.198 39.832 11.4676 39.4883C11.741 39.1406 11.8777 38.5605 11.8777 37.748V34.5195H13.2605V41H12.1766ZM17.5367 41.1172C16.5562 41.1172 15.8102 40.832 15.2984 40.2617C14.7906 39.6875 14.5367 38.8652 14.5367 37.7949C14.5367 36.7051 14.8023 35.8672 15.3336 35.2812C15.8687 34.6953 16.6402 34.4023 17.648 34.4023C18.3316 34.4023 18.9469 34.5293 19.4937 34.7832L19.0777 35.8906C18.4957 35.6641 18.0152 35.5508 17.6363 35.5508C16.5152 35.5508 15.9547 36.2949 15.9547 37.7832C15.9547 38.5098 16.0934 39.0566 16.3707 39.4238C16.652 39.7871 17.0621 39.9688 17.6012 39.9688C18.2145 39.9688 18.7945 39.8164 19.3414 39.5117V40.7129C19.0953 40.8574 18.8316 40.9609 18.5504 41.0234C18.273 41.0859 17.9352 41.1172 17.5367 41.1172ZM21.8949 37.5781L22.6742 36.6055L24.6313 34.5195H26.2191L23.6117 37.3027L26.3832 41H24.766L22.6859 38.1582L21.9301 38.7793V41H20.5648V31.8828H21.9301V36.3301L21.8598 37.5781H21.8949ZM29.9621 41.1172C28.9543 41.1172 28.1652 40.8242 27.5949 40.2383C27.0285 39.6484 26.7453 38.8379 26.7453 37.8066C26.7453 36.748 27.009 35.916 27.5363 35.3105C28.0637 34.7051 28.7883 34.4023 29.7102 34.4023C30.5656 34.4023 31.2414 34.6621 31.7375 35.1816C32.2336 35.7012 32.4816 36.416 32.4816 37.3262V38.0703H28.1633C28.1828 38.6992 28.3527 39.1836 28.673 39.5234C28.9934 39.8594 29.4445 40.0273 30.0266 40.0273C30.4094 40.0273 30.7648 39.9922 31.093 39.9219C31.425 39.8477 31.7805 39.7266 32.1594 39.5586V40.6777C31.8234 40.8379 31.4836 40.9512 31.1398 41.0176C30.7961 41.084 30.4035 41.1172 29.9621 41.1172ZM29.7102 35.4453C29.2727 35.4453 28.9211 35.584 28.6555 35.8613C28.3937 36.1387 28.2375 36.543 28.1867 37.0742H31.1281C31.1203 36.5391 30.9914 36.1348 30.7414 35.8613C30.4914 35.584 30.1477 35.4453 29.7102 35.4453ZM36.1602 40.0039C36.4961 40.0039 36.832 39.9512 37.168 39.8457V40.8828C37.0156 40.9492 36.8184 41.0039 36.5762 41.0469C36.3379 41.0938 36.0898 41.1172 35.832 41.1172C34.5273 41.1172 33.875 40.4297 33.875 39.0547V35.5625H32.9902V34.9531L33.9395 34.4492L34.4082 33.0781H35.2578V34.5195H37.1035V35.5625H35.2578V39.0312C35.2578 39.3633 35.3398 39.6094 35.5039 39.7695C35.6719 39.9258 35.8906 40.0039 36.1602 40.0039ZM39.5457 41H38.1688V31.8828H39.5457V41ZM42.5973 41H41.2203V34.5195H42.5973V41ZM41.1383 32.8027C41.1383 32.5566 41.2047 32.3672 41.3375 32.2344C41.4742 32.1016 41.6676 32.0352 41.9176 32.0352C42.1598 32.0352 42.3473 32.1016 42.4801 32.2344C42.6168 32.3672 42.6852 32.5566 42.6852 32.8027C42.6852 33.0371 42.6168 33.2227 42.4801 33.3594C42.3473 33.4922 42.1598 33.5586 41.9176 33.5586C41.6676 33.5586 41.4742 33.4922 41.3375 33.3594C41.2047 33.2227 41.1383 33.0371 41.1383 32.8027ZM48.6254 39.1543C48.6254 39.7871 48.3949 40.2734 47.934 40.6133C47.473 40.9492 46.8129 41.1172 45.9535 41.1172C45.0902 41.1172 44.3969 40.9863 43.8734 40.7246V39.5352C44.6352 39.8867 45.3441 40.0625 46.0004 40.0625C46.848 40.0625 47.2719 39.8066 47.2719 39.2949C47.2719 39.1309 47.225 38.9941 47.1312 38.8848C47.0375 38.7754 46.8832 38.6621 46.6684 38.5449C46.4535 38.4277 46.1547 38.2949 45.7719 38.1465C45.0258 37.8574 44.5199 37.5684 44.2543 37.2793C43.9926 36.9902 43.8617 36.6152 43.8617 36.1543C43.8617 35.5996 44.0844 35.1699 44.5297 34.8652C44.9789 34.5566 45.5883 34.4023 46.3578 34.4023C47.1195 34.4023 47.8402 34.5566 48.5199 34.8652L48.0746 35.9023C47.3754 35.6133 46.7875 35.4688 46.3109 35.4688C45.5844 35.4688 45.2211 35.6758 45.2211 36.0898C45.2211 36.293 45.3148 36.4648 45.5023 36.6055C45.6937 36.7461 46.1078 36.9395 46.7445 37.1855C47.2797 37.3926 47.6684 37.582 47.9105 37.7539C48.1527 37.9258 48.3324 38.125 48.4496 38.3516C48.5668 38.5742 48.6254 38.8418 48.6254 39.1543ZM52.2336 40.0039C52.5695 40.0039 52.9055 39.9512 53.2414 39.8457V40.8828C53.0891 40.9492 52.8918 41.0039 52.6496 41.0469C52.4113 41.0938 52.1633 41.1172 51.9055 41.1172C50.6008 41.1172 49.9484 40.4297 49.9484 39.0547V35.5625H49.0637V34.9531L50.0129 34.4492L50.4816 33.0781H51.3312V34.5195H53.177V35.5625H51.3312V39.0312C51.3312 39.3633 51.4133 39.6094 51.5773 39.7695C51.7453 39.9258 51.9641 40.0039 52.2336 40.0039Z" fill="#333333"/>
</svg>

