<svg width="24" height="29" viewBox="0 0 24 29" fill="none" xmlns="http://www.w3.org/2000/svg">
<path d="M2.85731 8.90527C2.01573 8.90527 1.3335 9.66503 1.3335 10.6022C1.3335 12.04 2.96809 13.3873 3.11372 14.8177L4.25513 26.0286C4.32648 26.9027 4.98456 27.5719 5.77268 27.5719H18.2276C19.0158 27.5719 19.6738 26.9027 19.7452 26.0286L20.8866 14.8177C21.0322 13.3873 22.6668 12.04 22.6668 10.6022C22.6668 9.66503 21.9846 8.90527 21.143 8.90527H2.85731Z" stroke="#333333" stroke-width="1.9375"/>
<path d="M21.3334 9C20.6667 4.33333 16.5554 1 12.0001 1C7.47283 1 3.33341 4.33333 2.66675 9" stroke="#333333" stroke-width="1.9375"/>
<path d="M12.3456 12.5477L13.785 15.4637L17.0037 15.9321C17.1487 15.953 17.2693 16.0545 17.3146 16.1938C17.3599 16.3332 17.3221 16.4862 17.217 16.5884L14.8875 18.8563L15.4374 22.062C15.4621 22.2064 15.4028 22.3524 15.2842 22.4385C15.1656 22.5247 15.0085 22.5361 14.8787 22.4679L12.0003 20.9567L9.12141 22.4693C8.99158 22.5371 8.83451 22.5255 8.71605 22.4394C8.59758 22.3532 8.53819 22.2073 8.56276 22.0629L9.11262 18.8591L6.78312 16.5912C6.67811 16.4889 6.6403 16.336 6.6856 16.1966C6.73091 16.0573 6.85146 15.9557 6.99649 15.9348L10.2151 15.4641L11.6546 12.5482C11.7195 12.4168 11.8534 12.3336 11.9999 12.3335C12.1465 12.3334 12.2805 12.4164 12.3456 12.5477Z" stroke="#333333" stroke-width="1.55"/>
</svg>
