<svg width="71" height="60" viewBox="0 0 71 60" fill="none" xmlns="http://www.w3.org/2000/svg">
<rect x="0.5" width="70" height="60" rx="16" fill="#fff"/>
<path d="M28.6429 15.4287C28.0117 15.4287 27.5 15.9985 27.5 16.7014C27.5 17.7798 28.7259 18.7902 28.8352 19.863L29.6912 28.2712C29.7447 28.9268 30.2383 29.4287 30.8294 29.4287H40.1706C40.7617 29.4287 41.2553 28.9268 41.3088 28.2712L42.1648 19.863C42.2741 18.7902 43.5 17.7798 43.5 16.7014C43.5 15.9985 42.9883 15.4287 42.3571 15.4287H28.6429Z" fill="#fff" stroke="#333333" stroke-width="1.5"/>
<path d="M42.5 15.5C42 12 38.9165 9.5 35.5 9.5C32.1046 9.5 29 12 28.5 15.5" stroke="#333333" stroke-width="1.5"/>
<path d="M35.7591 18.1607L36.8387 20.3476L39.2527 20.6989C39.3615 20.7146 39.4519 20.7907 39.4859 20.8952C39.5198 20.9998 39.4915 21.1145 39.4127 21.1912L37.6656 22.8921L38.078 25.2964C38.0965 25.4047 38.052 25.5142 37.9631 25.5788C37.8742 25.6434 37.7563 25.6519 37.659 25.6008L35.5002 24.4674L33.341 25.6018C33.2436 25.6527 33.1258 25.644 33.037 25.5794C32.9481 25.5148 32.9036 25.4054 32.922 25.2971L33.3344 22.8942L31.5873 21.1932C31.5085 21.1166 31.4802 21.0018 31.5141 20.8973C31.5481 20.7928 31.6385 20.7167 31.7473 20.701L34.1613 20.348L35.2409 18.161C35.2896 18.0625 35.39 18.0001 35.4999 18C35.6098 17.9999 35.7103 18.0622 35.7591 18.1607Z" fill="#333333"/>
<path d="M9.13086 40.4336H11.6738C12.8535 40.4336 13.7051 40.6055 14.2285 40.9492C14.7559 41.293 15.0195 41.8359 15.0195 42.5781C15.0195 43.0781 14.8906 43.4941 14.6328 43.8262C14.375 44.1582 14.0039 44.3672 13.5195 44.4531V44.5117C14.1211 44.625 14.5625 44.8496 14.8438 45.1855C15.1289 45.5176 15.2715 45.9688 15.2715 46.5391C15.2715 47.3086 15.002 47.9121 14.4629 48.3496C13.9277 48.7832 13.1816 49 12.2246 49H9.13086V40.4336ZM10.5312 43.9727H11.8789C12.4648 43.9727 12.8926 43.8809 13.1621 43.6973C13.4316 43.5098 13.5664 43.1934 13.5664 42.748C13.5664 42.3457 13.4199 42.0547 13.127 41.875C12.8379 41.6953 12.377 41.6055 11.7441 41.6055H10.5312V43.9727ZM10.5312 45.1094V47.8223H12.0195C12.6055 47.8223 13.0469 47.7109 13.3438 47.4883C13.6445 47.2617 13.7949 46.9062 13.7949 46.4219C13.7949 45.9766 13.6426 45.6465 13.3379 45.4316C13.0332 45.2168 12.5703 45.1094 11.9492 45.1094H10.5312ZM21.1766 49L20.9832 48.1504H20.9129C20.7215 48.4512 20.448 48.6875 20.0926 48.8594C19.741 49.0312 19.3387 49.1172 18.8855 49.1172C18.1004 49.1172 17.5145 48.9219 17.1277 48.5312C16.741 48.1406 16.5477 47.5488 16.5477 46.7559V42.5195H17.9363V46.5156C17.9363 47.0117 18.0379 47.3848 18.241 47.6348C18.4441 47.8809 18.7625 48.0039 19.1961 48.0039C19.7742 48.0039 20.198 47.832 20.4676 47.4883C20.741 47.1406 20.8777 46.5605 20.8777 45.748V42.5195H22.2605V49H21.1766ZM26.5367 49.1172C25.5562 49.1172 24.8102 48.832 24.2984 48.2617C23.7906 47.6875 23.5367 46.8652 23.5367 45.7949C23.5367 44.7051 23.8023 43.8672 24.3336 43.2812C24.8687 42.6953 25.6402 42.4023 26.648 42.4023C27.3316 42.4023 27.9469 42.5293 28.4937 42.7832L28.0777 43.8906C27.4957 43.6641 27.0152 43.5508 26.6363 43.5508C25.5152 43.5508 24.9547 44.2949 24.9547 45.7832C24.9547 46.5098 25.0934 47.0566 25.3707 47.4238C25.652 47.7871 26.0621 47.9688 26.6012 47.9688C27.2145 47.9688 27.7945 47.8164 28.3414 47.5117V48.7129C28.0953 48.8574 27.8316 48.9609 27.5504 49.0234C27.273 49.0859 26.9352 49.1172 26.5367 49.1172ZM30.8949 45.5781L31.6742 44.6055L33.6313 42.5195H35.2191L32.6117 45.3027L35.3832 49H33.766L31.6859 46.1582L30.9301 46.7793V49H29.5648V39.8828H30.9301V44.3301L30.8598 45.5781H30.8949ZM38.9621 49.1172C37.9543 49.1172 37.1652 48.8242 36.5949 48.2383C36.0285 47.6484 35.7453 46.8379 35.7453 45.8066C35.7453 44.748 36.009 43.916 36.5363 43.3105C37.0637 42.7051 37.7883 42.4023 38.7102 42.4023C39.5656 42.4023 40.2414 42.6621 40.7375 43.1816C41.2336 43.7012 41.4816 44.416 41.4816 45.3262V46.0703H37.1633C37.1828 46.6992 37.3527 47.1836 37.673 47.5234C37.9934 47.8594 38.4445 48.0273 39.0266 48.0273C39.4094 48.0273 39.7648 47.9922 40.093 47.9219C40.425 47.8477 40.7805 47.7266 41.1594 47.5586V48.6777C40.8234 48.8379 40.4836 48.9512 40.1398 49.0176C39.7961 49.084 39.4035 49.1172 38.9621 49.1172ZM38.7102 43.4453C38.2727 43.4453 37.9211 43.584 37.6555 43.8613C37.3937 44.1387 37.2375 44.543 37.1867 45.0742H40.1281C40.1203 44.5391 39.9914 44.1348 39.7414 43.8613C39.4914 43.584 39.1477 43.4453 38.7102 43.4453ZM45.1602 48.0039C45.4961 48.0039 45.832 47.9512 46.168 47.8457V48.8828C46.0156 48.9492 45.8184 49.0039 45.5762 49.0469C45.3379 49.0938 45.0898 49.1172 44.832 49.1172C43.5273 49.1172 42.875 48.4297 42.875 47.0547V43.5625H41.9902V42.9531L42.9395 42.4492L43.4082 41.0781H44.2578V42.5195H46.1035V43.5625H44.2578V47.0312C44.2578 47.3633 44.3398 47.6094 44.5039 47.7695C44.6719 47.9258 44.8906 48.0039 45.1602 48.0039ZM48.5457 49H47.1688V39.8828H48.5457V49ZM51.5973 49H50.2203V42.5195H51.5973V49ZM50.1383 40.8027C50.1383 40.5566 50.2047 40.3672 50.3375 40.2344C50.4742 40.1016 50.6676 40.0352 50.9176 40.0352C51.1598 40.0352 51.3473 40.1016 51.4801 40.2344C51.6168 40.3672 51.6852 40.5566 51.6852 40.8027C51.6852 41.0371 51.6168 41.2227 51.4801 41.3594C51.3473 41.4922 51.1598 41.5586 50.9176 41.5586C50.6676 41.5586 50.4742 41.4922 50.3375 41.3594C50.2047 41.2227 50.1383 41.0371 50.1383 40.8027ZM57.6254 47.1543C57.6254 47.7871 57.3949 48.2734 56.934 48.6133C56.473 48.9492 55.8129 49.1172 54.9535 49.1172C54.0902 49.1172 53.3969 48.9863 52.8734 48.7246V47.5352C53.6352 47.8867 54.3441 48.0625 55.0004 48.0625C55.848 48.0625 56.2719 47.8066 56.2719 47.2949C56.2719 47.1309 56.225 46.9941 56.1312 46.8848C56.0375 46.7754 55.8832 46.6621 55.6684 46.5449C55.4535 46.4277 55.1547 46.2949 54.7719 46.1465C54.0258 45.8574 53.5199 45.5684 53.2543 45.2793C52.9926 44.9902 52.8617 44.6152 52.8617 44.1543C52.8617 43.5996 53.0844 43.1699 53.5297 42.8652C53.9789 42.5566 54.5883 42.4023 55.3578 42.4023C56.1195 42.4023 56.8402 42.5566 57.5199 42.8652L57.0746 43.9023C56.3754 43.6133 55.7875 43.4688 55.3109 43.4688C54.5844 43.4688 54.2211 43.6758 54.2211 44.0898C54.2211 44.293 54.3148 44.4648 54.5023 44.6055C54.6937 44.7461 55.1078 44.9395 55.7445 45.1855C56.2797 45.3926 56.6684 45.582 56.9105 45.7539C57.1527 45.9258 57.3324 46.125 57.4496 46.3516C57.5668 46.5742 57.6254 46.8418 57.6254 47.1543ZM61.2336 48.0039C61.5695 48.0039 61.9055 47.9512 62.2414 47.8457V48.8828C62.0891 48.9492 61.8918 49.0039 61.6496 49.0469C61.4113 49.0938 61.1633 49.1172 60.9055 49.1172C59.6008 49.1172 58.9484 48.4297 58.9484 47.0547V43.5625H58.0637V42.9531L59.0129 42.4492L59.4816 41.0781H60.3312V42.5195H62.177V43.5625H60.3312V47.0312C60.3312 47.3633 60.4133 47.6094 60.5773 47.7695C60.7453 47.9258 60.9641 48.0039 61.2336 48.0039Z" fill="#333333"/>
</svg>


