<svg width="16" height="17" viewBox="0 0 16 17" fill="none" xmlns="http://www.w3.org/2000/svg">
<mask id="path-1-inside-1_652_22887" fill="white">
<path fill-rule="evenodd" clip-rule="evenodd" d="M2.66667 6.06494H13.3333H13.7011C13.7084 6.06494 13.7143 6.07082 13.7143 6.07807V6.07807C13.7143 6.08467 13.7192 6.09024 13.7258 6.09112C15.0125 6.26439 16 7.27676 16 8.49972C16 9.84442 14.8061 10.9345 13.3333 10.9345C12.3066 10.9345 11.4154 10.4047 10.9698 9.62826C10.9401 9.57659 10.8859 9.5432 10.8263 9.5432V9.5432C10.7283 9.5432 10.6537 9.63082 10.6608 9.72864C10.6647 9.78231 10.6666 9.83646 10.6666 9.89103C10.6666 11.2357 9.47273 12.3258 7.99997 12.3258C6.52721 12.3258 5.33331 11.2357 5.33331 9.89103C5.33331 9.83645 5.33527 9.78229 5.33914 9.72861C5.3462 9.63081 5.2717 9.5432 5.17364 9.5432V9.5432C5.11408 9.5432 5.05986 9.57658 5.03021 9.62824C4.58456 10.4047 3.69337 10.9345 2.66667 10.9345C1.19391 10.9345 0 9.84442 0 8.49972C0 7.27676 0.987533 6.26439 2.27423 6.09112C2.28077 6.09024 2.28571 6.08467 2.28571 6.07807V6.07807C2.28571 6.07082 2.29159 6.06494 2.29884 6.06494H2.66667Z"/>
</mask>
<path fill-rule="evenodd" clip-rule="evenodd" d="M2.66667 6.06494H13.3333H13.7011C13.7084 6.06494 13.7143 6.07082 13.7143 6.07807V6.07807C13.7143 6.08467 13.7192 6.09024 13.7258 6.09112C15.0125 6.26439 16 7.27676 16 8.49972C16 9.84442 14.8061 10.9345 13.3333 10.9345C12.3066 10.9345 11.4154 10.4047 10.9698 9.62826C10.9401 9.57659 10.8859 9.5432 10.8263 9.5432V9.5432C10.7283 9.5432 10.6537 9.63082 10.6608 9.72864C10.6647 9.78231 10.6666 9.83646 10.6666 9.89103C10.6666 11.2357 9.47273 12.3258 7.99997 12.3258C6.52721 12.3258 5.33331 11.2357 5.33331 9.89103C5.33331 9.83645 5.33527 9.78229 5.33914 9.72861C5.3462 9.63081 5.2717 9.5432 5.17364 9.5432V9.5432C5.11408 9.5432 5.05986 9.57658 5.03021 9.62824C4.58456 10.4047 3.69337 10.9345 2.66667 10.9345C1.19391 10.9345 0 9.84442 0 8.49972C0 7.27676 0.987533 6.26439 2.27423 6.09112C2.28077 6.09024 2.28571 6.08467 2.28571 6.07807V6.07807C2.28571 6.07082 2.29159 6.06494 2.29884 6.06494H2.66667Z" fill="white"/>
<path d="M2.27423 6.09112L2.13498 5.05698L2.27423 6.09112ZM5.03021 9.62824L5.93522 10.1477L5.03021 9.62824ZM5.33914 9.72861L4.29837 9.65354L5.33914 9.72861ZM10.9698 9.62826L11.8748 9.10884L10.9698 9.62826ZM13.7258 6.09112L13.5865 7.12527L13.7258 6.09112ZM10.6608 9.72864L9.62003 9.8037L10.6608 9.72864ZM2.66667 7.10842H13.3333V5.02146H2.66667V7.10842ZM13.3333 7.10842H13.7011V5.02146H13.3333V7.10842ZM17.0435 8.49972C17.0435 6.6766 15.5886 5.28908 13.865 5.05698L13.5865 7.12527C14.4363 7.2397 14.9565 7.87692 14.9565 8.49972H17.0435ZM13.3333 11.978C15.291 11.978 17.0435 10.508 17.0435 8.49972H14.9565C14.9565 9.18081 14.3212 9.89103 13.3333 9.89103V11.978ZM10.0648 10.1477C10.7054 11.2639 11.9512 11.978 13.3333 11.978V9.89103C12.6621 9.89103 12.1255 9.5456 11.8748 9.10884L10.0648 10.1477ZM9.62003 9.8037C9.6221 9.83242 9.62316 9.86154 9.62316 9.89103H11.7101C11.7101 9.81138 11.7072 9.7322 11.7016 9.65357L9.62003 9.8037ZM9.62316 9.89103C9.62316 10.5721 8.98781 11.2823 7.99997 11.2823V13.3693C9.95765 13.3693 11.7101 11.8993 11.7101 9.89103H9.62316ZM7.99997 11.2823C7.01214 11.2823 6.37678 10.5721 6.37678 9.89103H4.28983C4.28983 11.8993 6.04229 13.3693 7.99997 13.3693V11.2823ZM6.37678 9.89103C6.37678 9.86153 6.37785 9.83241 6.37992 9.80368L4.29837 9.65354C4.2927 9.73217 4.28983 9.81137 4.28983 9.89103H6.37678ZM4.12519 9.10883C3.87452 9.54559 3.33791 9.89103 2.66667 9.89103V11.978C4.04884 11.978 5.2946 11.2639 5.93522 10.1477L4.12519 9.10883ZM2.66667 9.89103C1.67883 9.89103 1.04348 9.18081 1.04348 8.49972H-1.04348C-1.04348 10.508 0.708984 11.978 2.66667 11.978V9.89103ZM1.04348 8.49972C1.04348 7.87692 1.56371 7.2397 2.41349 7.12526L2.13498 5.05698C0.411352 5.28908 -1.04348 6.6766 -1.04348 8.49972H1.04348ZM2.29884 7.10842H2.66667V5.02146H2.29884V7.10842ZM3.32919 6.07807C3.32919 6.64712 2.86788 7.10842 2.29884 7.10842V5.02146C1.71529 5.02146 1.24223 5.49452 1.24223 6.07807H3.32919ZM2.41349 7.12526C2.93072 7.05561 3.32919 6.61428 3.32919 6.07807H1.24223C1.24223 5.55505 1.63082 5.12487 2.13498 5.05698L2.41349 7.12526ZM5.17364 8.49972C4.71669 8.49972 4.32881 8.75404 4.12519 9.10883L5.93522 10.1477C5.7909 10.3991 5.51147 10.5867 5.17364 10.5867V8.49972ZM6.37992 9.80368C6.42636 9.15991 5.93452 8.49972 5.17364 8.49972V10.5867C4.60888 10.5867 4.26604 10.1017 4.29837 9.65354L6.37992 9.80368ZM11.8748 9.10884C11.6712 8.75404 11.2833 8.49972 10.8263 8.49972V10.5867C10.4885 10.5867 10.2091 10.3991 10.0648 10.1477L11.8748 9.10884ZM12.6708 6.07807C12.6708 6.61427 13.0692 7.05561 13.5865 7.12527L13.865 5.05698C14.3692 5.12487 14.7578 5.55507 14.7578 6.07807H12.6708ZM10.8263 8.49972C10.0654 8.49972 9.5736 9.15992 9.62003 9.8037L11.7016 9.65357C11.7339 10.1017 11.3911 10.5867 10.8263 10.5867V8.49972ZM13.7011 7.10842C13.1321 7.10842 12.6708 6.64712 12.6708 6.07807H14.7578C14.7578 5.49452 14.2847 5.02146 13.7011 5.02146V7.10842Z" fill="#9E9E9E" mask="url(#path-1-inside-1_652_22887)"/>
<path fill-rule="evenodd" clip-rule="evenodd" d="M1.28367 11.6303C0.995522 11.6303 0.761931 11.8639 0.761931 12.152V13.7173C0.761931 15.254 2.00775 16.4999 3.54454 16.4999H12.4555C13.9923 16.4999 15.2381 15.254 15.2381 13.7173V12.152C15.2381 11.8639 15.0045 11.6303 14.7164 11.6303V11.6303C14.4282 11.6303 14.1946 11.8639 14.1946 12.152V13.7173C14.1946 14.6778 13.416 15.4564 12.4555 15.4564H3.54454C2.58404 15.4564 1.80541 14.6778 1.80541 13.7173V12.152C1.80541 11.8639 1.57182 11.6303 1.28367 11.6303V11.6303Z" fill="#9E9E9E"/>
<path d="M0.692337 12.1521V13.7173H0.831467V12.1521H0.692337ZM0.692337 13.7173C0.692337 15.2925 1.9693 16.5695 3.54451 16.5695V16.4304C2.04614 16.4304 0.831467 15.2157 0.831467 13.7173H0.692337ZM3.54451 16.5695H12.4555V16.4304H3.54451V16.5695ZM12.4555 16.5695C14.0307 16.5695 15.3077 15.2925 15.3077 13.7173H15.1685C15.1685 15.2157 13.9539 16.4304 12.4555 16.4304V16.5695ZM15.3077 13.7173V12.1521H15.1685V13.7173H15.3077ZM14.2642 13.7173V12.1521H14.125V13.7173H14.2642ZM12.4555 15.526C13.4544 15.526 14.2642 14.7162 14.2642 13.7173H14.125C14.125 14.6394 13.3776 15.3869 12.4555 15.3869V15.526ZM3.54451 15.526H12.4555V15.3869H3.54451V15.526ZM1.73581 13.7173C1.73581 14.7162 2.54559 15.526 3.54451 15.526V15.3869C2.62243 15.3869 1.87495 14.6394 1.87495 13.7173H1.73581ZM1.73581 12.1521V13.7173H1.87495V12.1521H1.73581ZM1.87495 12.1521C1.87495 11.8255 1.61021 11.5608 1.28364 11.5608V11.6999C1.53337 11.6999 1.73581 11.9024 1.73581 12.1521H1.87495ZM14.7164 11.5608C14.3898 11.5608 14.125 11.8255 14.125 12.1521H14.2642C14.2642 11.9024 14.4666 11.6999 14.7164 11.6999V11.5608ZM15.3077 12.1521C15.3077 11.8255 15.0429 11.5608 14.7164 11.5608V11.6999C14.9661 11.6999 15.1685 11.9024 15.1685 12.1521H15.3077ZM0.831467 12.1521C0.831467 11.9024 1.03391 11.6999 1.28364 11.6999V11.5608C0.957073 11.5608 0.692337 11.8255 0.692337 12.1521H0.831467Z" fill="#9E9E9E"/>
<path d="M9.60002 3.28261C9.60002 4.051 8.88368 4.67391 8.00002 4.67391C7.11637 4.67391 6.40002 4.051 6.40002 3.28261C6.40002 2.51421 7.36002 0.5 8.00002 0.5C8.64002 0.5 9.60002 2.51421 9.60002 3.28261Z" stroke="#9E9E9E" stroke-width="0.973913"/>
<path d="M12.8 4.21025C12.8 4.46638 12.6209 4.67402 12.4 4.67402C12.1791 4.67402 12 4.46638 12 4.21025C12 3.95412 12.24 3.28271 12.4 3.28271C12.56 3.28271 12.8 3.95412 12.8 4.21025Z" stroke="#9E9E9E" stroke-width="0.973913"/>
<path d="M4.00001 4.21025C4.00001 4.46638 3.82093 4.67402 3.60001 4.67402C3.3791 4.67402 3.20001 4.46638 3.20001 4.21025C3.20001 3.95412 3.44001 3.28271 3.60001 3.28271C3.76001 3.28271 4.00001 3.95412 4.00001 4.21025Z" stroke="#9E9E9E" stroke-width="0.973913"/>
</svg>
