<svg width="20" height="19" viewBox="0 0 20 19" fill="none" xmlns="http://www.w3.org/2000/svg">
<path d="M9.25024 13.2697C9.25024 12.8557 9.58624 12.5137 10.0002 12.5137C10.4142 12.5137 10.7502 12.8447 10.7502 13.2587V13.2697C10.7502 13.6837 10.4142 14.0197 10.0002 14.0197C9.58624 14.0197 9.25024 13.6837 9.25024 13.2697Z" fill="#200E32"/>
<path d="M2.7956 17.418H17.2776C18.4246 17.358 19.3066 16.381 19.2476 15.234C19.2346 15.002 19.1846 14.773 19.0966 14.559L11.8196 1.82298C11.2636 0.817977 9.9986 0.453977 8.9936 1.01098C8.6516 1.19898 8.3696 1.48098 8.1806 1.82298L0.903596 14.559C0.471596 15.623 0.983596 16.835 2.0466 17.268C2.2626 17.355 2.4906 17.405 2.7226 17.418" stroke="#7D7D7D" stroke-width="1.5" stroke-linecap="round" stroke-linejoin="round"/>
<path d="M9.98975 10.3959V7.2959" stroke="#7D7D7D" stroke-width="1.5" stroke-linecap="round" stroke-linejoin="round"/>
</svg>
