<svg width="147" height="146" viewBox="0 0 147 146" fill="none" xmlns="http://www.w3.org/2000/svg">
<circle cx="73.5" cy="73" r="72.25" stroke="#818181" stroke-width="1.5" stroke-dasharray="4 4"/>
<path fill-rule="evenodd" clip-rule="evenodd" d="M81.0169 56.4797V56.4797C80.5196 56.4797 80.0689 56.193 79.8569 55.745C79.4743 54.9343 78.9876 53.8983 78.6996 53.3343C78.2743 52.4957 77.5849 52.0077 76.6303 52.001C76.6143 51.9997 70.3849 51.9997 70.3689 52.001C69.4143 52.0077 68.7263 52.4957 68.2996 53.3343C68.0129 53.8983 67.5263 54.9343 67.1436 55.745C66.9316 56.193 66.4796 56.4797 65.9836 56.4797V56.4797C63.3223 56.4797 61.1663 58.6357 61.1663 61.2957V69.2103C61.1663 71.869 63.3223 74.0263 65.9836 74.0263H81.0169C83.6769 74.0263 85.8329 71.869 85.8329 69.2103V61.2957C85.8329 58.6357 83.6769 56.4797 81.0169 56.4797Z" stroke="#818181" stroke-width="2.0625" stroke-linecap="round" stroke-linejoin="round"/>
<path fill-rule="evenodd" clip-rule="evenodd" d="M69.2619 64.7788C69.2605 67.1161 71.1685 69.0281 73.5019 69.0268C75.8312 69.0241 77.7339 67.1201 77.7379 64.7881C77.7419 62.4468 75.8405 60.5388 73.5045 60.5361C71.1552 60.5335 69.2432 62.4735 69.2619 64.7788Z" stroke="#818181" stroke-width="2.0625" stroke-linecap="round" stroke-linejoin="round"/>
<path d="M80.0366 61.6601C79.9078 61.6469 79.7806 61.6133 79.638 61.5559C79.4795 61.4855 79.3423 61.3959 79.2096 61.2611C78.9713 61.0076 78.8333 60.676 78.8333 60.334C78.8333 60.1523 78.8704 59.9722 78.9429 59.8091C79.0156 59.6438 79.1018 59.5044 79.2575 59.3527C79.3759 59.2496 79.4973 59.1666 79.6631 59.0935C80.155 58.8986 80.7401 59.0151 81.1057 59.3805C81.2153 59.4885 81.3076 59.6188 81.3588 59.7287L81.3891 59.8066C81.4628 59.9722 81.4999 60.1523 81.4999 60.334C81.4999 60.683 81.3637 61.0057 81.1108 61.2744C80.8922 61.4944 80.6051 61.6297 80.2989 61.6601L80.1666 61.6667L80.0366 61.6601Z" fill="#818181"/>
<path d="M34.5855 86.9014C33.4872 86.9014 32.6191 87.2682 31.9811 88.002C31.3476 88.7311 31.0309 89.7314 31.0309 91.0029C31.0309 92.3109 31.3362 93.3226 31.9469 94.0381C32.5621 94.749 33.4371 95.1045 34.5719 95.1045C35.2691 95.1045 36.0644 94.9792 36.9576 94.7285V95.7471C36.2649 96.0068 35.4104 96.1367 34.3941 96.1367C32.9221 96.1367 31.7851 95.6901 30.983 94.7969C30.1855 93.9036 29.7867 92.6344 29.7867 90.9893C29.7867 89.9593 29.9781 89.057 30.3609 88.2822C30.7483 87.5075 31.3043 86.9105 32.0289 86.4912C32.7581 86.0719 33.6148 85.8623 34.5992 85.8623C35.6474 85.8623 36.5634 86.0537 37.3473 86.4365L36.8551 87.4346C36.0986 87.0791 35.3421 86.9014 34.5855 86.9014ZM43.7943 96V91.1533C43.7943 90.5426 43.6553 90.0869 43.3773 89.7861C43.0994 89.4854 42.6641 89.335 42.0717 89.335C41.2833 89.335 40.7068 89.5492 40.3422 89.9775C39.9822 90.4059 39.8021 91.1077 39.8021 92.083V96H38.6674V85.3633H39.8021V88.583C39.8021 88.9704 39.7839 89.2917 39.7475 89.5469H39.8158C40.0391 89.1868 40.3559 88.9043 40.766 88.6992C41.1807 88.4896 41.6524 88.3848 42.1811 88.3848C43.0971 88.3848 43.7829 88.6035 44.2387 89.041C44.699 89.474 44.9291 90.1644 44.9291 91.1123V96H43.7943ZM53.4338 92.2471C53.4338 93.4684 53.1262 94.4232 52.5109 95.1113C51.8957 95.7949 51.0458 96.1367 49.9611 96.1367C49.2912 96.1367 48.6965 95.9795 48.177 95.665C47.6574 95.3506 47.2564 94.8994 46.9738 94.3115C46.6913 93.7236 46.55 93.0355 46.55 92.2471C46.55 91.0257 46.8553 90.0755 47.466 89.3965C48.0767 88.7129 48.9244 88.3711 50.009 88.3711C51.0572 88.3711 51.8889 88.7197 52.5041 89.417C53.1239 90.1143 53.4338 91.0576 53.4338 92.2471ZM47.7258 92.2471C47.7258 93.2041 47.9172 93.9333 48.3 94.4346C48.6828 94.9359 49.2456 95.1865 49.9885 95.1865C50.7313 95.1865 51.2941 94.9382 51.677 94.4414C52.0643 93.9401 52.258 93.2087 52.258 92.2471C52.258 91.2946 52.0643 90.5723 51.677 90.0801C51.2941 89.5833 50.7268 89.335 49.9748 89.335C49.232 89.335 48.6714 89.5788 48.2932 90.0664C47.9149 90.554 47.7258 91.2809 47.7258 92.2471ZM61.5967 92.2471C61.5967 93.4684 61.2891 94.4232 60.6738 95.1113C60.0586 95.7949 59.2087 96.1367 58.124 96.1367C57.4541 96.1367 56.8594 95.9795 56.3398 95.665C55.8203 95.3506 55.4193 94.8994 55.1367 94.3115C54.8542 93.7236 54.7129 93.0355 54.7129 92.2471C54.7129 91.0257 55.0182 90.0755 55.6289 89.3965C56.2396 88.7129 57.0872 88.3711 58.1719 88.3711C59.2201 88.3711 60.0518 88.7197 60.667 89.417C61.2868 90.1143 61.5967 91.0576 61.5967 92.2471ZM55.8887 92.2471C55.8887 93.2041 56.0801 93.9333 56.4629 94.4346C56.8457 94.9359 57.4085 95.1865 58.1514 95.1865C58.8942 95.1865 59.457 94.9382 59.8398 94.4414C60.2272 93.9401 60.4209 93.2087 60.4209 92.2471C60.4209 91.2946 60.2272 90.5723 59.8398 90.0801C59.457 89.5833 58.8897 89.335 58.1377 89.335C57.3949 89.335 56.8343 89.5788 56.4561 90.0664C56.0778 90.554 55.8887 91.2809 55.8887 92.2471ZM68.1258 93.9561C68.1258 94.6533 67.866 95.1911 67.3465 95.5693C66.827 95.9476 66.0978 96.1367 65.159 96.1367C64.1655 96.1367 63.3908 95.9795 62.8348 95.665V94.6123C63.1948 94.7946 63.5799 94.9382 63.99 95.043C64.4048 95.1478 64.8035 95.2002 65.1863 95.2002C65.7788 95.2002 66.2345 95.1068 66.5535 94.9199C66.8725 94.7285 67.032 94.4391 67.032 94.0518C67.032 93.7601 66.9044 93.5117 66.6492 93.3066C66.3986 93.097 65.9064 92.8509 65.1727 92.5684C64.4754 92.3086 63.9786 92.083 63.6824 91.8916C63.3908 91.6956 63.172 91.4746 63.0262 91.2285C62.8849 90.9824 62.8143 90.6885 62.8143 90.3467C62.8143 89.736 63.0626 89.2552 63.5594 88.9043C64.0561 88.5488 64.7374 88.3711 65.6033 88.3711C66.41 88.3711 67.1984 88.5352 67.9686 88.8633L67.5652 89.7861C66.8133 89.4762 66.132 89.3213 65.5213 89.3213C64.9835 89.3213 64.5779 89.4056 64.3045 89.5742C64.0311 89.7428 63.8943 89.9753 63.8943 90.2715C63.8943 90.472 63.9445 90.6429 64.0447 90.7842C64.1495 90.9255 64.3159 91.0599 64.5438 91.1875C64.7716 91.3151 65.2091 91.4997 65.8563 91.7412C66.7449 92.0648 67.3442 92.3906 67.6541 92.7188C67.9686 93.0469 68.1258 93.4593 68.1258 93.9561ZM72.8434 96.1367C71.7359 96.1367 70.8609 95.7995 70.2184 95.125C69.5803 94.4505 69.2613 93.514 69.2613 92.3154C69.2613 91.1077 69.5576 90.1484 70.15 89.4375C70.747 88.7266 71.5468 88.3711 72.5494 88.3711C73.4882 88.3711 74.2311 88.681 74.7779 89.3008C75.3248 89.916 75.5982 90.7295 75.5982 91.7412V92.459H70.4371C70.4599 93.3385 70.6809 94.0062 71.1002 94.4619C71.524 94.9176 72.1188 95.1455 72.8844 95.1455C73.691 95.1455 74.4885 94.9769 75.277 94.6396V95.6514C74.8759 95.8245 74.4954 95.9476 74.1354 96.0205C73.7799 96.098 73.3492 96.1367 72.8434 96.1367ZM72.5357 89.3213C71.9342 89.3213 71.4534 89.5173 71.0934 89.9092C70.7379 90.3011 70.5283 90.8434 70.4645 91.5361H74.3814C74.3814 90.8206 74.2219 90.2738 73.9029 89.8955C73.5839 89.5127 73.1282 89.3213 72.5357 89.3213ZM81.7111 96H80.5764V88.5078H81.7111V96ZM80.4807 86.4775C80.4807 86.2178 80.5445 86.0286 80.6721 85.9102C80.7997 85.7871 80.9592 85.7256 81.1506 85.7256C81.3329 85.7256 81.4901 85.7871 81.6223 85.9102C81.7544 86.0332 81.8205 86.2223 81.8205 86.4775C81.8205 86.7327 81.7544 86.9242 81.6223 87.0518C81.4901 87.1748 81.3329 87.2363 81.1506 87.2363C80.9592 87.2363 80.7997 87.1748 80.6721 87.0518C80.5445 86.9242 80.4807 86.7327 80.4807 86.4775ZM93.3672 96V91.126C93.3672 90.529 93.2396 90.0824 92.9844 89.7861C92.7292 89.4854 92.3327 89.335 91.7949 89.335C91.0885 89.335 90.5667 89.5378 90.2295 89.9434C89.8923 90.349 89.7236 90.9733 89.7236 91.8164V96H88.5889V91.126C88.5889 90.529 88.4613 90.0824 88.2061 89.7861C87.9508 89.4854 87.5521 89.335 87.0098 89.335C86.2988 89.335 85.777 89.5492 85.4443 89.9775C85.1162 90.4014 84.9521 91.0986 84.9521 92.0693V96H83.8174V88.5078H84.7402L84.9248 89.5332H84.9795C85.1937 89.1686 85.4945 88.8838 85.8818 88.6787C86.2738 88.4736 86.7113 88.3711 87.1943 88.3711C88.3656 88.3711 89.1312 88.7949 89.4912 89.6426H89.5459C89.7692 89.2507 90.0928 88.9408 90.5166 88.7129C90.9404 88.485 91.4235 88.3711 91.9658 88.3711C92.8135 88.3711 93.4469 88.5898 93.8662 89.0273C94.29 89.4603 94.502 90.1553 94.502 91.1123V96H93.3672ZM101.154 96L100.929 94.9336H100.874C100.5 95.403 100.126 95.722 99.7527 95.8906C99.3836 96.0547 98.921 96.1367 98.365 96.1367C97.6222 96.1367 97.0389 95.9453 96.615 95.5625C96.1958 95.1797 95.9861 94.6351 95.9861 93.9287C95.9861 92.4157 97.1961 91.6227 99.616 91.5498L100.888 91.5088V91.0439C100.888 90.4561 100.76 90.0231 100.505 89.7451C100.254 89.4626 99.8507 89.3213 99.2947 89.3213C98.6704 89.3213 97.964 89.5127 97.1756 89.8955L96.827 89.0273C97.1961 88.8268 97.5994 88.6696 98.0369 88.5557C98.479 88.4417 98.921 88.3848 99.3631 88.3848C100.256 88.3848 100.917 88.583 101.346 88.9795C101.778 89.376 101.995 90.0117 101.995 90.8867V96H101.154ZM98.5906 95.2002C99.297 95.2002 99.8507 95.0065 100.252 94.6191C100.657 94.2318 100.86 93.6895 100.86 92.9922V92.3154L99.7254 92.3633C98.8231 92.3952 98.1714 92.5365 97.7703 92.7871C97.3738 93.0332 97.1756 93.4183 97.1756 93.9424C97.1756 94.3525 97.2986 94.6647 97.5447 94.8789C97.7954 95.0931 98.144 95.2002 98.5906 95.2002ZM110.171 88.5078V89.2256L108.784 89.3896C108.911 89.5492 109.025 89.7588 109.126 90.0186C109.226 90.2738 109.276 90.5632 109.276 90.8867C109.276 91.6204 109.025 92.2061 108.524 92.6436C108.023 93.0811 107.335 93.2998 106.46 93.2998C106.236 93.2998 106.027 93.2816 105.831 93.2451C105.348 93.5003 105.106 93.8216 105.106 94.209C105.106 94.4141 105.19 94.5667 105.359 94.667C105.528 94.7627 105.817 94.8105 106.227 94.8105H107.553C108.365 94.8105 108.987 94.9814 109.42 95.3232C109.857 95.665 110.076 96.1618 110.076 96.8135C110.076 97.6429 109.743 98.2741 109.078 98.707C108.412 99.1445 107.442 99.3633 106.166 99.3633C105.186 99.3633 104.429 99.181 103.896 98.8164C103.367 98.4518 103.103 97.9368 103.103 97.2715C103.103 96.8158 103.249 96.4215 103.541 96.0889C103.832 95.7562 104.242 95.5306 104.771 95.4121C104.58 95.3255 104.418 95.1911 104.286 95.0088C104.158 94.8265 104.094 94.6146 104.094 94.373C104.094 94.0996 104.167 93.8604 104.313 93.6553C104.459 93.4502 104.689 93.252 105.004 93.0605C104.616 92.901 104.299 92.6299 104.053 92.2471C103.812 91.8643 103.691 91.4268 103.691 90.9346C103.691 90.1143 103.937 89.4831 104.429 89.041C104.921 88.5944 105.619 88.3711 106.521 88.3711C106.913 88.3711 107.266 88.4167 107.581 88.5078H110.171ZM104.197 97.2578C104.197 97.6634 104.368 97.971 104.71 98.1807C105.051 98.3903 105.541 98.4951 106.179 98.4951C107.132 98.4951 107.836 98.3516 108.292 98.0645C108.752 97.7819 108.982 97.3968 108.982 96.9092C108.982 96.5036 108.857 96.221 108.606 96.0615C108.355 95.9066 107.884 95.8291 107.191 95.8291H105.831C105.316 95.8291 104.915 95.9521 104.628 96.1982C104.34 96.4443 104.197 96.7975 104.197 97.2578ZM104.812 90.9072C104.812 91.4313 104.96 91.8278 105.256 92.0967C105.553 92.3656 105.965 92.5 106.494 92.5C107.601 92.5 108.155 91.9622 108.155 90.8867C108.155 89.7611 107.594 89.1982 106.473 89.1982C105.94 89.1982 105.53 89.3418 105.243 89.6289C104.956 89.916 104.812 90.3421 104.812 90.9072ZM114.575 96.1367C113.467 96.1367 112.592 95.7995 111.95 95.125C111.312 94.4505 110.993 93.514 110.993 92.3154C110.993 91.1077 111.289 90.1484 111.881 89.4375C112.478 88.7266 113.278 88.3711 114.281 88.3711C115.219 88.3711 115.962 88.681 116.509 89.3008C117.056 89.916 117.329 90.7295 117.329 91.7412V92.459H112.168C112.191 93.3385 112.412 94.0062 112.831 94.4619C113.255 94.9176 113.85 95.1455 114.616 95.1455C115.422 95.1455 116.22 94.9769 117.008 94.6396V95.6514C116.607 95.8245 116.227 95.9476 115.867 96.0205C115.511 96.098 115.08 96.1367 114.575 96.1367ZM114.267 89.3213C113.665 89.3213 113.185 89.5173 112.825 89.9092C112.469 90.3011 112.26 90.8434 112.196 91.5361H116.113C116.113 90.8206 115.953 90.2738 115.634 89.8955C115.315 89.5127 114.859 89.3213 114.267 89.3213Z" fill="#818181"/>
</svg>

