<svg width="26" height="26" viewBox="0 0 26 26" fill="none" xmlns="http://www.w3.org/2000/svg">
<path d="M13 25C19.6274 25 25 19.6274 25 13C25 6.37258 19.6274 1 13 1C6.37258 1 1 6.37258 1 13C1 19.6274 6.37258 25 13 25Z" stroke="white" stroke-width="1.5"/>
<path d="M16.4937 9.75844C16.8383 9.41385 17.397 9.41385 17.7416 9.75844C18.0861 10.103 18.0861 10.6617 17.7416 11.0063L12.4474 16.3004C12.1029 16.645 11.5442 16.645 11.1996 16.3004L8.25844 13.3592C7.91385 13.0146 7.91385 12.456 8.25844 12.1114C8.60302 11.7668 9.16169 11.7668 9.50627 12.1114L11.8235 14.4286L16.4937 9.75844Z" fill="white"/>
</svg>

