<svg width="35" height="35" viewBox="0 0 35 35" fill="none" xmlns="http://www.w3.org/2000/svg">
<path d="M33.4395 17.2822C33.4395 26.1188 26.276 33.2822 17.4395 33.2822C8.6029 33.2822 1.43945 26.1188 1.43945 17.2822C1.43945 8.44567 8.6029 1.28223 17.4395 1.28223C26.276 1.28223 33.4395 8.44567 33.4395 17.2822Z" fill="#DCA16A"/>
<path fill-rule="evenodd" clip-rule="evenodd" d="M34.6248 17.2824C34.6248 26.7735 26.9307 34.4675 17.4396 34.4675C7.94846 34.4675 0.254395 26.7735 0.254395 17.2824C0.254395 7.79124 7.94846 0.097168 17.4396 0.097168C26.9307 0.097168 34.6248 7.79124 34.6248 17.2824ZM17.4396 33.2824C26.2761 33.2824 33.4396 26.1189 33.4396 17.2824C33.4396 8.4458 26.2761 1.28235 17.4396 1.28235C8.60302 1.28235 1.43958 8.4458 1.43958 17.2824C1.43958 26.1189 8.60302 33.2824 17.4396 33.2824Z" fill="#C38144"/>
<path d="M29.2914 17.282C29.2914 23.8276 23.9851 29.1339 17.4395 29.1339C10.8939 29.1339 5.58765 23.8276 5.58765 17.282C5.58765 10.7364 10.8939 5.43018 17.4395 5.43018C23.9851 5.43018 29.2914 10.7364 29.2914 17.282Z" fill="#F7BA82"/>
<path fill-rule="evenodd" clip-rule="evenodd" d="M30.4767 17.2822C30.4767 24.4823 24.6398 30.3192 17.4396 30.3192C10.2395 30.3192 4.40259 24.4823 4.40259 17.2822C4.40259 10.082 10.2395 4.24512 17.4396 4.24512C24.6398 4.24512 30.4767 10.082 30.4767 17.2822ZM17.4396 29.134C23.9852 29.134 29.2915 23.8278 29.2915 17.2822C29.2915 10.7366 23.9852 5.4303 17.4396 5.4303C10.894 5.4303 5.58777 10.7366 5.58777 17.2822C5.58777 23.8278 10.894 29.134 17.4396 29.134Z" fill="#C38144"/>
<path fill-rule="evenodd" clip-rule="evenodd" d="M15.1308 15.862H14.1961C13.6029 15.862 13.1221 15.3811 13.1221 14.7879C13.1221 14.1058 13.3084 13.4658 13.6909 12.9014L13.6924 12.8993C14.0726 12.3412 14.5915 11.923 15.2107 11.6359L15.2141 11.6344C15.8326 11.3502 16.4992 11.2153 17.1981 11.2153C18.3324 11.2153 19.3673 11.4887 20.1688 12.167C20.9945 12.8613 21.3748 13.8184 21.3748 14.9012C21.3748 15.5565 21.1697 16.1619 20.7859 16.6903C20.7611 16.7245 20.7357 16.7581 20.7099 16.7912C20.7944 16.8856 20.8735 16.9862 20.9466 17.0932C21.3403 17.6627 21.5196 18.3174 21.5196 19.0108C21.5196 20.1249 21.0938 21.0885 20.2364 21.7957C19.4047 22.4852 18.356 22.7784 17.1981 22.7784C16.0876 22.7784 15.0804 22.4814 14.2667 21.8082L14.2637 21.8057C13.4256 21.1073 13.0088 20.1601 13.0088 19.0674C13.0088 18.4742 13.4897 17.9933 14.0829 17.9933H15.1484C15.1037 17.8753 15.0793 17.7473 15.0793 17.6136V16.1913C15.0793 16.0764 15.0974 15.9657 15.1308 15.862ZM16.9067 18.6877C16.9513 18.8058 16.9757 18.9337 16.9757 19.0674C16.9757 19.0764 16.9761 19.0832 16.9766 19.0882C16.9774 19.089 16.9784 19.0899 16.9795 19.0908C17.0242 19.1274 17.091 19.1639 17.2422 19.1639C17.366 19.1639 17.4398 19.1475 17.478 19.1347C17.5098 19.124 17.5203 19.115 17.523 19.1125M16.9067 18.6877H17.1163C17.3832 18.6877 17.492 18.7336 17.5217 18.7495C17.5224 18.7512 17.5231 18.7531 17.524 18.7554C17.534 18.7828 17.5526 18.8527 17.5526 18.9856C17.5526 19.0562 17.5413 19.0864 17.539 19.0921C17.5376 19.0957 17.5365 19.0974 17.5355 19.0988C17.5344 19.1003 17.5308 19.1051 17.523 19.1125M19.5518 20.968C20.1476 20.4771 20.4455 19.8247 20.4455 19.0108C20.4455 18.5073 20.3175 18.0709 20.0616 17.7017C20.0202 17.6409 19.9751 17.5827 19.9265 17.5269C19.6799 17.2438 19.341 17.0252 18.9099 16.871C19.2984 16.6944 19.6172 16.4463 19.8662 16.1265C19.8834 16.1044 19.9003 16.082 19.9168 16.0592C20.1728 15.7067 20.3007 15.3207 20.3007 14.9012C20.3007 14.0872 20.0259 13.4495 19.4763 12.988C18.9267 12.5223 18.1673 12.2894 17.1981 12.2894C16.6401 12.2894 16.1282 12.3964 15.6625 12.6104C15.201 12.8243 14.8402 13.1222 14.58 13.504C14.5338 13.5723 14.4917 13.6422 14.4538 13.7138C14.282 14.0381 14.1961 14.3961 14.1961 14.7879H16.0149C16.0149 14.4816 16.1324 14.2341 16.3674 14.0453C16.6023 13.8523 16.8939 13.7558 17.2422 13.7558C17.6281 13.7558 17.9302 13.8586 18.1484 14.0641C18.3708 14.2697 18.482 14.5571 18.482 14.9263C18.482 15.3081 18.3708 15.6144 18.1484 15.8452C17.926 16.0759 17.5841 16.1913 17.1226 16.1913H16.1534V17.6136H17.1163C18.1232 17.6136 18.6267 18.0709 18.6267 18.9856C18.6267 19.3632 18.5029 19.6674 18.2554 19.8981C18.012 20.1247 17.6743 20.238 17.2422 20.238C16.8645 20.238 16.5457 20.1289 16.2856 19.9107C16.0296 19.6925 15.9017 19.4114 15.9017 19.0674H14.0829C14.0829 19.4643 14.1554 19.8223 14.3005 20.1415C14.4452 20.4599 14.6622 20.7396 14.9514 20.9806C15.5345 21.4631 16.2835 21.7043 17.1981 21.7043C18.1757 21.7043 18.9603 21.4589 19.5518 20.968ZM17.0376 15.1172C17.0647 15.0331 17.0816 14.9443 17.0871 14.8525C17.1155 14.8408 17.1625 14.8298 17.2422 14.8298C17.3278 14.8298 17.3781 14.8398 17.4025 14.8467C17.4052 14.8635 17.4079 14.8895 17.4079 14.9263C17.4079 15.0133 17.3953 15.0585 17.389 15.0759C17.3875 15.08 17.3861 15.0833 17.3848 15.0861C17.3838 15.0864 17.3828 15.0867 17.3818 15.0871C17.3474 15.0987 17.2675 15.1172 17.1226 15.1172H17.0376Z" fill="#C28044"/>
</svg>
