<svg width="19" height="20" viewBox="0 0 19 20" fill="none" xmlns="http://www.w3.org/2000/svg">
<path d="M16.3249 7.46777C16.3249 7.46777 15.7819 14.2028 15.4669 17.0398C15.3169 18.3948 14.4799 19.1888 13.1089 19.2138C10.4999 19.2608 7.88791 19.2638 5.27991 19.2088C3.96091 19.1818 3.13791 18.3778 2.99091 17.0468C2.67391 14.1848 2.13391 7.46777 2.13391 7.46777" stroke="#7D7D7D" stroke-width="1.5" stroke-linecap="round" stroke-linejoin="round"/>
<path d="M17.7082 4.23926H0.750183" stroke="#7D7D7D" stroke-width="1.5" stroke-linecap="round" stroke-linejoin="round"/>
<path d="M14.4406 4.23949C13.6556 4.23949 12.9796 3.68449 12.8256 2.91549L12.5826 1.69949C12.4326 1.13849 11.9246 0.750488 11.3456 0.750488H7.11258C6.53358 0.750488 6.02558 1.13849 5.87558 1.69949L5.63258 2.91549C5.47858 3.68449 4.80258 4.23949 4.01758 4.23949" stroke="#7D7D7D" stroke-width="1.5" stroke-linecap="round" stroke-linejoin="round"/>
</svg>

