<svg width="64" height="60" viewBox="0 0 64 60" fill="none" xmlns="http://www.w3.org/2000/svg">
<rect width="64" height="60" rx="16" fill="#fff"/>
<circle cx="31.611" cy="19.611" r="9.61098" fill="#fff" stroke="black" stroke-width="1.5" stroke-linecap="round" stroke-linejoin="round"/>
<path fill-rule="evenodd" clip-rule="evenodd" d="M28.27 22.9519L29.8627 17.8627L34.9519 16.27L33.3593 21.3593L28.27 22.9519Z" stroke="black" stroke-width="1.5" stroke-linecap="round" stroke-linejoin="round"/>
<path d="M16.0977 44.6348C16.0977 46.0488 15.7051 47.1309 14.9199 47.8809C14.1348 48.627 13.0039 49 11.5273 49H9.13086V40.4336H11.7793C13.1426 40.4336 14.2031 40.8008 14.9609 41.5352C15.7188 42.2695 16.0977 43.3027 16.0977 44.6348ZM14.6211 44.6816C14.6211 42.6309 13.6621 41.6055 11.7441 41.6055H10.5312V47.8223H11.5273C13.5898 47.8223 14.6211 46.7754 14.6211 44.6816ZM18.8738 49H17.4969V42.5195H18.8738V49ZM17.4148 40.8027C17.4148 40.5566 17.4812 40.3672 17.6141 40.2344C17.7508 40.1016 17.9441 40.0352 18.1941 40.0352C18.4363 40.0352 18.6238 40.1016 18.7566 40.2344C18.8934 40.3672 18.9617 40.5566 18.9617 40.8027C18.9617 41.0371 18.8934 41.2227 18.7566 41.3594C18.6238 41.4922 18.4363 41.5586 18.1941 41.5586C17.9441 41.5586 17.7508 41.4922 17.6141 41.3594C17.4812 41.2227 17.4148 41.0371 17.4148 40.8027ZM24.902 47.1543C24.902 47.7871 24.6715 48.2734 24.2105 48.6133C23.7496 48.9492 23.0895 49.1172 22.2301 49.1172C21.3668 49.1172 20.6734 48.9863 20.15 48.7246V47.5352C20.9117 47.8867 21.6207 48.0625 22.277 48.0625C23.1246 48.0625 23.5484 47.8066 23.5484 47.2949C23.5484 47.1309 23.5016 46.9941 23.4078 46.8848C23.3141 46.7754 23.1598 46.6621 22.9449 46.5449C22.7301 46.4277 22.4312 46.2949 22.0484 46.1465C21.3023 45.8574 20.7965 45.5684 20.5309 45.2793C20.2691 44.9902 20.1383 44.6152 20.1383 44.1543C20.1383 43.5996 20.3609 43.1699 20.8062 42.8652C21.2555 42.5566 21.8648 42.4023 22.6344 42.4023C23.3961 42.4023 24.1168 42.5566 24.7965 42.8652L24.3512 43.9023C23.652 43.6133 23.0641 43.4688 22.5875 43.4688C21.8609 43.4688 21.4977 43.6758 21.4977 44.0898C21.4977 44.293 21.5914 44.4648 21.7789 44.6055C21.9703 44.7461 22.3844 44.9395 23.0211 45.1855C23.5562 45.3926 23.9449 45.582 24.1871 45.7539C24.4293 45.9258 24.609 46.125 24.7262 46.3516C24.8434 46.5742 24.902 46.8418 24.902 47.1543ZM28.7094 49.1172C27.7289 49.1172 26.9828 48.832 26.4711 48.2617C25.9633 47.6875 25.7094 46.8652 25.7094 45.7949C25.7094 44.7051 25.975 43.8672 26.5063 43.2812C27.0414 42.6953 27.8129 42.4023 28.8207 42.4023C29.5043 42.4023 30.1195 42.5293 30.6664 42.7832L30.2504 43.8906C29.6684 43.6641 29.1879 43.5508 28.809 43.5508C27.6879 43.5508 27.1273 44.2949 27.1273 45.7832C27.1273 46.5098 27.266 47.0566 27.5434 47.4238C27.8246 47.7871 28.2348 47.9688 28.7738 47.9688C29.3871 47.9688 29.9672 47.8164 30.5141 47.5117V48.7129C30.268 48.8574 30.0043 48.9609 29.723 49.0234C29.4457 49.0859 29.1078 49.1172 28.7094 49.1172ZM37.4855 45.748C37.4855 46.8066 37.2141 47.6328 36.6711 48.2266C36.1281 48.8203 35.3723 49.1172 34.4035 49.1172C33.798 49.1172 33.2629 48.9805 32.798 48.707C32.3332 48.4336 31.9758 48.041 31.7258 47.5293C31.4758 47.0176 31.3508 46.4238 31.3508 45.748C31.3508 44.6973 31.6203 43.877 32.1594 43.2871C32.6984 42.6973 33.4582 42.4023 34.4387 42.4023C35.3762 42.4023 36.1184 42.7051 36.6652 43.3105C37.2121 43.9121 37.4855 44.7246 37.4855 45.748ZM32.7687 45.748C32.7687 47.2441 33.3215 47.9922 34.427 47.9922C35.5207 47.9922 36.0676 47.2441 36.0676 45.748C36.0676 44.2676 35.5168 43.5273 34.4152 43.5273C33.8371 43.5273 33.4172 43.7188 33.1555 44.1016C32.8977 44.4844 32.7687 45.0332 32.7687 45.748ZM40.25 49L37.7891 42.5195H39.2422L40.5605 46.2871C40.7871 46.9199 40.9238 47.4316 40.9707 47.8223H41.0176C41.0527 47.541 41.1895 47.0293 41.4277 46.2871L42.7461 42.5195H44.2109L41.7383 49H40.25ZM47.7254 49.1172C46.7176 49.1172 45.9285 48.8242 45.3582 48.2383C44.7918 47.6484 44.5086 46.8379 44.5086 45.8066C44.5086 44.748 44.7723 43.916 45.2996 43.3105C45.827 42.7051 46.5516 42.4023 47.4734 42.4023C48.3289 42.4023 49.0047 42.6621 49.5008 43.1816C49.9969 43.7012 50.2449 44.416 50.2449 45.3262V46.0703H45.9266C45.9461 46.6992 46.116 47.1836 46.4363 47.5234C46.7566 47.8594 47.2078 48.0273 47.7898 48.0273C48.1727 48.0273 48.5281 47.9922 48.8563 47.9219C49.1883 47.8477 49.5438 47.7266 49.9227 47.5586V48.6777C49.5867 48.8379 49.2469 48.9512 48.9031 49.0176C48.5594 49.084 48.1668 49.1172 47.7254 49.1172ZM47.4734 43.4453C47.0359 43.4453 46.6844 43.584 46.4188 43.8613C46.157 44.1387 46.0008 44.543 45.95 45.0742H48.8914C48.8836 44.5391 48.7547 44.1348 48.5047 43.8613C48.2547 43.584 47.9109 43.4453 47.4734 43.4453ZM54.7965 42.4023C55.0738 42.4023 55.3023 42.4219 55.482 42.4609L55.3473 43.7441C55.152 43.6973 54.9488 43.6738 54.7379 43.6738C54.1871 43.6738 53.7398 43.8535 53.3961 44.2129C53.0563 44.5723 52.8863 45.0391 52.8863 45.6133V49H51.5094V42.5195H52.5875L52.7691 43.6621H52.8395C53.0543 43.2754 53.3336 42.9688 53.6773 42.7422C54.025 42.5156 54.398 42.4023 54.7965 42.4023Z" fill="black"/>
</svg>


