<svg width="32" height="32" viewBox="0 0 32 32" fill="none" xmlns="http://www.w3.org/2000/svg">
<circle cx="16" cy="16" r="15.25" stroke="white" stroke-width="1.5"/>
<path d="M5.88092 18.4397C5.17578 18.4397 4.60415 19.0114 4.60415 19.7165C4.60415 20.4217 5.17578 20.9933 5.88092 20.9933V18.4397ZM8.40729 19.7165V20.9933C8.87502 20.9933 9.3053 20.7375 9.52883 20.3267L8.40729 19.7165ZM14.112 9.23071L15.3587 8.95511C15.2437 8.43505 14.818 8.041 14.2906 7.9665C13.7632 7.89199 13.245 8.15269 12.9905 8.62055L14.112 9.23071ZM17.0187 22.3787L15.772 22.6543C15.8852 23.1661 16.2995 23.5567 16.8171 23.6395C17.3346 23.7222 17.8501 23.4803 18.1172 23.0294L17.0187 22.3787ZM23.2939 11.7843V10.5075C22.8428 10.5075 22.4252 10.7455 22.1953 11.1336L23.2939 11.7843ZM26.1191 13.061C26.8242 13.061 27.3958 12.4894 27.3958 11.7843C27.3958 11.0791 26.8242 10.5075 26.1191 10.5075V13.061ZM5.88092 20.9933H8.40729V18.4397H5.88092V20.9933ZM9.52883 20.3267L15.2335 9.84087L12.9905 8.62055L7.28576 19.1064L9.52883 20.3267ZM12.8653 9.50632L15.772 22.6543L18.2654 22.1031L15.3587 8.95511L12.8653 9.50632ZM18.1172 23.0294L24.3924 12.4349L22.1953 11.1336L15.9202 21.728L18.1172 23.0294ZM23.2939 13.061H26.1191V10.5075H23.2939V13.061Z" fill="white"/>
</svg>

