<svg width="375" height="92" viewBox="0 0 375 92" fill="none" xmlns="http://www.w3.org/2000/svg">
<rect width="375" height="2" fill="#E0E0E0"/>
<rect width="375" height="90" transform="translate(0 2)" fill="white"/>
<rect x="8" y="10" width="64" height="60" rx="16" fill="#ECFCF4"/>
<circle cx="39.611" cy="29.611" r="9.61098" fill="#2D9B63" stroke="#2D9B63" stroke-width="1.5" stroke-linecap="round" stroke-linejoin="round"/>
<path fill-rule="evenodd" clip-rule="evenodd" d="M36.27 32.9519L37.8627 27.8627L42.9519 26.27L41.3593 31.3593L36.27 32.9519Z" stroke="white" stroke-width="1.5" stroke-linecap="round" stroke-linejoin="round"/>
<path d="M24.0977 54.6348C24.0977 56.0488 23.7051 57.1309 22.9199 57.8809C22.1348 58.627 21.0039 59 19.5273 59H17.1309V50.4336H19.7793C21.1426 50.4336 22.2031 50.8008 22.9609 51.5352C23.7188 52.2695 24.0977 53.3027 24.0977 54.6348ZM22.6211 54.6816C22.6211 52.6309 21.6621 51.6055 19.7441 51.6055H18.5312V57.8223H19.5273C21.5898 57.8223 22.6211 56.7754 22.6211 54.6816ZM26.8738 59H25.4969V52.5195H26.8738V59ZM25.4148 50.8027C25.4148 50.5566 25.4812 50.3672 25.6141 50.2344C25.7508 50.1016 25.9441 50.0352 26.1941 50.0352C26.4363 50.0352 26.6238 50.1016 26.7566 50.2344C26.8934 50.3672 26.9617 50.5566 26.9617 50.8027C26.9617 51.0371 26.8934 51.2227 26.7566 51.3594C26.6238 51.4922 26.4363 51.5586 26.1941 51.5586C25.9441 51.5586 25.7508 51.4922 25.6141 51.3594C25.4812 51.2227 25.4148 51.0371 25.4148 50.8027ZM32.902 57.1543C32.902 57.7871 32.6715 58.2734 32.2105 58.6133C31.7496 58.9492 31.0895 59.1172 30.2301 59.1172C29.3668 59.1172 28.6734 58.9863 28.15 58.7246V57.5352C28.9117 57.8867 29.6207 58.0625 30.277 58.0625C31.1246 58.0625 31.5484 57.8066 31.5484 57.2949C31.5484 57.1309 31.5016 56.9941 31.4078 56.8848C31.3141 56.7754 31.1598 56.6621 30.9449 56.5449C30.7301 56.4277 30.4312 56.2949 30.0484 56.1465C29.3023 55.8574 28.7965 55.5684 28.5309 55.2793C28.2691 54.9902 28.1383 54.6152 28.1383 54.1543C28.1383 53.5996 28.3609 53.1699 28.8062 52.8652C29.2555 52.5566 29.8648 52.4023 30.6344 52.4023C31.3961 52.4023 32.1168 52.5566 32.7965 52.8652L32.3512 53.9023C31.652 53.6133 31.0641 53.4688 30.5875 53.4688C29.8609 53.4688 29.4977 53.6758 29.4977 54.0898C29.4977 54.293 29.5914 54.4648 29.7789 54.6055C29.9703 54.7461 30.3844 54.9395 31.0211 55.1855C31.5562 55.3926 31.9449 55.582 32.1871 55.7539C32.4293 55.9258 32.609 56.125 32.7262 56.3516C32.8434 56.5742 32.902 56.8418 32.902 57.1543ZM36.7094 59.1172C35.7289 59.1172 34.9828 58.832 34.4711 58.2617C33.9633 57.6875 33.7094 56.8652 33.7094 55.7949C33.7094 54.7051 33.975 53.8672 34.5063 53.2812C35.0414 52.6953 35.8129 52.4023 36.8207 52.4023C37.5043 52.4023 38.1195 52.5293 38.6664 52.7832L38.2504 53.8906C37.6684 53.6641 37.1879 53.5508 36.809 53.5508C35.6879 53.5508 35.1273 54.2949 35.1273 55.7832C35.1273 56.5098 35.266 57.0566 35.5434 57.4238C35.8246 57.7871 36.2348 57.9688 36.7738 57.9688C37.3871 57.9688 37.9672 57.8164 38.5141 57.5117V58.7129C38.268 58.8574 38.0043 58.9609 37.723 59.0234C37.4457 59.0859 37.1078 59.1172 36.7094 59.1172ZM45.4855 55.748C45.4855 56.8066 45.2141 57.6328 44.6711 58.2266C44.1281 58.8203 43.3723 59.1172 42.4035 59.1172C41.798 59.1172 41.2629 58.9805 40.798 58.707C40.3332 58.4336 39.9758 58.041 39.7258 57.5293C39.4758 57.0176 39.3508 56.4238 39.3508 55.748C39.3508 54.6973 39.6203 53.877 40.1594 53.2871C40.6984 52.6973 41.4582 52.4023 42.4387 52.4023C43.3762 52.4023 44.1184 52.7051 44.6652 53.3105C45.2121 53.9121 45.4855 54.7246 45.4855 55.748ZM40.7687 55.748C40.7687 57.2441 41.3215 57.9922 42.427 57.9922C43.5207 57.9922 44.0676 57.2441 44.0676 55.748C44.0676 54.2676 43.5168 53.5273 42.4152 53.5273C41.8371 53.5273 41.4172 53.7188 41.1555 54.1016C40.8977 54.4844 40.7687 55.0332 40.7687 55.748ZM48.25 59L45.7891 52.5195H47.2422L48.5605 56.2871C48.7871 56.9199 48.9238 57.4316 48.9707 57.8223H49.0176C49.0527 57.541 49.1895 57.0293 49.4277 56.2871L50.7461 52.5195H52.2109L49.7383 59H48.25ZM55.7254 59.1172C54.7176 59.1172 53.9285 58.8242 53.3582 58.2383C52.7918 57.6484 52.5086 56.8379 52.5086 55.8066C52.5086 54.748 52.7723 53.916 53.2996 53.3105C53.827 52.7051 54.5516 52.4023 55.4734 52.4023C56.3289 52.4023 57.0047 52.6621 57.5008 53.1816C57.9969 53.7012 58.2449 54.416 58.2449 55.3262V56.0703H53.9266C53.9461 56.6992 54.116 57.1836 54.4363 57.5234C54.7566 57.8594 55.2078 58.0273 55.7898 58.0273C56.1727 58.0273 56.5281 57.9922 56.8563 57.9219C57.1883 57.8477 57.5438 57.7266 57.9227 57.5586V58.6777C57.5867 58.8379 57.2469 58.9512 56.9031 59.0176C56.5594 59.084 56.1668 59.1172 55.7254 59.1172ZM55.4734 53.4453C55.0359 53.4453 54.6844 53.584 54.4188 53.8613C54.157 54.1387 54.0008 54.543 53.95 55.0742H56.8914C56.8836 54.5391 56.7547 54.1348 56.5047 53.8613C56.2547 53.584 55.9109 53.4453 55.4734 53.4453ZM62.7965 52.4023C63.0738 52.4023 63.3023 52.4219 63.482 52.4609L63.3473 53.7441C63.152 53.6973 62.9488 53.6738 62.7379 53.6738C62.1871 53.6738 61.7398 53.8535 61.3961 54.2129C61.0563 54.5723 60.8863 55.0391 60.8863 55.6133V59H59.5094V52.5195H60.5875L60.7691 53.6621H60.8395C61.0543 53.2754 61.3336 52.9688 61.6773 52.7422C62.025 52.5156 62.398 52.4023 62.7965 52.4023Z" fill="#2D9B63"/>
<g opacity="0.5">
<circle cx="110.517" cy="29.7666" r="8.98856" stroke="#333333" stroke-width="1.5" stroke-linecap="round" stroke-linejoin="round"/>
<path d="M116.768 36.4851L120.292 40" stroke="#333333" stroke-width="1.5" stroke-linecap="round" stroke-linejoin="round"/>
<path d="M97.8203 56.6738C97.8203 57.4355 97.5449 58.0332 96.9941 58.4668C96.4434 58.9004 95.6836 59.1172 94.7148 59.1172C93.7461 59.1172 92.9531 58.9668 92.3359 58.666V57.3418C92.7266 57.5254 93.1406 57.6699 93.5781 57.7754C94.0195 57.8809 94.4297 57.9336 94.8086 57.9336C95.3633 57.9336 95.7715 57.8281 96.0332 57.6172C96.2988 57.4062 96.4316 57.123 96.4316 56.7676C96.4316 56.4473 96.3105 56.1758 96.0684 55.9531C95.8262 55.7305 95.3262 55.4668 94.5684 55.1621C93.7871 54.8457 93.2363 54.4844 92.916 54.0781C92.5957 53.6719 92.4355 53.1836 92.4355 52.6133C92.4355 51.8984 92.6895 51.3359 93.1973 50.9258C93.7051 50.5156 94.3867 50.3105 95.2422 50.3105C96.0625 50.3105 96.8789 50.4902 97.6914 50.8496L97.2461 51.9922C96.4844 51.6719 95.8047 51.5117 95.207 51.5117C94.7539 51.5117 94.4102 51.6113 94.1758 51.8105C93.9414 52.0059 93.8242 52.2656 93.8242 52.5898C93.8242 52.8125 93.8711 53.0039 93.9648 53.1641C94.0586 53.3203 94.2129 53.4688 94.4277 53.6094C94.6426 53.75 95.0293 53.9355 95.5879 54.166C96.2168 54.4277 96.6777 54.6719 96.9707 54.8984C97.2637 55.125 97.4785 55.3809 97.6152 55.666C97.752 55.9512 97.8203 56.2871 97.8203 56.6738ZM101.862 59.1172C100.854 59.1172 100.065 58.8242 99.4949 58.2383C98.9285 57.6484 98.6453 56.8379 98.6453 55.8066C98.6453 54.748 98.909 53.916 99.4363 53.3105C99.9637 52.7051 100.688 52.4023 101.61 52.4023C102.466 52.4023 103.141 52.6621 103.637 53.1816C104.134 53.7012 104.382 54.416 104.382 55.3262V56.0703H100.063C100.083 56.6992 100.253 57.1836 100.573 57.5234C100.893 57.8594 101.345 58.0273 101.927 58.0273C102.309 58.0273 102.665 57.9922 102.993 57.9219C103.325 57.8477 103.68 57.7266 104.059 57.5586V58.6777C103.723 58.8379 103.384 58.9512 103.04 59.0176C102.696 59.084 102.304 59.1172 101.862 59.1172ZM101.61 53.4453C101.173 53.4453 100.821 53.584 100.555 53.8613C100.294 54.1387 100.137 54.543 100.087 55.0742H103.028C103.02 54.5391 102.891 54.1348 102.641 53.8613C102.391 53.584 102.048 53.4453 101.61 53.4453ZM109.701 59L109.425 58.0977H109.379C109.066 58.4922 108.752 58.7617 108.435 58.9062C108.119 59.0469 107.712 59.1172 107.216 59.1172C106.58 59.1172 106.082 58.9453 105.722 58.6016C105.367 58.2578 105.189 57.7715 105.189 57.1426C105.189 56.4746 105.437 55.9707 105.933 55.6309C106.429 55.291 107.185 55.1055 108.201 55.0742L109.32 55.0391V54.6934C109.32 54.2793 109.222 53.9707 109.027 53.7676C108.836 53.5605 108.537 53.457 108.13 53.457C107.798 53.457 107.48 53.5059 107.175 53.6035C106.871 53.7012 106.578 53.8164 106.296 53.9492L105.851 52.9648C106.203 52.7812 106.587 52.6426 107.005 52.5488C107.423 52.4512 107.818 52.4023 108.189 52.4023C109.013 52.4023 109.634 52.582 110.052 52.9414C110.474 53.3008 110.685 53.8652 110.685 54.6348V59H109.701ZM107.65 58.0625C108.15 58.0625 108.55 57.9238 108.851 57.6465C109.156 57.3652 109.308 56.9727 109.308 56.4688V55.9062L108.476 55.9414C107.828 55.9648 107.355 56.0742 107.058 56.2695C106.765 56.4609 106.619 56.7559 106.619 57.1543C106.619 57.4434 106.705 57.668 106.877 57.8281C107.048 57.9844 107.306 58.0625 107.65 58.0625ZM115.594 52.4023C115.871 52.4023 116.1 52.4219 116.28 52.4609L116.145 53.7441C115.95 53.6973 115.746 53.6738 115.536 53.6738C114.985 53.6738 114.538 53.8535 114.194 54.2129C113.854 54.5723 113.684 55.0391 113.684 55.6133V59H112.307V52.5195H113.385L113.567 53.6621H113.637C113.852 53.2754 114.131 52.9688 114.475 52.7422C114.823 52.5156 115.196 52.4023 115.594 52.4023ZM119.8 59.1172C118.82 59.1172 118.073 58.832 117.562 58.2617C117.054 57.6875 116.8 56.8652 116.8 55.7949C116.8 54.7051 117.066 53.8672 117.597 53.2812C118.132 52.6953 118.904 52.4023 119.911 52.4023C120.595 52.4023 121.21 52.5293 121.757 52.7832L121.341 53.8906C120.759 53.6641 120.279 53.5508 119.9 53.5508C118.779 53.5508 118.218 54.2949 118.218 55.7832C118.218 56.5098 118.357 57.0566 118.634 57.4238C118.915 57.7871 119.325 57.9688 119.864 57.9688C120.478 57.9688 121.058 57.8164 121.605 57.5117V58.7129C121.359 58.8574 121.095 58.9609 120.814 59.0234C120.536 59.0859 120.198 59.1172 119.8 59.1172ZM128.529 59H127.146V55.0156C127.146 54.5156 127.045 54.1426 126.842 53.8965C126.643 53.6504 126.324 53.5273 125.887 53.5273C125.309 53.5273 124.883 53.7012 124.609 54.0488C124.34 54.3926 124.205 54.9707 124.205 55.7832V59H122.828V49.8828H124.205V52.1973C124.205 52.5684 124.182 52.9648 124.135 53.3867H124.223C124.41 53.0742 124.67 52.832 125.002 52.6602C125.338 52.4883 125.729 52.4023 126.174 52.4023C127.744 52.4023 128.529 53.1934 128.529 54.7754V59Z" fill="#333333"/>
</g>
<g opacity="0.5">
<path d="M177.643 25.4287C177.012 25.4287 176.5 25.9985 176.5 26.7014C176.5 27.7798 177.726 28.7902 177.835 29.863L178.691 38.2712C178.745 38.9268 179.238 39.4287 179.829 39.4287H189.171C189.762 39.4287 190.255 38.9268 190.309 38.2712L191.165 29.863C191.274 28.7902 192.5 27.7798 192.5 26.7014C192.5 25.9985 191.988 25.4287 191.357 25.4287H177.643Z" stroke="#333333" stroke-width="1.5"/>
<path d="M191.5 25.5C191 22 187.917 19.5 184.5 19.5C181.105 19.5 178 22 177.5 25.5" stroke="#333333" stroke-width="1.5"/>
<path d="M184.759 28.1607L185.839 30.3476L188.253 30.6989C188.361 30.7146 188.452 30.7907 188.486 30.8952C188.52 30.9998 188.491 31.1145 188.413 31.1912L186.666 32.8921L187.078 35.2964C187.097 35.4047 187.052 35.5142 186.963 35.5788C186.874 35.6434 186.756 35.6519 186.659 35.6008L184.5 34.4674L182.341 35.6018C182.244 35.6527 182.126 35.644 182.037 35.5794C181.948 35.5148 181.904 35.4054 181.922 35.2971L182.334 32.8942L180.587 31.1932C180.509 31.1166 180.48 31.0018 180.514 30.8973C180.548 30.7928 180.639 30.7167 180.747 30.701L183.161 30.348L184.241 28.161C184.29 28.0625 184.39 28.0001 184.5 28C184.61 27.9999 184.71 28.0622 184.759 28.1607Z" fill="#333333"/>
<path d="M158.131 50.4336H160.674C161.854 50.4336 162.705 50.6055 163.229 50.9492C163.756 51.293 164.02 51.8359 164.02 52.5781C164.02 53.0781 163.891 53.4941 163.633 53.8262C163.375 54.1582 163.004 54.3672 162.52 54.4531V54.5117C163.121 54.625 163.562 54.8496 163.844 55.1855C164.129 55.5176 164.271 55.9688 164.271 56.5391C164.271 57.3086 164.002 57.9121 163.463 58.3496C162.928 58.7832 162.182 59 161.225 59H158.131V50.4336ZM159.531 53.9727H160.879C161.465 53.9727 161.893 53.8809 162.162 53.6973C162.432 53.5098 162.566 53.1934 162.566 52.748C162.566 52.3457 162.42 52.0547 162.127 51.875C161.838 51.6953 161.377 51.6055 160.744 51.6055H159.531V53.9727ZM159.531 55.1094V57.8223H161.02C161.605 57.8223 162.047 57.7109 162.344 57.4883C162.645 57.2617 162.795 56.9062 162.795 56.4219C162.795 55.9766 162.643 55.6465 162.338 55.4316C162.033 55.2168 161.57 55.1094 160.949 55.1094H159.531ZM170.177 59L169.983 58.1504H169.913C169.721 58.4512 169.448 58.6875 169.093 58.8594C168.741 59.0312 168.339 59.1172 167.886 59.1172C167.1 59.1172 166.514 58.9219 166.128 58.5312C165.741 58.1406 165.548 57.5488 165.548 56.7559V52.5195H166.936V56.5156C166.936 57.0117 167.038 57.3848 167.241 57.6348C167.444 57.8809 167.762 58.0039 168.196 58.0039C168.774 58.0039 169.198 57.832 169.468 57.4883C169.741 57.1406 169.878 56.5605 169.878 55.748V52.5195H171.261V59H170.177ZM175.537 59.1172C174.556 59.1172 173.81 58.832 173.298 58.2617C172.791 57.6875 172.537 56.8652 172.537 55.7949C172.537 54.7051 172.802 53.8672 173.334 53.2812C173.869 52.6953 174.64 52.4023 175.648 52.4023C176.332 52.4023 176.947 52.5293 177.494 52.7832L177.078 53.8906C176.496 53.6641 176.015 53.5508 175.636 53.5508C174.515 53.5508 173.955 54.2949 173.955 55.7832C173.955 56.5098 174.093 57.0566 174.371 57.4238C174.652 57.7871 175.062 57.9688 175.601 57.9688C176.214 57.9688 176.795 57.8164 177.341 57.5117V58.7129C177.095 58.8574 176.832 58.9609 176.55 59.0234C176.273 59.0859 175.935 59.1172 175.537 59.1172ZM179.895 55.5781L180.674 54.6055L182.631 52.5195H184.219L181.612 55.3027L184.383 59H182.766L180.686 56.1582L179.93 56.7793V59H178.565V49.8828H179.93V54.3301L179.86 55.5781H179.895ZM187.962 59.1172C186.954 59.1172 186.165 58.8242 185.595 58.2383C185.029 57.6484 184.745 56.8379 184.745 55.8066C184.745 54.748 185.009 53.916 185.536 53.3105C186.064 52.7051 186.788 52.4023 187.71 52.4023C188.566 52.4023 189.241 52.6621 189.737 53.1816C190.234 53.7012 190.482 54.416 190.482 55.3262V56.0703H186.163C186.183 56.6992 186.353 57.1836 186.673 57.5234C186.993 57.8594 187.445 58.0273 188.027 58.0273C188.409 58.0273 188.765 57.9922 189.093 57.9219C189.425 57.8477 189.78 57.7266 190.159 57.5586V58.6777C189.823 58.8379 189.484 58.9512 189.14 59.0176C188.796 59.084 188.404 59.1172 187.962 59.1172ZM187.71 53.4453C187.273 53.4453 186.921 53.584 186.655 53.8613C186.394 54.1387 186.237 54.543 186.187 55.0742H189.128C189.12 54.5391 188.991 54.1348 188.741 53.8613C188.491 53.584 188.148 53.4453 187.71 53.4453ZM194.16 58.0039C194.496 58.0039 194.832 57.9512 195.168 57.8457V58.8828C195.016 58.9492 194.818 59.0039 194.576 59.0469C194.338 59.0938 194.09 59.1172 193.832 59.1172C192.527 59.1172 191.875 58.4297 191.875 57.0547V53.5625H190.99V52.9531L191.939 52.4492L192.408 51.0781H193.258V52.5195H195.104V53.5625H193.258V57.0312C193.258 57.3633 193.34 57.6094 193.504 57.7695C193.672 57.9258 193.891 58.0039 194.16 58.0039ZM197.546 59H196.169V49.8828H197.546V59ZM200.597 59H199.22V52.5195H200.597V59ZM199.138 50.8027C199.138 50.5566 199.205 50.3672 199.338 50.2344C199.474 50.1016 199.668 50.0352 199.918 50.0352C200.16 50.0352 200.347 50.1016 200.48 50.2344C200.617 50.3672 200.685 50.5566 200.685 50.8027C200.685 51.0371 200.617 51.2227 200.48 51.3594C200.347 51.4922 200.16 51.5586 199.918 51.5586C199.668 51.5586 199.474 51.4922 199.338 51.3594C199.205 51.2227 199.138 51.0371 199.138 50.8027ZM206.625 57.1543C206.625 57.7871 206.395 58.2734 205.934 58.6133C205.473 58.9492 204.813 59.1172 203.954 59.1172C203.09 59.1172 202.397 58.9863 201.873 58.7246V57.5352C202.635 57.8867 203.344 58.0625 204 58.0625C204.848 58.0625 205.272 57.8066 205.272 57.2949C205.272 57.1309 205.225 56.9941 205.131 56.8848C205.037 56.7754 204.883 56.6621 204.668 56.5449C204.454 56.4277 204.155 56.2949 203.772 56.1465C203.026 55.8574 202.52 55.5684 202.254 55.2793C201.993 54.9902 201.862 54.6152 201.862 54.1543C201.862 53.5996 202.084 53.1699 202.53 52.8652C202.979 52.5566 203.588 52.4023 204.358 52.4023C205.12 52.4023 205.84 52.5566 206.52 52.8652L206.075 53.9023C205.375 53.6133 204.787 53.4688 204.311 53.4688C203.584 53.4688 203.221 53.6758 203.221 54.0898C203.221 54.293 203.315 54.4648 203.502 54.6055C203.694 54.7461 204.108 54.9395 204.745 55.1855C205.28 55.3926 205.668 55.582 205.911 55.7539C206.153 55.9258 206.332 56.125 206.45 56.3516C206.567 56.5742 206.625 56.8418 206.625 57.1543ZM210.234 58.0039C210.57 58.0039 210.905 57.9512 211.241 57.8457V58.8828C211.089 58.9492 210.892 59.0039 210.65 59.0469C210.411 59.0938 210.163 59.1172 209.905 59.1172C208.601 59.1172 207.948 58.4297 207.948 57.0547V53.5625H207.064V52.9531L208.013 52.4492L208.482 51.0781H209.331V52.5195H211.177V53.5625H209.331V57.0312C209.331 57.3633 209.413 57.6094 209.577 57.7695C209.745 57.9258 209.964 58.0039 210.234 58.0039Z" fill="#333333"/>
</g>
<g opacity="0.5">
<path d="M263.845 28.9319C265.447 28.9319 266.747 27.633 266.747 26.0306C266.747 24.4283 265.447 23.1294 263.845 23.1294" stroke="#333333" stroke-width="1.5" stroke-linecap="round" stroke-linejoin="round"/>
<path d="M265.179 32.0847C265.658 32.1177 266.133 32.1856 266.602 32.291C267.253 32.4184 268.035 32.6851 268.314 33.2691C268.492 33.6431 268.492 34.0785 268.314 34.4534C268.036 35.0373 267.253 35.3031 266.602 35.437" stroke="#333333" stroke-width="1.5" stroke-linecap="round" stroke-linejoin="round"/>
<path d="M252.54 28.9319C250.938 28.9319 249.638 27.633 249.638 26.0306C249.638 24.4283 250.938 23.1294 252.54 23.1294" stroke="#333333" stroke-width="1.5" stroke-linecap="round" stroke-linejoin="round"/>
<path d="M251.206 32.0847C250.727 32.1177 250.252 32.1856 249.783 32.291C249.132 32.4184 248.349 32.6851 248.072 33.2691C247.893 33.6431 247.893 34.0785 248.072 34.4534C248.349 35.0373 249.132 35.3031 249.783 35.437" stroke="#333333" stroke-width="1.5" stroke-linecap="round" stroke-linejoin="round"/>
<path fill-rule="evenodd" clip-rule="evenodd" d="M258.188 32.7095C261.435 32.7095 264.208 33.2008 264.208 35.1671C264.208 37.1324 261.453 37.6421 258.188 37.6421C254.94 37.6421 252.167 37.1507 252.167 35.1845C252.167 33.2182 254.923 32.7095 258.188 32.7095Z" stroke="#333333" stroke-width="1.5" stroke-linecap="round" stroke-linejoin="round"/>
<path fill-rule="evenodd" clip-rule="evenodd" d="M258.188 29.9049C256.046 29.9049 254.329 28.188 254.329 26.0457C254.329 23.9044 256.046 22.1875 258.188 22.1875C260.329 22.1875 262.046 23.9044 262.046 26.0457C262.046 28.188 260.329 29.9049 258.188 29.9049Z" stroke="#333333" stroke-width="1.5" stroke-linecap="round" stroke-linejoin="round"/>
<path d="M240.27 59H238.881V50.4336H243.715V51.6172H240.27V54.2949H243.498V55.4844H240.27V59ZM248.108 52.4023C248.386 52.4023 248.614 52.4219 248.794 52.4609L248.659 53.7441C248.464 53.6973 248.261 53.6738 248.05 53.6738C247.499 53.6738 247.052 53.8535 246.708 54.2129C246.368 54.5723 246.198 55.0391 246.198 55.6133V59H244.821V52.5195H245.899L246.081 53.6621H246.151C246.366 53.2754 246.645 52.9688 246.989 52.7422C247.337 52.5156 247.71 52.4023 248.108 52.4023ZM251.078 59H249.701V52.5195H251.078V59ZM249.619 50.8027C249.619 50.5566 249.685 50.3672 249.818 50.2344C249.955 50.1016 250.148 50.0352 250.398 50.0352C250.64 50.0352 250.828 50.1016 250.961 50.2344C251.097 50.3672 251.166 50.5566 251.166 50.8027C251.166 51.0371 251.097 51.2227 250.961 51.3594C250.828 51.4922 250.64 51.5586 250.398 51.5586C250.148 51.5586 249.955 51.4922 249.818 51.3594C249.685 51.2227 249.619 51.0371 249.619 50.8027ZM255.582 59.1172C254.575 59.1172 253.786 58.8242 253.215 58.2383C252.649 57.6484 252.366 56.8379 252.366 55.8066C252.366 54.748 252.629 53.916 253.157 53.3105C253.684 52.7051 254.409 52.4023 255.33 52.4023C256.186 52.4023 256.862 52.6621 257.358 53.1816C257.854 53.7012 258.102 54.416 258.102 55.3262V56.0703H253.784C253.803 56.6992 253.973 57.1836 254.293 57.5234C254.614 57.8594 255.065 58.0273 255.647 58.0273C256.03 58.0273 256.385 57.9922 256.713 57.9219C257.045 57.8477 257.401 57.7266 257.78 57.5586V58.6777C257.444 58.8379 257.104 58.9512 256.76 59.0176C256.416 59.084 256.024 59.1172 255.582 59.1172ZM255.33 53.4453C254.893 53.4453 254.541 53.584 254.276 53.8613C254.014 54.1387 253.858 54.543 253.807 55.0742H256.748C256.741 54.5391 256.612 54.1348 256.362 53.8613C256.112 53.584 255.768 53.4453 255.33 53.4453ZM265.068 59H263.685V55.0156C263.685 54.5156 263.583 54.1426 263.38 53.8965C263.181 53.6504 262.862 53.5273 262.425 53.5273C261.843 53.5273 261.417 53.6992 261.148 54.043C260.878 54.3867 260.743 54.9629 260.743 55.7715V59H259.366V52.5195H260.445L260.638 53.3691H260.708C260.904 53.0605 261.181 52.8223 261.54 52.6543C261.9 52.4863 262.298 52.4023 262.736 52.4023C264.29 52.4023 265.068 53.1934 265.068 54.7754V59ZM268.869 59.1172C268.061 59.1172 267.43 58.8242 266.977 58.2383C266.523 57.6523 266.297 56.8301 266.297 55.7715C266.297 54.709 266.525 53.8828 266.982 53.293C267.443 52.6992 268.08 52.4023 268.893 52.4023C269.744 52.4023 270.393 52.7168 270.838 53.3457H270.908C270.842 52.8809 270.809 52.5137 270.809 52.2441V49.8828H272.191V59H271.113L270.873 58.1504H270.809C270.367 58.7949 269.721 59.1172 268.869 59.1172ZM269.238 58.0039C269.805 58.0039 270.217 57.8457 270.475 57.5293C270.732 57.209 270.865 56.6914 270.873 55.9766V55.7832C270.873 54.9668 270.74 54.3867 270.475 54.043C270.209 53.6992 269.793 53.5273 269.227 53.5273C268.742 53.5273 268.369 53.7246 268.107 54.1191C267.846 54.5098 267.715 55.0684 267.715 55.7949C267.715 56.5137 267.842 57.0625 268.096 57.4414C268.35 57.8164 268.73 58.0039 269.238 58.0039ZM278.214 57.1543C278.214 57.7871 277.983 58.2734 277.522 58.6133C277.061 58.9492 276.401 59.1172 275.542 59.1172C274.679 59.1172 273.985 58.9863 273.462 58.7246V57.5352C274.223 57.8867 274.932 58.0625 275.589 58.0625C276.436 58.0625 276.86 57.8066 276.86 57.2949C276.86 57.1309 276.813 56.9941 276.72 56.8848C276.626 56.7754 276.471 56.6621 276.257 56.5449C276.042 56.4277 275.743 56.2949 275.36 56.1465C274.614 55.8574 274.108 55.5684 273.843 55.2793C273.581 54.9902 273.45 54.6152 273.45 54.1543C273.45 53.5996 273.673 53.1699 274.118 52.8652C274.567 52.5566 275.177 52.4023 275.946 52.4023C276.708 52.4023 277.429 52.5566 278.108 52.8652L277.663 53.9023C276.964 53.6133 276.376 53.4688 275.899 53.4688C275.173 53.4688 274.809 53.6758 274.809 54.0898C274.809 54.293 274.903 54.4648 275.091 54.6055C275.282 54.7461 275.696 54.9395 276.333 55.1855C276.868 55.3926 277.257 55.582 277.499 55.7539C277.741 55.9258 277.921 56.125 278.038 56.3516C278.155 56.5742 278.214 56.8418 278.214 57.1543Z" fill="#333333"/>
</g>
<g opacity="0.5">
<path fill-rule="evenodd" clip-rule="evenodd" d="M331.5 45C338.956 45 345 38.9558 345 31.5C345 24.0442 338.956 18 331.5 18C324.044 18 318 24.0442 318 31.5C318 38.9558 324.044 45 331.5 45Z" fill="#4B75E0"/>
<path d="M323.537 29.0569H326.217V36.4126H327.776V29.0569H330.456V27.7399H323.537V29.0569ZM336.305 30.124H337.817C337.787 28.6588 336.538 27.6213 334.691 27.6213C332.87 27.6213 331.503 28.6461 331.507 30.1791C331.507 31.4241 332.392 32.1398 333.819 32.5082L334.806 32.7623C335.742 32.9994 336.36 33.2916 336.364 33.9649C336.36 34.706 335.657 35.2015 334.632 35.2015C333.65 35.2015 332.887 34.7611 332.824 33.8506H331.278C331.342 35.5741 332.625 36.5439 334.645 36.5439C336.724 36.5439 337.931 35.5064 337.935 33.9776C337.931 32.4743 336.69 31.7883 335.386 31.4791L334.573 31.2759C333.861 31.1065 333.091 30.8058 333.099 30.0817C333.103 29.4295 333.688 28.951 334.67 28.951C335.606 28.951 336.224 29.3872 336.305 30.124Z" fill="white"/>
<path fill-rule="evenodd" clip-rule="evenodd" d="M340.194 44.8313C342.389 44.8313 344.169 43.0517 344.169 40.8563C344.169 38.661 342.389 36.8813 340.194 36.8813C337.998 36.8813 336.219 38.661 336.219 40.8563C336.219 43.0517 337.998 44.8313 340.194 44.8313Z" fill="#333333"/>
<path fill-rule="evenodd" clip-rule="evenodd" d="M340.194 44.1687C342.023 44.1687 343.506 42.6856 343.506 40.8562C343.506 39.0268 342.023 37.5437 340.194 37.5437C338.364 37.5437 336.881 39.0268 336.881 40.8562C336.881 42.6856 338.364 44.1687 340.194 44.1687Z" fill="#80EA4E"/>
<path d="M320.334 59L317.85 51.8457H317.803C317.869 52.9082 317.902 53.9043 317.902 54.834V59H316.631V50.4336H318.605L320.984 57.248H321.02L323.469 50.4336H325.449V59H324.102V54.7637C324.102 54.3379 324.111 53.7832 324.131 53.0996C324.154 52.416 324.174 52.002 324.189 51.8574H324.143L321.57 59H320.334ZM330.089 59.1172C329.081 59.1172 328.292 58.8242 327.721 58.2383C327.155 57.6484 326.872 56.8379 326.872 55.8066C326.872 54.748 327.136 53.916 327.663 53.3105C328.19 52.7051 328.915 52.4023 329.837 52.4023C330.692 52.4023 331.368 52.6621 331.864 53.1816C332.36 53.7012 332.608 54.416 332.608 55.3262V56.0703H328.29C328.309 56.6992 328.479 57.1836 328.8 57.5234C329.12 57.8594 329.571 58.0273 330.153 58.0273C330.536 58.0273 330.891 57.9922 331.22 57.9219C331.552 57.8477 331.907 57.7266 332.286 57.5586V58.6777C331.95 58.8379 331.61 58.9512 331.266 59.0176C330.923 59.084 330.53 59.1172 330.089 59.1172ZM329.837 53.4453C329.399 53.4453 329.048 53.584 328.782 53.8613C328.52 54.1387 328.364 54.543 328.313 55.0742H331.255C331.247 54.5391 331.118 54.1348 330.868 53.8613C330.618 53.584 330.274 53.4453 329.837 53.4453ZM339.574 59H338.191V55.0156C338.191 54.5156 338.089 54.1426 337.886 53.8965C337.687 53.6504 337.369 53.5273 336.931 53.5273C336.349 53.5273 335.923 53.6992 335.654 54.043C335.384 54.3867 335.25 54.9629 335.25 55.7715V59H333.873V52.5195H334.951L335.144 53.3691H335.214C335.41 53.0605 335.687 52.8223 336.046 52.6543C336.406 52.4863 336.804 52.4023 337.242 52.4023C338.796 52.4023 339.574 53.1934 339.574 54.7754V59ZM345.76 59L345.567 58.1504H345.496C345.305 58.4512 345.032 58.6875 344.676 58.8594C344.325 59.0312 343.922 59.1172 343.469 59.1172C342.684 59.1172 342.098 58.9219 341.711 58.5312C341.325 58.1406 341.131 57.5488 341.131 56.7559V52.5195H342.52V56.5156C342.52 57.0117 342.621 57.3848 342.825 57.6348C343.028 57.8809 343.346 58.0039 343.78 58.0039C344.358 58.0039 344.782 57.832 345.051 57.4883C345.325 57.1406 345.461 56.5605 345.461 55.748V52.5195H346.844V59H345.76Z" fill="#333333"/>
</g>
</svg>

