<svg width="68" height="68" viewBox="0 0 68 68" fill="none" xmlns="http://www.w3.org/2000/svg">
<path d="M67.5 33.75C67.5 52.3896 52.3896 67.5 33.75 67.5V67.5C15.1104 67.5 8.95039e-06 52.3896 1.05799e-05 33.75V33.75C1.22094e-05 15.1104 15.1104 3.04935e-06 33.75 4.67888e-06V4.67888e-06C52.3896 6.3084e-06 67.5 15.1104 67.5 33.75V33.75Z" fill="#F05757"/>
<path fill-rule="evenodd" clip-rule="evenodd" d="M41.115 35.8354L43.0695 35.8354C43.7508 35.8354 44.1779 34.3888 44.1779 32.341L44.1779 26.8165C44.1779 24.7686 43.7528 23.322 43.0695 23.322L41.115 23.322C40.4318 23.322 40.0067 24.7686 40.0067 26.8165L40.0067 32.341C40.0067 34.3888 40.4318 35.8354 41.115 35.8354Z" stroke="white" stroke-width="1.56418" stroke-linecap="round" stroke-linejoin="round"/>
<path d="M33.2286 44.1777C34.7928 43.135 35.8356 36.8783 40.0067 34.7927L40.0067 25.4076C38.9639 24.3648 36.8784 22.8006 35.8356 22.8006C34.7928 22.8006 31.143 22.2792 29.0575 23.8434C26.9719 25.4076 26.4505 27.4932 23.8435 31.1429C21.758 34.0627 23.8435 35.6617 25.4077 35.8354L31.143 35.8354L31.1429 35.8359C30.6216 37.9214 30.1003 40.0067 30.1003 41.5708C30.1003 43.1349 30.6216 44.1777 33.2286 44.1777Z" stroke="white" stroke-width="1.56418" stroke-linejoin="round"/>
</svg>

