<svg width="5" height="21" viewBox="0 0 5 21" fill="none" xmlns="http://www.w3.org/2000/svg">
<path d="M4.64553 18.5259C4.64553 19.7102 3.68341 20.6724 2.50091 20.6724C1.31841 20.6724 0.354492 19.7102 0.354492 18.5259C0.354492 17.3417 1.31841 16.3795 2.50091 16.3795C3.68341 16.3795 4.64553 17.3417 4.64553 18.5259Z" fill="white"/>
<path d="M4.64553 10.5006C4.64553 11.6848 3.68341 12.647 2.50091 12.647C1.31841 12.647 0.354492 11.6848 0.354492 10.5006C0.354492 9.31626 1.31841 8.35414 2.50091 8.35414C3.68341 8.35414 4.64553 9.31626 4.64553 10.5006Z" fill="white"/>
<path d="M4.64553 2.47565C4.64553 3.65995 3.68341 4.62207 2.50091 4.62207C1.31841 4.62207 0.354492 3.65995 0.354492 2.47565C0.354492 1.29136 1.31841 0.329237 2.50091 0.329237C3.68341 0.329237 4.64553 1.29136 4.64553 2.47565Z" fill="white"/>
</svg>
