<svg width="71" height="60" viewBox="0 0 71 60" fill="none" xmlns="http://www.w3.org/2000/svg">
<rect x="0.25" width="70" height="60" rx="16" fill="#fff"/>
<path d="M40.8449 18.9319C42.4472 18.9319 43.747 17.633 43.747 16.0306C43.747 14.4283 42.4472 13.1294 40.8449 13.1294" stroke="#333333" stroke-width="1.5" stroke-linecap="round" stroke-linejoin="round"/>
<path d="M42.1791 22.085C42.6576 22.118 43.1333 22.1858 43.6017 22.2912C44.2526 22.4186 45.0354 22.6854 45.3141 23.2693C45.4919 23.6433 45.4919 24.0787 45.3141 24.4536C45.0363 25.0375 44.2526 25.3034 43.6017 25.4372" stroke="#333333" stroke-width="1.5" stroke-linecap="round" stroke-linejoin="round"/>
<path d="M29.54 18.9319C27.9377 18.9319 26.6378 17.633 26.6378 16.0306C26.6378 14.4283 27.9377 13.1294 29.54 13.1294" stroke="#333333" stroke-width="1.5" stroke-linecap="round" stroke-linejoin="round"/>
<path d="M28.2058 22.085C27.7273 22.118 27.2515 22.1858 26.7831 22.2912C26.1323 22.4186 25.3494 22.6854 25.0717 23.2693C24.8929 23.6433 24.8929 24.0787 25.0717 24.4536C25.3485 25.0375 26.1323 25.3034 26.7831 25.4372" stroke="#333333" stroke-width="1.5" stroke-linecap="round" stroke-linejoin="round"/>
<path fill-rule="evenodd" clip-rule="evenodd" d="M35.1878 22.7095C38.4346 22.7095 41.2084 23.2008 41.2084 25.1671C41.2084 27.1324 38.4529 27.6421 35.1878 27.6421C31.94 27.6421 29.1671 27.1507 29.1671 25.1845C29.1671 23.2182 31.9226 22.7095 35.1878 22.7095Z" fill="#fff" stroke="#333333" stroke-width="1.5" stroke-linecap="round" stroke-linejoin="round"/>
<path fill-rule="evenodd" clip-rule="evenodd" d="M35.1878 19.9049C33.0464 19.9049 31.3295 18.188 31.3295 16.0457C31.3295 13.9044 33.0464 12.1875 35.1878 12.1875C37.3291 12.1875 39.046 13.9044 39.046 16.0457C39.046 18.188 37.3291 19.9049 35.1878 19.9049Z" fill="#fff" stroke="#333333" stroke-width="1.5" stroke-linecap="round" stroke-linejoin="round"/>
<path d="M17.2695 49H15.8809V40.4336H20.7148V41.6172H17.2695V44.2949H20.498V45.4844H17.2695V49ZM25.1082 42.4023C25.3855 42.4023 25.6141 42.4219 25.7937 42.4609L25.659 43.7441C25.4637 43.6973 25.2605 43.6738 25.0496 43.6738C24.4988 43.6738 24.0516 43.8535 23.7078 44.2129C23.368 44.5723 23.198 45.0391 23.198 45.6133V49H21.8211V42.5195H22.8992L23.0809 43.6621H23.1512C23.366 43.2754 23.6453 42.9688 23.9891 42.7422C24.3367 42.5156 24.7098 42.4023 25.1082 42.4023ZM28.0777 49H26.7008V42.5195H28.0777V49ZM26.6187 40.8027C26.6187 40.5566 26.6852 40.3672 26.818 40.2344C26.9547 40.1016 27.148 40.0352 27.398 40.0352C27.6402 40.0352 27.8277 40.1016 27.9605 40.2344C28.0973 40.3672 28.1656 40.5566 28.1656 40.8027C28.1656 41.0371 28.0973 41.2227 27.9605 41.3594C27.8277 41.4922 27.6402 41.5586 27.398 41.5586C27.148 41.5586 26.9547 41.4922 26.818 41.3594C26.6852 41.2227 26.6187 41.0371 26.6187 40.8027ZM32.5824 49.1172C31.5746 49.1172 30.7855 48.8242 30.2152 48.2383C29.6488 47.6484 29.3656 46.8379 29.3656 45.8066C29.3656 44.748 29.6293 43.916 30.1566 43.3105C30.684 42.7051 31.4086 42.4023 32.3305 42.4023C33.1859 42.4023 33.8617 42.6621 34.3578 43.1816C34.8539 43.7012 35.102 44.416 35.102 45.3262V46.0703H30.7836C30.8031 46.6992 30.973 47.1836 31.2934 47.5234C31.6137 47.8594 32.0648 48.0273 32.6469 48.0273C33.0297 48.0273 33.3852 47.9922 33.7133 47.9219C34.0453 47.8477 34.4008 47.7266 34.7797 47.5586V48.6777C34.4438 48.8379 34.1039 48.9512 33.7602 49.0176C33.4164 49.084 33.0238 49.1172 32.5824 49.1172ZM32.3305 43.4453C31.893 43.4453 31.5414 43.584 31.2758 43.8613C31.0141 44.1387 30.8578 44.543 30.807 45.0742H33.7484C33.7406 44.5391 33.6117 44.1348 33.3617 43.8613C33.1117 43.584 32.768 43.4453 32.3305 43.4453ZM42.0676 49H40.6848V45.0156C40.6848 44.5156 40.5832 44.1426 40.3801 43.8965C40.1809 43.6504 39.8625 43.5273 39.425 43.5273C38.843 43.5273 38.4172 43.6992 38.1477 44.043C37.8781 44.3867 37.7434 44.9629 37.7434 45.7715V49H36.3664V42.5195H37.4445L37.6379 43.3691H37.7082C37.9035 43.0605 38.1809 42.8223 38.5402 42.6543C38.8996 42.4863 39.298 42.4023 39.7355 42.4023C41.2902 42.4023 42.0676 43.1934 42.0676 44.7754V49ZM45.8691 49.1172C45.0605 49.1172 44.4297 48.8242 43.9766 48.2383C43.5234 47.6523 43.2969 46.8301 43.2969 45.7715C43.2969 44.709 43.5254 43.8828 43.9824 43.293C44.4434 42.6992 45.0801 42.4023 45.8926 42.4023C46.7441 42.4023 47.3926 42.7168 47.8379 43.3457H47.9082C47.8418 42.8809 47.8086 42.5137 47.8086 42.2441V39.8828H49.1914V49H48.1133L47.873 48.1504H47.8086C47.3672 48.7949 46.7207 49.1172 45.8691 49.1172ZM46.2383 48.0039C46.8047 48.0039 47.2168 47.8457 47.4746 47.5293C47.7324 47.209 47.8652 46.6914 47.873 45.9766V45.7832C47.873 44.9668 47.7402 44.3867 47.4746 44.043C47.209 43.6992 46.793 43.5273 46.2266 43.5273C45.7422 43.5273 45.3691 43.7246 45.1074 44.1191C44.8457 44.5098 44.7148 45.0684 44.7148 45.7949C44.7148 46.5137 44.8418 47.0625 45.0957 47.4414C45.3496 47.8164 45.7305 48.0039 46.2383 48.0039ZM55.2137 47.1543C55.2137 47.7871 54.9832 48.2734 54.5223 48.6133C54.0613 48.9492 53.4012 49.1172 52.5418 49.1172C51.6785 49.1172 50.9852 48.9863 50.4617 48.7246V47.5352C51.2234 47.8867 51.9324 48.0625 52.5887 48.0625C53.4363 48.0625 53.8602 47.8066 53.8602 47.2949C53.8602 47.1309 53.8133 46.9941 53.7195 46.8848C53.6258 46.7754 53.4715 46.6621 53.2566 46.5449C53.0418 46.4277 52.743 46.2949 52.3602 46.1465C51.6141 45.8574 51.1082 45.5684 50.8426 45.2793C50.5809 44.9902 50.45 44.6152 50.45 44.1543C50.45 43.5996 50.6727 43.1699 51.118 42.8652C51.5672 42.5566 52.1766 42.4023 52.9461 42.4023C53.7078 42.4023 54.4285 42.5566 55.1082 42.8652L54.6629 43.9023C53.9637 43.6133 53.3758 43.4688 52.8992 43.4688C52.1727 43.4688 51.8094 43.6758 51.8094 44.0898C51.8094 44.293 51.9031 44.4648 52.0906 44.6055C52.282 44.7461 52.6961 44.9395 53.3328 45.1855C53.868 45.3926 54.2566 45.582 54.4988 45.7539C54.741 45.9258 54.9207 46.125 55.0379 46.3516C55.1551 46.5742 55.2137 46.8418 55.2137 47.1543Z" fill="black"/>
</svg>


