<svg width="489" height="1254" viewBox="0 0 489 1254" fill="none" xmlns="http://www.w3.org/2000/svg">
<path fill-rule="evenodd" clip-rule="evenodd" d="M473.5 27C480.956 27 487 20.9558 487 13.5C487 6.04416 480.956 0 473.5 0C466.044 0 460 6.04416 460 13.5C460 20.9558 466.044 27 473.5 27Z" fill="#4B75E0"/>
<path d="M465.537 11.0569H468.217V18.4126H469.776V11.0569H472.456V9.73987H465.537V11.0569ZM478.305 12.124H479.817C479.787 10.6588 478.538 9.6213 476.691 9.6213C474.87 9.6213 473.503 10.6461 473.507 12.1791C473.507 13.4241 474.392 14.1398 475.819 14.5082L476.806 14.7623C477.742 14.9994 478.36 15.2916 478.364 15.9649C478.36 16.706 477.657 17.2015 476.632 17.2015C475.65 17.2015 474.887 16.7611 474.824 15.8506H473.278C473.342 17.5741 474.625 18.5439 476.645 18.5439C478.724 18.5439 479.931 17.5064 479.935 15.9776C479.931 14.4743 478.69 13.7883 477.386 13.4791L476.573 13.2759C475.861 13.1065 475.091 12.8058 475.099 12.0817C475.103 11.4295 475.688 10.951 476.67 10.951C477.606 10.951 478.224 11.3872 478.305 12.124Z" fill="white"/>
<path fill-rule="evenodd" clip-rule="evenodd" d="M482.194 26.1689C484.023 26.1689 485.506 24.6859 485.506 22.8564C485.506 21.027 484.023 19.5439 482.194 19.5439C480.364 19.5439 478.881 21.027 478.881 22.8564C478.881 24.6859 480.364 26.1689 482.194 26.1689Z" fill="#80EA4E"/>
<path d="M462.334 41L459.85 33.8457H459.803C459.869 34.9082 459.902 35.9043 459.902 36.834V41H458.631V32.4336H460.605L462.984 39.248H463.02L465.469 32.4336H467.449V41H466.102V36.7637C466.102 36.3379 466.111 35.7832 466.131 35.0996C466.154 34.416 466.174 34.002 466.189 33.8574H466.143L463.57 41H462.334ZM472.089 41.1172C471.081 41.1172 470.292 40.8242 469.721 40.2383C469.155 39.6484 468.872 38.8379 468.872 37.8066C468.872 36.748 469.136 35.916 469.663 35.3105C470.19 34.7051 470.915 34.4023 471.837 34.4023C472.692 34.4023 473.368 34.6621 473.864 35.1816C474.36 35.7012 474.608 36.416 474.608 37.3262V38.0703H470.29C470.309 38.6992 470.479 39.1836 470.8 39.5234C471.12 39.8594 471.571 40.0273 472.153 40.0273C472.536 40.0273 472.891 39.9922 473.22 39.9219C473.552 39.8477 473.907 39.7266 474.286 39.5586V40.6777C473.95 40.8379 473.61 40.9512 473.266 41.0176C472.923 41.084 472.53 41.1172 472.089 41.1172ZM471.837 35.4453C471.399 35.4453 471.048 35.584 470.782 35.8613C470.52 36.1387 470.364 36.543 470.313 37.0742H473.255C473.247 36.5391 473.118 36.1348 472.868 35.8613C472.618 35.584 472.274 35.4453 471.837 35.4453ZM481.574 41H480.191V37.0156C480.191 36.5156 480.089 36.1426 479.886 35.8965C479.687 35.6504 479.369 35.5273 478.931 35.5273C478.349 35.5273 477.923 35.6992 477.654 36.043C477.384 36.3867 477.25 36.9629 477.25 37.7715V41H475.873V34.5195H476.951L477.144 35.3691H477.214C477.41 35.0605 477.687 34.8223 478.046 34.6543C478.406 34.4863 478.804 34.4023 479.242 34.4023C480.796 34.4023 481.574 35.1934 481.574 36.7754V41ZM487.76 41L487.567 40.1504H487.496C487.305 40.4512 487.032 40.6875 486.676 40.8594C486.325 41.0312 485.922 41.1172 485.469 41.1172C484.684 41.1172 484.098 40.9219 483.711 40.5312C483.325 40.1406 483.131 39.5488 483.131 38.7559V34.5195H484.52V38.5156C484.52 39.0117 484.621 39.3848 484.825 39.6348C485.028 39.8809 485.346 40.0039 485.78 40.0039C486.358 40.0039 486.782 39.832 487.051 39.4883C487.325 39.1406 487.461 38.5605 487.461 37.748V34.5195H488.844V41H487.76Z" fill="#333333"/>
<path d="M25.8449 1222.93C27.4472 1222.93 28.747 1221.63 28.747 1220.03C28.747 1218.43 27.4472 1217.13 25.8449 1217.13" stroke="#333333" stroke-width="1.5" stroke-linecap="round" stroke-linejoin="round"/>
<path d="M27.1791 1226.08C27.6576 1226.12 28.1333 1226.19 28.6017 1226.29C29.2526 1226.42 30.0354 1226.69 30.3141 1227.27C30.4919 1227.64 30.4919 1228.08 30.3141 1228.45C30.0363 1229.04 29.2526 1229.3 28.6017 1229.44" stroke="#333333" stroke-width="1.5" stroke-linecap="round" stroke-linejoin="round"/>
<path d="M14.54 1222.93C12.9377 1222.93 11.6378 1221.63 11.6378 1220.03C11.6378 1218.43 12.9377 1217.13 14.54 1217.13" stroke="#333333" stroke-width="1.5" stroke-linecap="round" stroke-linejoin="round"/>
<path d="M13.2058 1226.08C12.7273 1226.12 12.2515 1226.19 11.7831 1226.29C11.1323 1226.42 10.3494 1226.69 10.0717 1227.27C9.89295 1227.64 9.89295 1228.08 10.0717 1228.45C10.3485 1229.04 11.1323 1229.3 11.7831 1229.44" stroke="#333333" stroke-width="1.5" stroke-linecap="round" stroke-linejoin="round"/>
<path fill-rule="evenodd" clip-rule="evenodd" d="M20.1878 1226.71C23.4346 1226.71 26.2084 1227.2 26.2084 1229.17C26.2084 1231.13 23.4529 1231.64 20.1878 1231.64C16.94 1231.64 14.1671 1231.15 14.1671 1229.18C14.1671 1227.22 16.9226 1226.71 20.1878 1226.71Z" stroke="#333333" stroke-width="1.5" stroke-linecap="round" stroke-linejoin="round"/>
<path fill-rule="evenodd" clip-rule="evenodd" d="M20.1878 1223.9C18.0464 1223.9 16.3295 1222.19 16.3295 1220.05C16.3295 1217.9 18.0464 1216.19 20.1878 1216.19C22.3291 1216.19 24.046 1217.9 24.046 1220.05C24.046 1222.19 22.3291 1223.9 20.1878 1223.9Z" stroke="#333333" stroke-width="1.5" stroke-linecap="round" stroke-linejoin="round"/>
<path d="M2.26953 1253H0.880859V1244.43H5.71484V1245.62H2.26953V1248.29H5.49805V1249.48H2.26953V1253ZM10.1082 1246.4C10.3855 1246.4 10.6141 1246.42 10.7937 1246.46L10.659 1247.74C10.4637 1247.7 10.2605 1247.67 10.0496 1247.67C9.49883 1247.67 9.05156 1247.85 8.70781 1248.21C8.36797 1248.57 8.19805 1249.04 8.19805 1249.61V1253H6.82109V1246.52H7.89922L8.08086 1247.66H8.15117C8.36602 1247.28 8.64531 1246.97 8.98906 1246.74C9.33672 1246.52 9.70977 1246.4 10.1082 1246.4ZM13.0777 1253H11.7008V1246.52H13.0777V1253ZM11.6187 1244.8C11.6187 1244.56 11.6852 1244.37 11.818 1244.23C11.9547 1244.1 12.148 1244.04 12.398 1244.04C12.6402 1244.04 12.8277 1244.1 12.9605 1244.23C13.0973 1244.37 13.1656 1244.56 13.1656 1244.8C13.1656 1245.04 13.0973 1245.22 12.9605 1245.36C12.8277 1245.49 12.6402 1245.56 12.398 1245.56C12.148 1245.56 11.9547 1245.49 11.818 1245.36C11.6852 1245.22 11.6187 1245.04 11.6187 1244.8ZM17.5824 1253.12C16.5746 1253.12 15.7855 1252.82 15.2152 1252.24C14.6488 1251.65 14.3656 1250.84 14.3656 1249.81C14.3656 1248.75 14.6293 1247.92 15.1566 1247.31C15.684 1246.71 16.4086 1246.4 17.3305 1246.4C18.1859 1246.4 18.8617 1246.66 19.3578 1247.18C19.8539 1247.7 20.102 1248.42 20.102 1249.33V1250.07H15.7836C15.8031 1250.7 15.973 1251.18 16.2934 1251.52C16.6137 1251.86 17.0648 1252.03 17.6469 1252.03C18.0297 1252.03 18.3852 1251.99 18.7133 1251.92C19.0453 1251.85 19.4008 1251.73 19.7797 1251.56V1252.68C19.4438 1252.84 19.1039 1252.95 18.7602 1253.02C18.4164 1253.08 18.0238 1253.12 17.5824 1253.12ZM17.3305 1247.45C16.893 1247.45 16.5414 1247.58 16.2758 1247.86C16.0141 1248.14 15.8578 1248.54 15.807 1249.07H18.7484C18.7406 1248.54 18.6117 1248.13 18.3617 1247.86C18.1117 1247.58 17.768 1247.45 17.3305 1247.45ZM27.0676 1253H25.6848V1249.02C25.6848 1248.52 25.5832 1248.14 25.3801 1247.9C25.1809 1247.65 24.8625 1247.53 24.425 1247.53C23.843 1247.53 23.4172 1247.7 23.1477 1248.04C22.8781 1248.39 22.7434 1248.96 22.7434 1249.77V1253H21.3664V1246.52H22.4445L22.6379 1247.37H22.7082C22.9035 1247.06 23.1809 1246.82 23.5402 1246.65C23.8996 1246.49 24.298 1246.4 24.7355 1246.4C26.2902 1246.4 27.0676 1247.19 27.0676 1248.78V1253ZM30.8691 1253.12C30.0605 1253.12 29.4297 1252.82 28.9766 1252.24C28.5234 1251.65 28.2969 1250.83 28.2969 1249.77C28.2969 1248.71 28.5254 1247.88 28.9824 1247.29C29.4434 1246.7 30.0801 1246.4 30.8926 1246.4C31.7441 1246.4 32.3926 1246.72 32.8379 1247.35H32.9082C32.8418 1246.88 32.8086 1246.51 32.8086 1246.24V1243.88H34.1914V1253H33.1133L32.873 1252.15H32.8086C32.3672 1252.79 31.7207 1253.12 30.8691 1253.12ZM31.2383 1252C31.8047 1252 32.2168 1251.85 32.4746 1251.53C32.7324 1251.21 32.8652 1250.69 32.873 1249.98V1249.78C32.873 1248.97 32.7402 1248.39 32.4746 1248.04C32.209 1247.7 31.793 1247.53 31.2266 1247.53C30.7422 1247.53 30.3691 1247.72 30.1074 1248.12C29.8457 1248.51 29.7148 1249.07 29.7148 1249.79C29.7148 1250.51 29.8418 1251.06 30.0957 1251.44C30.3496 1251.82 30.7305 1252 31.2383 1252ZM40.2137 1251.15C40.2137 1251.79 39.9832 1252.27 39.5223 1252.61C39.0613 1252.95 38.4012 1253.12 37.5418 1253.12C36.6785 1253.12 35.9852 1252.99 35.4617 1252.72V1251.54C36.2234 1251.89 36.9324 1252.06 37.5887 1252.06C38.4363 1252.06 38.8602 1251.81 38.8602 1251.29C38.8602 1251.13 38.8133 1250.99 38.7195 1250.88C38.6258 1250.78 38.4715 1250.66 38.2566 1250.54C38.0418 1250.43 37.743 1250.29 37.3602 1250.15C36.6141 1249.86 36.1082 1249.57 35.8426 1249.28C35.5809 1248.99 35.45 1248.62 35.45 1248.15C35.45 1247.6 35.6727 1247.17 36.118 1246.87C36.5672 1246.56 37.1766 1246.4 37.9461 1246.4C38.7078 1246.4 39.4285 1246.56 40.1082 1246.87L39.6629 1247.9C38.9637 1247.61 38.3758 1247.47 37.8992 1247.47C37.1727 1247.47 36.8094 1247.68 36.8094 1248.09C36.8094 1248.29 36.9031 1248.46 37.0906 1248.61C37.282 1248.75 37.6961 1248.94 38.3328 1249.19C38.868 1249.39 39.2566 1249.58 39.4988 1249.75C39.741 1249.93 39.9207 1250.12 40.0379 1250.35C40.1551 1250.57 40.2137 1250.84 40.2137 1251.15Z" fill="#333333"/>
</svg>

