<svg width="35" height="35" viewBox="0 0 35 35" fill="none" xmlns="http://www.w3.org/2000/svg">
<path d="M33.4397 17.2822C33.4397 26.1188 26.2763 33.2822 17.4397 33.2822C8.60314 33.2822 1.4397 26.1188 1.4397 17.2822C1.4397 8.44567 8.60314 1.28223 17.4397 1.28223C26.2763 1.28223 33.4397 8.44567 33.4397 17.2822Z" fill="#FFBB0D"/>
<path fill-rule="evenodd" clip-rule="evenodd" d="M34.625 17.2824C34.625 26.7735 26.9309 34.4675 17.4398 34.4675C7.94871 34.4675 0.254639 26.7735 0.254639 17.2824C0.254639 7.79124 7.94871 0.097168 17.4398 0.097168C26.9309 0.097168 34.625 7.79124 34.625 17.2824ZM17.4398 33.2824C26.2764 33.2824 33.4398 26.1189 33.4398 17.2824C33.4398 8.4458 26.2764 1.28235 17.4398 1.28235C8.60327 1.28235 1.43982 8.4458 1.43982 17.2824C1.43982 26.1189 8.60327 33.2824 17.4398 33.2824Z" fill="#E89B05"/>
<path d="M29.2916 17.2825C29.2916 23.8281 23.9853 29.1344 17.4397 29.1344C10.8941 29.1344 5.58789 23.8281 5.58789 17.2825C5.58789 10.7369 10.8941 5.43066 17.4397 5.43066C23.9853 5.43066 29.2916 10.7369 29.2916 17.2825Z" fill="#FFDD28"/>
<path fill-rule="evenodd" clip-rule="evenodd" d="M30.4769 17.2822C30.4769 24.4823 24.64 30.3192 17.4399 30.3192C10.2397 30.3192 4.40283 24.4823 4.40283 17.2822C4.40283 10.082 10.2397 4.24512 17.4399 4.24512C24.64 4.24512 30.4769 10.082 30.4769 17.2822ZM17.4399 29.134C23.9855 29.134 29.2917 23.8278 29.2917 17.2822C29.2917 10.7366 23.9855 5.4303 17.4399 5.4303C10.8943 5.4303 5.58802 10.7366 5.58802 17.2822C5.58802 23.8278 10.8943 29.134 17.4399 29.134Z" fill="#E89B05"/>
<path d="M18.7215 21.5786H16.9027V14.5678L14.7314 15.2412V13.7622L18.5264 12.4028H18.7215V21.5786Z" fill="#FFEF9C"/>
<path fill-rule="evenodd" clip-rule="evenodd" d="M19.7954 21.5785C19.7954 22.1717 19.3145 22.6525 18.7213 22.6525H16.9025C16.3093 22.6525 15.8285 22.1717 15.8285 21.5785V16.0253L15.0495 16.2669C14.7235 16.368 14.3689 16.3081 14.0942 16.1057C13.8194 15.9033 13.6572 15.5823 13.6572 15.241V13.7621C13.6572 13.3085 13.9421 12.9039 14.3691 12.7509L18.164 11.3915C18.2802 11.3499 18.4028 11.3286 18.5262 11.3286H18.7213C19.3145 11.3286 19.7954 11.8095 19.7954 12.4027V21.5785ZM16.9025 14.5676V21.5785H18.7213V12.4027H18.5262L14.7313 13.7621V15.241L16.9025 14.5676Z" fill="#E89B05"/>
</svg>
