<svg width="18" height="18" viewBox="0 0 18 18" fill="none" xmlns="http://www.w3.org/2000/svg">
<path d="M8.99999 0.666626C4.40485 0.666626 0.666656 4.40482 0.666656 8.99996C0.666656 13.5951 4.40485 17.3333 8.99999 17.3333C13.5951 17.3333 17.3333 13.5951 17.3333 8.99996C17.3333 4.40482 13.5951 0.666626 8.99999 0.666626ZM10.8458 13.3638C10.3868 13.5444 8.79582 14.3041 7.87916 13.4965C7.60555 13.2562 7.46943 12.9513 7.46943 12.5812C7.46943 11.8882 7.69721 11.284 8.10763 9.83329C8.17985 9.55899 8.26805 9.20343 8.26805 8.92149C8.26805 8.43468 8.08332 8.30551 7.58263 8.30551C7.33818 8.30551 7.06735 8.39232 6.82221 8.48399L6.95763 7.92913C7.50416 7.7069 8.19027 7.43607 8.77777 7.43607C9.65902 7.43607 10.3076 7.87565 10.3076 8.71176C10.3076 8.95274 10.266 9.37496 10.1785 9.66663L9.67152 11.4597C9.56666 11.8222 9.37707 12.6215 9.67082 12.8583C9.95971 13.0923 10.6437 12.968 10.9812 12.809L10.8458 13.3638ZM10.0083 6.22218C9.43332 6.22218 8.96666 5.75551 8.96666 5.18051C8.96666 4.60551 9.43332 4.13885 10.0083 4.13885C10.5833 4.13885 11.05 4.60551 11.05 5.18051C11.05 5.75551 10.5833 6.22218 10.0083 6.22218Z" fill="#333333"/>
</svg>
