<svg width="20" height="21" viewBox="0 0 20 21" fill="none" xmlns="http://www.w3.org/2000/svg">
<path d="M10 0.5C4.48583 0.5 0 4.98583 0 10.5C0 16.0142 4.48583 20.5 10 20.5C15.5142 20.5 20 16.0142 20 10.5C20 4.98583 15.5142 0.5 10 0.5ZM12.215 15.7367C11.6642 15.9533 9.755 16.865 8.655 15.8958C8.32667 15.6075 8.16333 15.2417 8.16333 14.7975C8.16333 13.9658 8.43667 13.2408 8.92917 11.5C9.01583 11.1708 9.12167 10.7442 9.12167 10.4058C9.12167 9.82167 8.9 9.66667 8.29917 9.66667C8.00583 9.66667 7.68083 9.77083 7.38667 9.88083L7.54917 9.215C8.205 8.94833 9.02833 8.62333 9.73333 8.62333C10.7908 8.62333 11.5692 9.15083 11.5692 10.1542C11.5692 10.4433 11.5192 10.95 11.4142 11.3L10.8058 13.4517C10.68 13.8867 10.4525 14.8458 10.805 15.13C11.1517 15.4108 11.9725 15.2617 12.3775 15.0708L12.215 15.7367ZM11.21 7.16667C10.52 7.16667 9.96 6.60667 9.96 5.91667C9.96 5.22667 10.52 4.66667 11.21 4.66667C11.9 4.66667 12.46 5.22667 12.46 5.91667C12.46 6.60667 11.9 7.16667 11.21 7.16667Z" fill="white"/>
</svg>

