<svg width="20" height="20" viewBox="0 0 20 20" fill="none" xmlns="http://www.w3.org/2000/svg">
<path fill-rule="evenodd" clip-rule="evenodd" d="M14.3344 0.750214H5.6654C2.6444 0.750214 0.750397 2.88921 0.750397 5.91621V14.0842C0.750397 17.1112 2.6354 19.2502 5.6654 19.2502H14.3334C17.3644 19.2502 19.2504 17.1112 19.2504 14.0842V5.91621C19.2504 2.88921 17.3644 0.750214 14.3344 0.750214Z" stroke="#200E32" stroke-width="1.5" stroke-linecap="round" stroke-linejoin="round"/>
<path fill-rule="evenodd" clip-rule="evenodd" d="M8.6923 10.0002C8.6923 11.0222 7.8633 11.8522 6.8403 11.8522C5.8183 11.8522 4.9893 11.0222 4.9893 10.0002C4.9893 8.97822 5.8183 8.14822 6.8403 8.14822C7.8633 8.14822 8.6923 8.97822 8.6923 10.0002Z" stroke="#200E32" stroke-width="1.5" stroke-linecap="round" stroke-linejoin="round"/>
<path d="M8.6923 10.0002H15.0103V11.8522" stroke="#200E32" stroke-width="1.5" stroke-linecap="round" stroke-linejoin="round"/>
<path d="M12.1816 11.8517V9.99973" stroke="#200E32" stroke-width="1.5" stroke-linecap="round" stroke-linejoin="round"/>
</svg>

