<svg width="68" height="68" viewBox="0 0 68 68" fill="none" xmlns="http://www.w3.org/2000/svg">
<path d="M0 33.75C0 15.1104 15.1104 0 33.75 0C52.3896 0 67.5 15.1104 67.5 33.75C67.5 52.3896 52.3896 67.5 33.75 67.5C15.1104 67.5 0 52.3896 0 33.75Z" fill="#2D9B63"/>
<path fill-rule="evenodd" clip-rule="evenodd" d="M26.385 31.6646H24.4305C23.7492 31.6646 23.3221 33.1112 23.3221 35.159V40.6835C23.3221 42.7314 23.7472 44.178 24.4305 44.178H26.385C27.0682 44.178 27.4933 42.7314 27.4933 40.6835V35.159C27.4933 33.1112 27.0682 31.6646 26.385 31.6646Z" stroke="white" stroke-width="1.56418" stroke-linecap="round" stroke-linejoin="round"/>
<path d="M34.2714 23.3223C32.7072 24.365 31.6644 30.6217 27.4933 32.7073V42.0924C28.5361 43.1352 30.6216 44.6994 31.6644 44.6994C32.7072 44.6994 36.357 45.2208 38.4425 43.6566C40.5281 42.0924 41.0495 40.0068 43.6565 36.3571C45.742 33.4373 43.6565 31.8383 42.0923 31.6646H36.357L36.3571 31.6641C36.8784 29.5786 37.3997 27.4933 37.3997 25.9292C37.3997 24.3651 36.8784 23.3223 34.2714 23.3223Z" stroke="white" stroke-width="1.56418" stroke-linejoin="round"/>
</svg>

