<svg width="25" height="17" viewBox="0 0 25 17" fill="none" xmlns="http://www.w3.org/2000/svg">
<path d="M5.5 6.00361C3.02681 6.0753 1.5 7.20913 1.5 8.79244V13.2076C1.5 14.8438 3.1306 16 5.75205 16H13.2488C15.8694 16 17.5 14.8438 17.5 13.2076V8.79244C17.5 7.1562 15.8625 6 13.2488 6H9.5" stroke="white" stroke-width="1.5" stroke-linecap="round" stroke-linejoin="round"/>
<path d="M19.2488 11C21.8694 11 23.5 9.8438 23.5 8.20756V3.79244C23.5 2.1562 21.8625 1 19.2488 1H11.7512C9.1306 1 7.5 2.1562 7.5 3.79244V8.20756C7.5 9.8438 9.1306 11 11.752 11H15.5" stroke="white" stroke-width="1.5" stroke-linecap="round" stroke-linejoin="round"/>
</svg>
