<svg width="10" height="12" viewBox="0 0 10 12" fill="none" xmlns="http://www.w3.org/2000/svg">
<path d="M5.00229 0C2.70664 0 0.306641 1.77391 0.306641 4.69565C0.306641 7.46087 4.48055 11.687 4.63708 11.8435C4.74142 11.9478 4.84577 12 5.00229 12C5.15881 12 5.26316 11.9478 5.36751 11.8435C5.52403 11.687 9.69795 7.46087 9.69795 4.69565C9.69795 1.77391 7.29794 0 5.00229 0ZM5.00229 6.26087C4.11534 6.26087 3.43708 5.58261 3.43708 4.69565C3.43708 3.8087 4.11534 3.13043 5.00229 3.13043C5.88925 3.13043 6.56751 3.8087 6.56751 4.69565C6.56751 5.58261 5.88925 6.26087 5.00229 6.26087Z" fill="white"/>
</svg>

