<svg width="24" height="24" viewBox="0 0 24 24" fill="none" xmlns="http://www.w3.org/2000/svg">
<path d="M12.0035 3C8.55999 3 4.95999 5.66087 4.95999 10.0435C4.95999 14.1913 11.2209 20.5304 11.4556 20.7652C11.6122 20.9217 11.7687 21 12.0035 21C12.2383 21 12.3948 20.9217 12.5513 20.7652C12.7861 20.5304 19.0469 14.1913 19.0469 10.0435C19.0469 5.66087 15.4469 3 12.0035 3ZM12.0035 12.3913C10.673 12.3913 9.65564 11.3739 9.65564 10.0435C9.65564 8.71304 10.673 7.69565 12.0035 7.69565C13.3339 7.69565 14.3513 8.71304 14.3513 10.0435C14.3513 11.3739 13.3339 12.3913 12.0035 12.3913Z" fill="white"/>
</svg>
