<svg width="17" height="12" viewBox="0 0 17 12" fill="none" xmlns="http://www.w3.org/2000/svg">
<path d="M12.3433 5.25376C13.4616 5.25376 14.3688 4.34723 14.3688 3.22893C14.3688 2.11064 13.4616 1.2041 12.3433 1.2041" stroke="#6F6F6F" stroke-width="1.04688" stroke-linecap="round" stroke-linejoin="round"/>
<path d="M13.2745 7.4541C13.6085 7.47713 13.9405 7.52447 14.2674 7.59805C14.7216 7.68697 15.268 7.87314 15.4625 8.28067C15.5866 8.54169 15.5866 8.84557 15.4625 9.10723C15.2686 9.51476 14.7216 9.70029 14.2674 9.79369" stroke="#6F6F6F" stroke-width="1.04688" stroke-linecap="round" stroke-linejoin="round"/>
<path d="M4.45345 5.25376C3.33515 5.25376 2.42798 4.34723 2.42798 3.22893C2.42798 2.11064 3.33515 1.2041 4.45345 1.2041" stroke="#6F6F6F" stroke-width="1.04688" stroke-linecap="round" stroke-linejoin="round"/>
<path d="M3.52229 7.4541C3.18833 7.47713 2.8563 7.52447 2.52938 7.59805C2.07516 7.68697 1.5288 7.87314 1.33496 8.28067C1.21021 8.54169 1.21021 8.84557 1.33496 9.10723C1.52817 9.51476 2.07516 9.70029 2.52938 9.79369" stroke="#6F6F6F" stroke-width="1.04688" stroke-linecap="round" stroke-linejoin="round"/>
<path fill-rule="evenodd" clip-rule="evenodd" d="M8.39513 7.89062C10.6611 7.89062 12.5971 8.23353 12.5971 9.60581C12.5971 10.9775 10.6739 11.3332 8.39513 11.3332C6.12847 11.3332 4.19321 10.9902 4.19321 9.61797C4.19321 8.24569 6.11632 7.89062 8.39513 7.89062Z" stroke="#6F6F6F" stroke-width="1.04688" stroke-linecap="round" stroke-linejoin="round"/>
<path fill-rule="evenodd" clip-rule="evenodd" d="M8.39513 5.93299C6.90066 5.93299 5.70239 4.73472 5.70239 3.23961C5.70239 1.74514 6.90066 0.546875 8.39513 0.546875C9.8896 0.546875 11.0879 1.74514 11.0879 3.23961C11.0879 4.73472 9.8896 5.93299 8.39513 5.93299Z" stroke="#6F6F6F" stroke-width="1.04688" stroke-linecap="round" stroke-linejoin="round"/>
</svg>
