<svg width="70" height="57" viewBox="0 0 70 57" fill="none" xmlns="http://www.w3.org/2000/svg">
<rect width="70" height="57" rx="16" fill="#ffff"/>
<path fill-rule="evenodd" clip-rule="evenodd" d="M34.5 35C41.9558 35 48 28.9558 48 21.5C48 14.0442 41.9558 8 34.5 8C27.0442 8 21 14.0442 21 21.5C21 28.9558 27.0442 35 34.5 35Z" fill="#4B75E0"/>
<path d="M26.5368 19.0564H29.2174V26.4121H30.7758V19.0564H33.4563V17.7394H26.5368V19.0564ZM39.3048 20.1235H40.8166C40.7869 18.6583 39.5377 17.6208 37.6914 17.6208C35.8704 17.6208 34.5026 18.6456 34.5068 20.1786C34.5068 21.4236 35.3919 22.1393 36.819 22.5077L37.8057 22.7618C38.7416 22.9989 39.3598 23.2911 39.3641 23.9644C39.3598 24.7055 38.6569 25.201 37.6321 25.201C36.6496 25.201 35.8874 24.7606 35.8238 23.8501H34.2782C34.3417 25.5736 35.6248 26.5434 37.6448 26.5434C39.724 26.5434 40.9309 25.5059 40.9352 23.9771C40.9309 22.4738 39.6901 21.7878 38.3858 21.4786L37.5728 21.2754C36.8613 21.106 36.0906 20.8053 36.0991 20.0812C36.1033 19.429 36.6877 18.9505 37.6702 18.9505C38.6061 18.9505 39.2243 19.3867 39.3048 20.1235Z" fill="white"/>
<path fill-rule="evenodd" clip-rule="evenodd" d="M43.1937 34.8309C45.3891 34.8309 47.1687 33.0512 47.1687 30.8559C47.1687 28.6605 45.3891 26.8809 43.1937 26.8809C40.9984 26.8809 39.2188 28.6605 39.2188 30.8559C39.2188 33.0512 40.9984 34.8309 43.1937 34.8309Z" fill="#333333"/>
<path fill-rule="evenodd" clip-rule="evenodd" d="M43.1938 34.168C45.0232 34.168 46.5063 32.6849 46.5063 30.8555C46.5063 29.026 45.0232 27.543 43.1938 27.543C41.3643 27.543 39.8813 29.026 39.8813 30.8555C39.8813 32.6849 41.3643 34.168 43.1938 34.168Z" fill="#80EA4E"/>
<path d="M23.334 49L20.8496 41.8457H20.8027C20.8691 42.9082 20.9023 43.9043 20.9023 44.834V49H19.6309V40.4336H21.6055L23.9844 47.248H24.0195L26.4688 40.4336H28.4492V49H27.1016V44.7637C27.1016 44.3379 27.1113 43.7832 27.1309 43.0996C27.1543 42.416 27.1738 42.002 27.1895 41.8574H27.1426L24.5703 49H23.334ZM33.0887 49.1172C32.0809 49.1172 31.2918 48.8242 30.7215 48.2383C30.1551 47.6484 29.8719 46.8379 29.8719 45.8066C29.8719 44.748 30.1355 43.916 30.6629 43.3105C31.1902 42.7051 31.9148 42.4023 32.8367 42.4023C33.6922 42.4023 34.368 42.6621 34.8641 43.1816C35.3602 43.7012 35.6082 44.416 35.6082 45.3262V46.0703H31.2898C31.3094 46.6992 31.4793 47.1836 31.7996 47.5234C32.1199 47.8594 32.5711 48.0273 33.1531 48.0273C33.5359 48.0273 33.8914 47.9922 34.2195 47.9219C34.5516 47.8477 34.907 47.7266 35.2859 47.5586V48.6777C34.95 48.8379 34.6102 48.9512 34.2664 49.0176C33.9227 49.084 33.5301 49.1172 33.0887 49.1172ZM32.8367 43.4453C32.3992 43.4453 32.0477 43.584 31.782 43.8613C31.5203 44.1387 31.3641 44.543 31.3133 45.0742H34.2547C34.2469 44.5391 34.118 44.1348 33.868 43.8613C33.618 43.584 33.2742 43.4453 32.8367 43.4453ZM42.5738 49H41.191V45.0156C41.191 44.5156 41.0895 44.1426 40.8863 43.8965C40.6871 43.6504 40.3687 43.5273 39.9312 43.5273C39.3492 43.5273 38.9234 43.6992 38.6539 44.043C38.3844 44.3867 38.2496 44.9629 38.2496 45.7715V49H36.8727V42.5195H37.9508L38.1441 43.3691H38.2145C38.4098 43.0605 38.6871 42.8223 39.0465 42.6543C39.4059 42.4863 39.8043 42.4023 40.2418 42.4023C41.7965 42.4023 42.5738 43.1934 42.5738 44.7754V49ZM48.7602 49L48.5668 48.1504H48.4965C48.3051 48.4512 48.0316 48.6875 47.6762 48.8594C47.3246 49.0312 46.9223 49.1172 46.4691 49.1172C45.684 49.1172 45.098 48.9219 44.7113 48.5312C44.3246 48.1406 44.1313 47.5488 44.1313 46.7559V42.5195H45.5199V46.5156C45.5199 47.0117 45.6215 47.3848 45.8246 47.6348C46.0277 47.8809 46.3461 48.0039 46.7797 48.0039C47.3578 48.0039 47.7816 47.832 48.0512 47.4883C48.3246 47.1406 48.4613 46.5605 48.4613 45.748V42.5195H49.8441V49H48.7602Z" fill="#333333"/>
</svg>


