<svg width="31" height="42" viewBox="0 0 31 42" fill="none" xmlns="http://www.w3.org/2000/svg">
<path fill-rule="evenodd" clip-rule="evenodd" d="M15.5 27C22.9558 27 29 20.9558 29 13.5C29 6.04416 22.9558 0 15.5 0C8.04416 0 2 6.04416 2 13.5C2 20.9558 8.04416 27 15.5 27Z" fill="#4B75E0"/>
<path d="M7.53679 11.0569H10.2174V18.4126H11.7758V11.0569H14.4563V9.73987H7.53679V11.0569ZM20.3048 12.124H21.8166C21.7869 10.6588 20.5377 9.6213 18.6914 9.6213C16.8704 9.6213 15.5026 10.6461 15.5068 12.1791C15.5068 13.4241 16.3919 14.1398 17.819 14.5082L18.8057 14.7623C19.7416 14.9994 20.3598 15.2916 20.3641 15.9649C20.3598 16.706 19.6569 17.2015 18.6321 17.2015C17.6496 17.2015 16.8874 16.7611 16.8238 15.8506H15.2782C15.3417 17.5741 16.6248 18.5439 18.6448 18.5439C20.724 18.5439 21.9309 17.5064 21.9352 15.9776C21.9309 14.4743 20.6901 13.7883 19.3858 13.4791L18.5728 13.2759C17.8613 13.1065 17.0906 12.8058 17.0991 12.0817C17.1033 11.4295 17.6877 10.951 18.6702 10.951C19.6061 10.951 20.2243 11.3872 20.3048 12.124Z" fill="white"/>
<path fill-rule="evenodd" clip-rule="evenodd" d="M24.1937 26.1689C26.0232 26.1689 27.5062 24.6859 27.5062 22.8564C27.5062 21.027 26.0232 19.5439 24.1937 19.5439C22.3643 19.5439 20.8812 21.027 20.8812 22.8564C20.8812 24.6859 22.3643 26.1689 24.1937 26.1689Z" fill="#80EA4E"/>
<path d="M4.33398 41L1.84961 33.8457H1.80273C1.86914 34.9082 1.90234 35.9043 1.90234 36.834V41H0.630859V32.4336H2.60547L4.98438 39.248H5.01953L7.46875 32.4336H9.44922V41H8.10156V36.7637C8.10156 36.3379 8.11133 35.7832 8.13086 35.0996C8.1543 34.416 8.17383 34.002 8.18945 33.8574H8.14258L5.57031 41H4.33398ZM14.0887 41.1172C13.0809 41.1172 12.2918 40.8242 11.7215 40.2383C11.1551 39.6484 10.8719 38.8379 10.8719 37.8066C10.8719 36.748 11.1355 35.916 11.6629 35.3105C12.1902 34.7051 12.9148 34.4023 13.8367 34.4023C14.6922 34.4023 15.368 34.6621 15.8641 35.1816C16.3602 35.7012 16.6082 36.416 16.6082 37.3262V38.0703H12.2898C12.3094 38.6992 12.4793 39.1836 12.7996 39.5234C13.1199 39.8594 13.5711 40.0273 14.1531 40.0273C14.5359 40.0273 14.8914 39.9922 15.2195 39.9219C15.5516 39.8477 15.907 39.7266 16.2859 39.5586V40.6777C15.95 40.8379 15.6102 40.9512 15.2664 41.0176C14.9227 41.084 14.5301 41.1172 14.0887 41.1172ZM13.8367 35.4453C13.3992 35.4453 13.0477 35.584 12.782 35.8613C12.5203 36.1387 12.3641 36.543 12.3133 37.0742H15.2547C15.2469 36.5391 15.118 36.1348 14.868 35.8613C14.618 35.584 14.2742 35.4453 13.8367 35.4453ZM23.5738 41H22.191V37.0156C22.191 36.5156 22.0895 36.1426 21.8863 35.8965C21.6871 35.6504 21.3687 35.5273 20.9312 35.5273C20.3492 35.5273 19.9234 35.6992 19.6539 36.043C19.3844 36.3867 19.2496 36.9629 19.2496 37.7715V41H17.8727V34.5195H18.9508L19.1441 35.3691H19.2145C19.4098 35.0605 19.6871 34.8223 20.0465 34.6543C20.4059 34.4863 20.8043 34.4023 21.2418 34.4023C22.7965 34.4023 23.5738 35.1934 23.5738 36.7754V41ZM29.7602 41L29.5668 40.1504H29.4965C29.3051 40.4512 29.0316 40.6875 28.6762 40.8594C28.3246 41.0312 27.9223 41.1172 27.4691 41.1172C26.684 41.1172 26.098 40.9219 25.7113 40.5312C25.3246 40.1406 25.1313 39.5488 25.1313 38.7559V34.5195H26.5199V38.5156C26.5199 39.0117 26.6215 39.3848 26.8246 39.6348C27.0277 39.8809 27.3461 40.0039 27.7797 40.0039C28.3578 40.0039 28.7816 39.832 29.0512 39.4883C29.3246 39.1406 29.4613 38.5605 29.4613 37.748V34.5195H30.8441V41H29.7602Z" fill="#333333"/>
</svg>

