<svg width="24" height="26" viewBox="0 0 24 26" fill="none" xmlns="http://www.w3.org/2000/svg">
<path d="M6.69518 16.3909C6.05042 16.3909 5.52661 15.8671 5.52661 15.2223C5.52661 14.5795 6.05042 14.0557 6.69518 14.0557C7.33994 14.0557 7.86375 14.5795 7.86375 15.2223C7.86375 15.8671 7.33994 16.3909 6.69518 16.3909Z" fill="#230B34"/>
<path d="M11.238 16.3909C10.5933 16.3909 10.0695 15.8671 10.0695 15.2223C10.0695 14.5795 10.5933 14.0557 11.238 14.0557C11.8828 14.0557 12.4066 14.5795 12.4066 15.2223C12.4066 15.8671 11.8828 16.3909 11.238 16.3909Z" fill="#230B34"/>
<path d="M15.781 16.3909C15.1362 16.3909 14.6124 15.8671 14.6124 15.2223C14.6124 14.5795 15.1362 14.0557 15.781 14.0557C16.4258 14.0557 16.9496 14.5795 16.9496 15.2223C16.9496 15.8671 16.4258 16.3909 15.781 16.3909Z" fill="#230B34"/>
<path fill-rule="evenodd" clip-rule="evenodd" d="M11.02 5C5.21 5 1 9.74612 1 15.015C1 16.6975 1.49 18.4291 2.35 20.0115C2.51 20.2729 2.53 20.6024 2.42 20.9139L1.75 23.1572C1.6 23.698 2.06 24.0976 2.57 23.9374L4.59 23.3375C5.14 23.1572 5.57 23.3866 6.08 23.698C7.54 24.5583 9.36 25 11 25C15.96 25 21 21.1642 21 14.985C21 9.65598 16.7 5 11.02 5Z" stroke="#200E32" stroke-width="1.5" stroke-linecap="round" stroke-linejoin="round"/>
<circle cx="18" cy="6" r="6" fill="#F24822"/>
</svg>

