<svg width="11" height="15" viewBox="0 0 11 15" fill="none" xmlns="http://www.w3.org/2000/svg">
<path d="M1.21429 5.14258C0.819797 5.14258 0.5 5.49871 0.5 5.93803C0.5 6.612 1.26622 7.24354 1.33448 7.91404L1.86952 13.1691C1.90296 13.5789 2.21144 13.8926 2.58087 13.8926H8.41913C8.78856 13.8926 9.09704 13.5789 9.13048 13.1691L9.66552 7.91404C9.73378 7.24354 10.5 6.612 10.5 5.93803C10.5 5.49871 10.1802 5.14258 9.78571 5.14258H1.21429Z" fill="#6F6F6F" stroke="#6F6F6F" stroke-width="0.9375"/>
<path d="M9.875 5.1875C9.5625 3 7.63531 1.4375 5.5 1.4375C3.37785 1.4375 1.4375 3 1.125 5.1875" stroke="#6F6F6F" stroke-width="0.9375"/>
<path d="M5.66196 6.85042L6.3367 8.21726L7.84543 8.43683C7.91342 8.44663 7.96992 8.49421 7.99116 8.55953C8.0124 8.62485 7.99467 8.69657 7.94545 8.74447L6.8535 9.80757L7.11124 11.3102C7.12284 11.3779 7.095 11.4464 7.03943 11.4867C6.98386 11.5271 6.91019 11.5324 6.84938 11.5005L5.50011 10.7921L4.15062 11.5012C4.08977 11.533 4.01614 11.5275 3.96061 11.4871C3.90508 11.4467 3.87724 11.3784 3.88876 11.3107L4.1465 9.80887L3.05455 8.74578C3.00533 8.69787 2.9876 8.62615 3.00884 8.56083C3.03008 8.49551 3.08658 8.44793 3.15457 8.43813L4.6633 8.21748L5.33804 6.85064C5.36849 6.78905 5.43123 6.75005 5.49993 6.75C5.56864 6.74995 5.63143 6.78887 5.66196 6.85042Z" fill="white"/>
</svg>

