<svg width="16" height="15" viewBox="0 0 16 15" fill="none" xmlns="http://www.w3.org/2000/svg">
<path d="M8.45349 1.28119L10.3428 5.10834L14.5672 5.72311C14.7576 5.75056 14.9158 5.88379 14.9753 6.06669C15.0347 6.24959 14.9851 6.45039 14.8473 6.58453L11.7898 9.5612L12.5115 13.7686C12.544 13.9582 12.466 14.1498 12.3104 14.2629C12.1548 14.3759 11.9485 14.3909 11.7782 14.3014L8.0003 12.318L4.22175 14.3032C4.05134 14.3923 3.84519 14.3771 3.68971 14.264C3.53422 14.1509 3.45626 13.9594 3.48852 13.7699L4.21021 9.56485L1.15274 6.58817C1.01492 6.45403 0.965286 6.25323 1.02475 6.07033C1.08421 5.88743 1.24243 5.75421 1.43279 5.72676L5.65724 5.10895L7.54651 1.28179C7.63176 1.10933 7.80743 1.00013 7.99981 1C8.19219 0.999871 8.36801 1.10884 8.45349 1.28119Z" stroke="#6E6E6E"/>
</svg>

