<svg width="54" height="45" viewBox="0 0 54 45" fill="none" xmlns="http://www.w3.org/2000/svg">
<path d="M1.89453 5.46484H2.49219C3.05078 5.46484 3.46875 5.35547 3.74609 5.13672C4.02344 4.91406 4.16211 4.5918 4.16211 4.16992C4.16211 3.74414 4.04492 3.42969 3.81055 3.22656C3.58008 3.02344 3.2168 2.92188 2.7207 2.92188H1.89453V5.46484ZM5.99609 4.10547C5.99609 5.02734 5.70703 5.73242 5.12891 6.2207C4.55469 6.70898 3.73633 6.95312 2.67383 6.95312H1.89453V10H0.078125V1.43359H2.81445C3.85352 1.43359 4.64258 1.6582 5.18164 2.10742C5.72461 2.55273 5.99609 3.21875 5.99609 4.10547ZM11.3328 10L10.9871 9.10938H10.9402C10.6395 9.48828 10.3289 9.75195 10.0086 9.90039C9.69219 10.0449 9.27812 10.1172 8.76641 10.1172C8.1375 10.1172 7.64141 9.9375 7.27812 9.57812C6.91875 9.21875 6.73906 8.70703 6.73906 8.04297C6.73906 7.34766 6.98125 6.83594 7.46562 6.50781C7.95391 6.17578 8.68828 5.99219 9.66875 5.95703L10.8055 5.92188V5.63477C10.8055 4.9707 10.4656 4.63867 9.78594 4.63867C9.2625 4.63867 8.64727 4.79688 7.94023 5.11328L7.34844 3.90625C8.10234 3.51172 8.93828 3.31445 9.85625 3.31445C10.7352 3.31445 11.409 3.50586 11.8777 3.88867C12.3465 4.27148 12.5809 4.85352 12.5809 5.63477V10H11.3328ZM10.8055 6.96484L10.1141 6.98828C9.59453 7.00391 9.20781 7.09766 8.95391 7.26953C8.7 7.44141 8.57305 7.70312 8.57305 8.05469C8.57305 8.55859 8.86211 8.81055 9.44023 8.81055C9.8543 8.81055 10.1844 8.69141 10.4305 8.45312C10.6805 8.21484 10.8055 7.89844 10.8055 7.50391V6.96484ZM18.6969 8.05469C18.6969 8.72656 18.4625 9.23828 17.9937 9.58984C17.5289 9.94141 16.8316 10.1172 15.902 10.1172C15.4254 10.1172 15.0191 10.084 14.6832 10.0176C14.3473 9.95508 14.0328 9.86133 13.7398 9.73633V8.25977C14.0719 8.41602 14.4449 8.54688 14.859 8.65234C15.277 8.75781 15.6441 8.81055 15.9605 8.81055C16.609 8.81055 16.9332 8.62305 16.9332 8.24805C16.9332 8.10742 16.8902 7.99414 16.8043 7.9082C16.7184 7.81836 16.5699 7.71875 16.359 7.60938C16.148 7.49609 15.8668 7.36523 15.5152 7.2168C15.0113 7.00586 14.6402 6.81055 14.402 6.63086C14.1676 6.45117 13.9957 6.24609 13.8863 6.01562C13.7809 5.78125 13.7281 5.49414 13.7281 5.1543C13.7281 4.57227 13.9527 4.12305 14.402 3.80664C14.8551 3.48633 15.4957 3.32617 16.3238 3.32617C17.1129 3.32617 17.8805 3.49805 18.6266 3.8418L18.0875 5.13086C17.7594 4.99023 17.4527 4.875 17.1676 4.78516C16.8824 4.69531 16.5914 4.65039 16.2945 4.65039C15.7672 4.65039 15.5035 4.79297 15.5035 5.07812C15.5035 5.23828 15.5875 5.37695 15.7555 5.49414C15.9273 5.61133 16.3004 5.78516 16.8746 6.01562C17.3863 6.22266 17.7613 6.41602 17.9996 6.5957C18.2379 6.77539 18.4137 6.98242 18.527 7.2168C18.6402 7.45117 18.6969 7.73047 18.6969 8.05469ZM24.3617 8.05469C24.3617 8.72656 24.1273 9.23828 23.6586 9.58984C23.1938 9.94141 22.4965 10.1172 21.5668 10.1172C21.0902 10.1172 20.684 10.084 20.348 10.0176C20.0121 9.95508 19.6977 9.86133 19.4047 9.73633V8.25977C19.7367 8.41602 20.1098 8.54688 20.5238 8.65234C20.9418 8.75781 21.309 8.81055 21.6254 8.81055C22.2738 8.81055 22.598 8.62305 22.598 8.24805C22.598 8.10742 22.5551 7.99414 22.4691 7.9082C22.3832 7.81836 22.2348 7.71875 22.0238 7.60938C21.8129 7.49609 21.5316 7.36523 21.1801 7.2168C20.6762 7.00586 20.3051 6.81055 20.0668 6.63086C19.8324 6.45117 19.6605 6.24609 19.5512 6.01562C19.4457 5.78125 19.393 5.49414 19.393 5.1543C19.393 4.57227 19.6176 4.12305 20.0668 3.80664C20.5199 3.48633 21.1605 3.32617 21.9887 3.32617C22.7777 3.32617 23.5453 3.49805 24.2914 3.8418L23.7523 5.13086C23.4242 4.99023 23.1176 4.875 22.8324 4.78516C22.5473 4.69531 22.2563 4.65039 21.9594 4.65039C21.432 4.65039 21.1684 4.79297 21.1684 5.07812C21.1684 5.23828 21.2523 5.37695 21.4203 5.49414C21.5922 5.61133 21.9652 5.78516 22.5395 6.01562C23.0512 6.22266 23.4262 6.41602 23.6645 6.5957C23.9027 6.77539 24.0785 6.98242 24.1918 7.2168C24.3051 7.45117 24.3617 7.73047 24.3617 8.05469ZM30.841 10L30.3371 7.70898L29.6574 4.81445H29.6164L28.4211 10H26.4992L24.6359 3.44922H26.4172L27.173 6.34961C27.2941 6.86914 27.4172 7.58594 27.5422 8.5H27.5773C27.593 8.20312 27.6613 7.73242 27.7824 7.08789L27.8762 6.58984L28.6848 3.44922H30.6535L31.4211 6.58984C31.4367 6.67578 31.4602 6.80273 31.4914 6.9707C31.5266 7.13867 31.5598 7.31836 31.591 7.50977C31.6223 7.69727 31.6496 7.88281 31.673 8.06641C31.7004 8.24609 31.716 8.39062 31.7199 8.5H31.7551C31.7902 8.21875 31.8527 7.83398 31.9426 7.3457C32.0324 6.85352 32.0969 6.52148 32.1359 6.34961L32.9211 3.44922H34.673L32.7863 10H30.841ZM36.8574 6.71289C36.8574 7.36133 36.9629 7.85156 37.1738 8.18359C37.3887 8.51562 37.7363 8.68164 38.2168 8.68164C38.6934 8.68164 39.0352 8.51758 39.2422 8.18945C39.4531 7.85742 39.5586 7.36523 39.5586 6.71289C39.5586 6.06445 39.4531 5.57812 39.2422 5.25391C39.0312 4.92969 38.6855 4.76758 38.2051 4.76758C37.7285 4.76758 37.3848 4.92969 37.1738 5.25391C36.9629 5.57422 36.8574 6.06055 36.8574 6.71289ZM41.3867 6.71289C41.3867 7.7793 41.1055 8.61328 40.543 9.21484C39.9805 9.81641 39.1973 10.1172 38.1934 10.1172C37.5645 10.1172 37.0098 9.98047 36.5293 9.70703C36.0488 9.42969 35.6797 9.0332 35.4219 8.51758C35.1641 8.00195 35.0352 7.40039 35.0352 6.71289C35.0352 5.64258 35.3145 4.81055 35.873 4.2168C36.4316 3.62305 37.2168 3.32617 38.2285 3.32617C38.8574 3.32617 39.4121 3.46289 39.8926 3.73633C40.373 4.00977 40.7422 4.40234 41 4.91406C41.2578 5.42578 41.3867 6.02539 41.3867 6.71289ZM46.2195 3.32617C46.4617 3.32617 46.6629 3.34375 46.823 3.37891L46.6883 5.05469C46.5438 5.01562 46.368 4.99609 46.1609 4.99609C45.5906 4.99609 45.1453 5.14258 44.825 5.43555C44.5086 5.72852 44.3504 6.13867 44.3504 6.66602V10H42.5633V3.44922H43.9168L44.1805 4.55078H44.2684C44.4715 4.18359 44.7449 3.88867 45.0887 3.66602C45.4363 3.43945 45.8133 3.32617 46.2195 3.32617ZM49.7867 10.1172C49.0172 10.1172 48.4117 9.81836 47.9703 9.2207C47.5328 8.62305 47.3141 7.79492 47.3141 6.73633C47.3141 5.66211 47.5367 4.82617 47.982 4.22852C48.4313 3.62695 49.0484 3.32617 49.8336 3.32617C50.6578 3.32617 51.2867 3.64648 51.7203 4.28711H51.7789C51.6891 3.79883 51.6441 3.36328 51.6441 2.98047V0.882812H53.4371V10H52.066L51.7203 9.15039H51.6441C51.2379 9.79492 50.6188 10.1172 49.7867 10.1172ZM50.4137 8.69336C50.8707 8.69336 51.2047 8.56055 51.4156 8.29492C51.6305 8.0293 51.7477 7.57812 51.7672 6.94141V6.74805C51.7672 6.04492 51.6578 5.54102 51.4391 5.23633C51.2242 4.93164 50.8727 4.7793 50.3844 4.7793C49.9859 4.7793 49.6754 4.94922 49.4527 5.28906C49.234 5.625 49.1246 6.11523 49.1246 6.75977C49.1246 7.4043 49.2359 7.88867 49.4586 8.21289C49.6813 8.5332 49.9996 8.69336 50.4137 8.69336Z" fill="#333333"/>
<path fill-rule="evenodd" clip-rule="evenodd" d="M15.3344 25.7502H6.6654C3.6444 25.7502 1.7504 27.8892 1.7504 30.9162V39.0842C1.7504 42.1112 3.6354 44.2502 6.6654 44.2502H15.3334C18.3644 44.2502 20.2504 42.1112 20.2504 39.0842V30.9162C20.2504 27.8892 18.3644 25.7502 15.3344 25.7502Z" stroke="#200E32" stroke-width="1.5" stroke-linecap="round" stroke-linejoin="round"/>
<path fill-rule="evenodd" clip-rule="evenodd" d="M9.6923 35.0002C9.6923 36.0222 8.8633 36.8522 7.8403 36.8522C6.8183 36.8522 5.9893 36.0222 5.9893 35.0002C5.9893 33.9782 6.8183 33.1482 7.8403 33.1482C8.8633 33.1482 9.6923 33.9782 9.6923 35.0002Z" stroke="#200E32" stroke-width="1.5" stroke-linecap="round" stroke-linejoin="round"/>
<path d="M9.6923 35.0002H16.0103V36.8522" stroke="#200E32" stroke-width="1.5" stroke-linecap="round" stroke-linejoin="round"/>
<path d="M13.1816 36.8517V34.9997" stroke="#200E32" stroke-width="1.5" stroke-linecap="round" stroke-linejoin="round"/>
</svg>
