<svg width="20" height="20" viewBox="0 0 20 20" fill="none" xmlns="http://www.w3.org/2000/svg">
<path fill-rule="evenodd" clip-rule="evenodd" d="M14.3344 0.75H5.66543C2.64443 0.75 0.750427 2.889 0.750427 5.916V14.084C0.750427 17.111 2.63543 19.25 5.66543 19.25H14.3334C17.3644 19.25 19.2504 17.111 19.2504 14.084V5.916C19.2504 2.889 17.3644 0.75 14.3344 0.75Z" stroke="#200E32" stroke-width="1.5" stroke-linecap="round" stroke-linejoin="round"/>
<path fill-rule="evenodd" clip-rule="evenodd" d="M8.69232 9.99995C8.69232 11.0219 7.86332 11.8519 6.84032 11.8519C5.81832 11.8519 4.98932 11.0219 4.98932 9.99995C4.98932 8.97795 5.81832 8.14795 6.84032 8.14795C7.86332 8.14795 8.69232 8.97795 8.69232 9.99995Z" stroke="#200E32" stroke-width="1.5" stroke-linecap="round" stroke-linejoin="round"/>
<path d="M8.69232 10H15.0103V11.852" stroke="#200E32" stroke-width="1.5" stroke-linecap="round" stroke-linejoin="round"/>
<path d="M12.1816 11.8515V9.99951" stroke="#200E32" stroke-width="1.5" stroke-linecap="round" stroke-linejoin="round"/>
</svg>
