<svg width="49" height="48" viewBox="0 0 49 48" fill="none" xmlns="http://www.w3.org/2000/svg">
<rect x="1.12946" y="1.12946" width="46.7411" height="45.7411" rx="22.8705" fill="white" fill-opacity="0.1"/>
<path d="M17.9286 18.9004C16.856 18.9004 16.1146 19.843 16.1146 20.8388C16.1146 21.5811 16.5233 22.2465 16.807 22.7084C16.8118 22.7162 16.8166 22.724 16.8213 22.7318C17.1612 23.2854 17.3659 23.6275 17.3979 23.9415L18.2176 31.993C18.2974 32.9255 19.0238 33.7546 20.024 33.7546H28.976C29.9763 33.7546 30.7026 32.9255 30.7825 31.993L31.6022 23.9415C31.6342 23.6275 31.8389 23.2853 32.1787 22.7318L32.1931 22.7084C32.4768 22.2465 32.8855 21.5811 32.8855 20.8388C32.8855 19.843 32.1441 18.9004 31.0715 18.9004H17.9286Z" stroke="#4285F4" stroke-width="1.4375"/>
<path d="M31.2083 18.7292C30.7291 15.3751 27.7741 12.9792 24.5 12.9792C21.246 12.9792 18.2708 15.3751 17.7916 18.7292" stroke="#4285F4" stroke-width="1.4375"/>
<path d="M24.7483 22.2372L25.7829 24.3331L28.0963 24.6697C28.2005 24.6847 28.2872 24.7577 28.3197 24.8579C28.3523 24.958 28.3251 25.068 28.2497 25.1414L26.5753 26.7715L26.9705 29.0756C26.9883 29.1794 26.9456 29.2843 26.8604 29.3462C26.7752 29.4082 26.6622 29.4163 26.569 29.3674L24.5001 28.2812L22.4309 29.3684C22.3376 29.4171 22.2247 29.4088 22.1396 29.3468C22.0544 29.2849 22.0117 29.1801 22.0294 29.0763L22.4246 26.7735L20.7503 25.1434C20.6748 25.07 20.6476 24.96 20.6802 24.8599C20.7127 24.7597 20.7994 24.6867 20.9036 24.6717L23.217 24.3334L24.2516 22.2376C24.2983 22.1431 24.3945 22.0833 24.4999 22.0833C24.6052 22.0832 24.7015 22.1429 24.7483 22.2372Z" fill="#4285F4"/>
<rect x="1.12946" y="1.12946" width="46.7411" height="45.7411" rx="22.8705" stroke="#4285F4" stroke-width="1.25893"/>
</svg>

