<svg width="65" height="64" viewBox="0 0 65 64" fill="none" xmlns="http://www.w3.org/2000/svg">
<rect x="1.25" y="0.75" width="62.5" height="62.5" rx="31.25" fill="white" fill-opacity="0.1"/>
<path fill-rule="evenodd" clip-rule="evenodd" d="M39.5629 34L41.4371 34C42.0905 34 42.5 32.6127 42.5 30.6489L42.5 25.3511C42.5 23.3873 42.0924 22 41.4371 22L39.5629 22C38.9076 22 38.5 23.3872 38.5 25.3511L38.5 30.6489C38.5 32.6127 38.9076 34 39.5629 34Z" stroke="#F05757" stroke-width="1.5" stroke-linecap="round" stroke-linejoin="round"/>
<path d="M32 42C33.5 41.0001 34.5 35.0001 38.5 33L38.5 24C37.5 23 35.5 21.5 34.5 21.5C33.5 21.5 30 21 28 22.5C26 24 25.5 26 23 29.5C21 32.3 23 33.8333 24.5 34L30 34L29.9999 34.0005C29.4999 36.0004 29 38.0001 29 39.5C29 41 29.5 42 32 42Z" stroke="#F05757" stroke-width="1.5" stroke-linejoin="round"/>
<rect x="1.25" y="0.75" width="62.5" height="62.5" rx="31.25" stroke="#F05757" stroke-width="1.5"/>
</svg>

