<svg width="65" height="64" viewBox="0 0 65 64" fill="none" xmlns="http://www.w3.org/2000/svg">
<path d="M0.5 32C0.5 14.3269 14.8269 0 32.5 0C50.1731 0 64.5 14.3269 64.5 32C64.5 49.6731 50.1731 64 32.5 64C14.8269 64 0.5 49.6731 0.5 32Z" fill="white" fill-opacity="0.1"/>
<path fill-rule="evenodd" clip-rule="evenodd" d="M25.4371 30H23.5629C22.9095 30 22.5 31.3873 22.5 33.3511V38.6489C22.5 40.6127 22.9076 42 23.5629 42H25.4371C26.0924 42 26.5 40.6127 26.5 38.6489V33.3511C26.5 31.3873 26.0924 30 25.4371 30Z" stroke="#2D9B63" stroke-width="1.5" stroke-linecap="round" stroke-linejoin="round"/>
<path d="M33 22C31.5 22.9999 30.5 28.9999 26.5 31V40C27.5 41 29.5 42.5 30.5 42.5C31.5 42.5 35 43 37 41.5C39 40 39.5 38 42 34.5C44 31.7 42 30.1667 40.5 30H35L35.0001 29.9995C35.5001 27.9996 36 25.9999 36 24.5C36 23 35.5 22 33 22Z" stroke="#2D9B63" stroke-width="1.5" stroke-linejoin="round"/>
<path d="M32.5 62.5C15.6553 62.5 2 48.8447 2 32H-1C-1 50.5015 13.9985 65.5 32.5 65.5V62.5ZM63 32C63 48.8447 49.3447 62.5 32.5 62.5V65.5C51.0015 65.5 66 50.5015 66 32H63ZM32.5 1.5C49.3447 1.5 63 15.1553 63 32H66C66 13.4985 51.0015 -1.5 32.5 -1.5V1.5ZM32.5 -1.5C13.9985 -1.5 -1 13.4985 -1 32H2C2 15.1553 15.6553 1.5 32.5 1.5V-1.5Z" fill="#2D9B63"/>
</svg>

