<svg width="49" height="48" viewBox="0 0 49 48" fill="none" xmlns="http://www.w3.org/2000/svg">
<rect x="1.25" y="0.75" width="46.5" height="46.5" rx="23.25" fill="white" fill-opacity="0.1"/>
<path d="M29.3247 20.7816H17.4818L19.9048 18.3586C20.2459 18.0175 20.2459 17.4646 19.9048 17.1235C19.5636 16.7823 19.0108 16.7824 18.6696 17.1235L14.7558 21.0375C14.4147 21.3786 14.4147 21.9315 14.7558 22.2726L18.6696 26.1864C18.8402 26.357 19.0637 26.4422 19.2871 26.4422C19.5106 26.4422 19.7341 26.3569 19.9047 26.1864C20.2458 25.8453 20.2458 25.2924 19.9047 24.9513L17.4817 22.5283H29.3246C31.2152 22.5283 32.7533 24.0664 32.7533 25.957C32.7533 27.8476 31.2152 29.3857 29.3246 29.3857H22.1204C21.6381 29.3857 21.2471 29.7766 21.2471 30.259C21.2471 30.7414 21.6381 31.1323 22.1204 31.1323H29.3246C32.1783 31.1323 34.5 28.8106 34.5 25.957C34.5 23.1033 32.1784 20.7816 29.3247 20.7816Z" fill="#FFCF5C"/>
<rect x="1.25" y="0.75" width="46.5" height="46.5" rx="23.25" stroke="#FFCF5C" stroke-width="1.5"/>
</svg>

