<svg width="354" height="92" viewBox="0 0 354 92" fill="none" xmlns="http://www.w3.org/2000/svg">
<g filter="url(#filter0_d_652_22887)">
<rect x="14" y="10" width="326" height="64" rx="8" fill="white"/>
<rect x="14.5" y="10.5" width="325" height="63" rx="7.5" stroke="#2D9B63"/>
</g>
<path d="M127.059 46.2242C126.892 46.2495 126.75 46.29 126.74 46.3204C126.73 46.3456 126.695 46.3709 126.659 46.3709C126.553 46.3709 126.164 46.7909 126.072 47.0034C125.683 47.8837 126.169 48.8349 127.105 49.0323C127.904 49.1992 128.688 48.6326 128.784 47.823C128.85 47.2665 128.643 46.7706 128.203 46.4519C127.995 46.3001 127.884 46.2596 127.464 46.1989C127.408 46.1888 127.226 46.204 127.059 46.2242Z" fill="#6E6E6E"/>
<path d="M123.239 49.3009C122.819 49.3515 122.688 49.4476 122.253 49.989C122.04 50.2571 121.883 50.4443 121.797 50.5405C121.767 50.5708 121.656 50.7074 121.544 50.8491C121.433 50.9857 121.291 51.1476 121.231 51.2083C121.165 51.269 121.114 51.3399 121.114 51.3753C121.114 51.4056 121.094 51.4309 121.064 51.4309C120.993 51.4309 120.952 51.7446 121.008 51.8964C121.16 52.291 121.666 52.4277 121.959 52.1494C122.04 52.0735 122.339 51.6991 122.622 51.3196C122.9 50.9402 123.173 50.5809 123.224 50.5253C123.305 50.4291 123.371 50.419 123.963 50.419H124.615L124.58 50.5759C124.56 50.6619 124.514 50.7884 124.474 50.8643C124.433 50.9402 124.403 51.0262 124.403 51.0565C124.403 51.0919 124.367 51.183 124.327 51.2589C124.286 51.3399 124.251 51.441 124.251 51.4866C124.251 51.5271 124.231 51.5827 124.206 51.6131C124.18 51.6384 124.109 51.8155 124.049 52.0027C123.983 52.1899 123.912 52.3568 123.892 52.372C123.867 52.3872 123.846 52.4428 123.846 52.4934C123.846 52.5491 123.816 52.6655 123.775 52.7565C123.735 52.8476 123.664 53.0146 123.614 53.1208C123.553 53.2625 123.528 53.4547 123.533 53.7785C123.533 54.1782 123.548 54.2744 123.674 54.5172C123.836 54.836 124.236 55.2559 124.423 55.3065C124.499 55.3217 124.555 55.3571 124.555 55.3824C124.555 55.4077 124.58 55.428 124.61 55.428C124.641 55.428 124.813 55.4937 124.995 55.5797C125.172 55.6607 125.334 55.7315 125.349 55.7315C125.364 55.7315 125.445 55.7619 125.531 55.8024C125.622 55.8378 125.794 55.9086 125.921 55.9592C126.204 56.0705 126.285 56.1009 126.599 56.2324L126.847 56.3387L126.811 57.8464C126.771 59.43 126.781 59.5363 126.998 59.769C127.398 60.1991 128.101 60.0777 128.324 59.5413C128.375 59.4199 128.405 58.9089 128.43 57.6187C128.476 55.3116 128.572 55.5291 127.084 54.5678C126.447 54.153 126.422 54.1327 126.442 53.986C126.462 53.8342 126.538 53.6217 126.664 53.3181C126.7 53.2321 126.73 53.141 126.73 53.1208C126.73 53.0854 126.958 52.4378 127.084 52.114C127.105 52.0583 127.155 51.9217 127.201 51.8104C127.241 51.6991 127.317 51.5068 127.368 51.3803C127.439 51.2235 127.464 51.0363 127.459 50.7479C127.459 50.3735 127.444 50.3229 127.277 50.0598C127.029 49.6753 126.836 49.5437 126.275 49.3717C126.017 49.2907 123.715 49.2402 123.239 49.3009Z" fill="#6E6E6E"/>
<path d="M127.959 51.4841C127.928 51.5497 127.852 51.7467 127.79 51.9286C127.728 52.1104 127.646 52.3378 127.611 52.4337C127.553 52.5887 127.587 52.7385 127.714 52.8452C127.798 52.9159 127.905 53.0011 128.023 53.0883C128.507 53.4496 128.507 53.4496 128.836 53.4511C129.018 53.4519 129.235 53.4225 129.322 53.3875C129.524 53.3024 129.808 53.2025 129.94 53.1676C129.996 53.1527 130.112 53.1127 130.203 53.0727C130.29 53.0326 130.406 53.0027 130.462 53.003C130.522 53.0033 130.578 52.9833 130.593 52.958C130.609 52.9328 130.7 52.8978 130.796 52.8831C130.897 52.8633 131.039 52.8184 131.115 52.7782C131.191 52.7381 131.283 52.7031 131.318 52.7032C131.348 52.7034 131.435 52.6329 131.506 52.5472C131.699 52.3204 131.696 51.9561 131.494 51.7326C131.364 51.5853 131.323 51.5699 131.065 51.5688C130.913 51.5731 130.756 51.5977 130.721 51.6229C130.685 51.6531 130.574 51.6931 130.478 51.7129C130.381 51.7327 130.28 51.7676 130.25 51.7877C130.224 51.8079 130.118 51.8428 130.022 51.8626C129.925 51.8824 129.814 51.9174 129.768 51.9424C129.662 51.9976 129.069 52.1873 129.003 52.187C128.973 52.1868 128.867 52.1054 128.761 52.0088C128.524 51.7839 128.292 51.573 128.159 51.4597C128.086 51.3981 128.002 51.3991 127.959 51.4841Z" fill="#6E6E6E"/>
<path d="M122.868 54.8547C122.823 54.9741 122.74 55.0743 122.681 55.1871C122.665 55.2177 122.648 55.2509 122.631 55.2851C122.565 55.4218 122.494 55.5282 122.474 55.5282C122.454 55.5282 122.424 55.5789 122.409 55.6396C122.393 55.7054 122.333 55.8117 122.282 55.8776C122.187 56.0042 122.176 56.0043 121.028 56.0415C120.396 56.0627 119.773 56.1041 119.647 56.1397C119.217 56.2517 119 56.6113 119.066 57.0716C119.107 57.3397 119.28 57.5317 119.583 57.6628C119.781 57.7434 119.862 57.7534 120.272 57.7123C120.53 57.6866 121.182 57.6502 121.724 57.6291C123.069 57.5814 123.125 57.551 123.806 56.5785C123.978 56.3253 124.155 56.0922 124.19 56.0568C124.281 55.9554 124.266 55.9049 124.114 55.8494C123.891 55.7587 123.466 55.4204 123.334 55.2283C123.268 55.1273 123.202 55.0363 123.187 55.0211C123.172 55.006 123.131 54.9352 123.1 54.8543C123.065 54.7785 123.014 54.7178 122.984 54.7179C122.954 54.7179 122.903 54.7787 122.868 54.8547Z" fill="#6E6E6E"/>
<defs>
<filter id="filter0_d_652_22887" x="0" y="0" width="354" height="92" filterUnits="userSpaceOnUse" color-interpolation-filters="sRGB">
<feFlood flood-opacity="0" result="BackgroundImageFix"/>
<feColorMatrix in="SourceAlpha" type="matrix" values="0 0 0 0 0 0 0 0 0 0 0 0 0 0 0 0 0 0 127 0" result="hardAlpha"/>
<feOffset dy="4"/>
<feGaussianBlur stdDeviation="7"/>
<feColorMatrix type="matrix" values="0 0 0 0 0 0 0 0 0 0 0 0 0 0 0 0 0 0 0.08 0"/>
<feBlend mode="normal" in2="BackgroundImageFix" result="effect1_dropShadow_652_22887"/>
<feBlend mode="normal" in="SourceGraphic" in2="effect1_dropShadow_652_22887" result="shape"/>
</filter>
</defs>
</svg>
