<svg width="71" height="60" viewBox="0 0 71 60" fill="none" xmlns="http://www.w3.org/2000/svg">
<rect x="0.75" width="70" height="60" rx="16" fill="#ECFCF4"/>
<circle cx="35.5166" cy="19.7666" r="8.98856" fill="#2D9B63" stroke="#2D9B63" stroke-width="1.5" stroke-linecap="round" stroke-linejoin="round"/>
<path d="M41.7683 26.4851L45.2923 30" stroke="#2D9B63" stroke-width="1.5" stroke-linecap="round" stroke-linejoin="round"/>
<path d="M22.8203 46.6738C22.8203 47.4355 22.5449 48.0332 21.9941 48.4668C21.4434 48.9004 20.6836 49.1172 19.7148 49.1172C18.7461 49.1172 17.9531 48.9668 17.3359 48.666V47.3418C17.7266 47.5254 18.1406 47.6699 18.5781 47.7754C19.0195 47.8809 19.4297 47.9336 19.8086 47.9336C20.3633 47.9336 20.7715 47.8281 21.0332 47.6172C21.2988 47.4062 21.4316 47.123 21.4316 46.7676C21.4316 46.4473 21.3105 46.1758 21.0684 45.9531C20.8262 45.7305 20.3262 45.4668 19.5684 45.1621C18.7871 44.8457 18.2363 44.4844 17.916 44.0781C17.5957 43.6719 17.4355 43.1836 17.4355 42.6133C17.4355 41.8984 17.6895 41.3359 18.1973 40.9258C18.7051 40.5156 19.3867 40.3105 20.2422 40.3105C21.0625 40.3105 21.8789 40.4902 22.6914 40.8496L22.2461 41.9922C21.4844 41.6719 20.8047 41.5117 20.207 41.5117C19.7539 41.5117 19.4102 41.6113 19.1758 41.8105C18.9414 42.0059 18.8242 42.2656 18.8242 42.5898C18.8242 42.8125 18.8711 43.0039 18.9648 43.1641C19.0586 43.3203 19.2129 43.4688 19.4277 43.6094C19.6426 43.75 20.0293 43.9355 20.5879 44.166C21.2168 44.4277 21.6777 44.6719 21.9707 44.8984C22.2637 45.125 22.4785 45.3809 22.6152 45.666C22.752 45.9512 22.8203 46.2871 22.8203 46.6738ZM26.8621 49.1172C25.8543 49.1172 25.0652 48.8242 24.4949 48.2383C23.9285 47.6484 23.6453 46.8379 23.6453 45.8066C23.6453 44.748 23.909 43.916 24.4363 43.3105C24.9637 42.7051 25.6883 42.4023 26.6102 42.4023C27.4656 42.4023 28.1414 42.6621 28.6375 43.1816C29.1336 43.7012 29.3816 44.416 29.3816 45.3262V46.0703H25.0633C25.0828 46.6992 25.2527 47.1836 25.573 47.5234C25.8934 47.8594 26.3445 48.0273 26.9266 48.0273C27.3094 48.0273 27.6648 47.9922 27.993 47.9219C28.325 47.8477 28.6805 47.7266 29.0594 47.5586V48.6777C28.7234 48.8379 28.3836 48.9512 28.0398 49.0176C27.6961 49.084 27.3035 49.1172 26.8621 49.1172ZM26.6102 43.4453C26.1727 43.4453 25.8211 43.584 25.5555 43.8613C25.2937 44.1387 25.1375 44.543 25.0867 45.0742H28.0281C28.0203 44.5391 27.8914 44.1348 27.6414 43.8613C27.3914 43.584 27.0477 43.4453 26.6102 43.4453ZM34.7008 49L34.4254 48.0977H34.3785C34.066 48.4922 33.7516 48.7617 33.4352 48.9062C33.1187 49.0469 32.7125 49.1172 32.2164 49.1172C31.5797 49.1172 31.0816 48.9453 30.7223 48.6016C30.3668 48.2578 30.1891 47.7715 30.1891 47.1426C30.1891 46.4746 30.4371 45.9707 30.9332 45.6309C31.4293 45.291 32.1852 45.1055 33.2008 45.0742L34.3199 45.0391V44.6934C34.3199 44.2793 34.2223 43.9707 34.027 43.7676C33.8355 43.5605 33.5367 43.457 33.1305 43.457C32.7984 43.457 32.4801 43.5059 32.1754 43.6035C31.8707 43.7012 31.5777 43.8164 31.2965 43.9492L30.8512 42.9648C31.2027 42.7812 31.5875 42.6426 32.0055 42.5488C32.4234 42.4512 32.818 42.4023 33.1891 42.4023C34.0133 42.4023 34.6344 42.582 35.0523 42.9414C35.4742 43.3008 35.6852 43.8652 35.6852 44.6348V49H34.7008ZM32.65 48.0625C33.15 48.0625 33.5504 47.9238 33.8512 47.6465C34.1559 47.3652 34.3082 46.9727 34.3082 46.4688V45.9062L33.4762 45.9414C32.8277 45.9648 32.3551 46.0742 32.0582 46.2695C31.7652 46.4609 31.6187 46.7559 31.6187 47.1543C31.6187 47.4434 31.7047 47.668 31.8766 47.8281C32.0484 47.9844 32.3062 48.0625 32.65 48.0625ZM40.5941 42.4023C40.8715 42.4023 41.1 42.4219 41.2797 42.4609L41.1449 43.7441C40.9496 43.6973 40.7465 43.6738 40.5355 43.6738C39.9848 43.6738 39.5375 43.8535 39.1938 44.2129C38.8539 44.5723 38.684 45.0391 38.684 45.6133V49H37.307V42.5195H38.3852L38.5668 43.6621H38.6371C38.852 43.2754 39.1313 42.9688 39.475 42.7422C39.8227 42.5156 40.1957 42.4023 40.5941 42.4023ZM44.8 49.1172C43.8195 49.1172 43.0734 48.832 42.5617 48.2617C42.0539 47.6875 41.8 46.8652 41.8 45.7949C41.8 44.7051 42.0656 43.8672 42.5969 43.2812C43.132 42.6953 43.9035 42.4023 44.9113 42.4023C45.5949 42.4023 46.2102 42.5293 46.757 42.7832L46.341 43.8906C45.759 43.6641 45.2785 43.5508 44.8996 43.5508C43.7785 43.5508 43.218 44.2949 43.218 45.7832C43.218 46.5098 43.3566 47.0566 43.634 47.4238C43.9152 47.7871 44.3254 47.9688 44.8645 47.9688C45.4777 47.9688 46.0578 47.8164 46.6047 47.5117V48.7129C46.3586 48.8574 46.0949 48.9609 45.8137 49.0234C45.5363 49.0859 45.1984 49.1172 44.8 49.1172ZM53.5293 49H52.1465V45.0156C52.1465 44.5156 52.0449 44.1426 51.8418 43.8965C51.6426 43.6504 51.3242 43.5273 50.8867 43.5273C50.3086 43.5273 49.8828 43.7012 49.6094 44.0488C49.3398 44.3926 49.2051 44.9707 49.2051 45.7832V49H47.8281V39.8828H49.2051V42.1973C49.2051 42.5684 49.1816 42.9648 49.1348 43.3867H49.2227C49.4102 43.0742 49.6699 42.832 50.002 42.6602C50.3379 42.4883 50.7285 42.4023 51.1738 42.4023C52.7441 42.4023 53.5293 43.1934 53.5293 44.7754V49Z" fill="#2D9B63"/>
</svg>

