<svg width="37" height="40" viewBox="0 0 37 40" fill="none" xmlns="http://www.w3.org/2000/svg">
<circle cx="18.5166" cy="9.76639" r="8.98856" stroke="#333333" stroke-width="1.5" stroke-linecap="round" stroke-linejoin="round"/>
<path d="M24.7683 16.4849L28.2923 19.9997" stroke="#333333" stroke-width="1.5" stroke-linecap="round" stroke-linejoin="round"/>
<path d="M5.82031 36.6738C5.82031 37.4355 5.54492 38.0332 4.99414 38.4668C4.44336 38.9004 3.68359 39.1172 2.71484 39.1172C1.74609 39.1172 0.953125 38.9668 0.335938 38.666V37.3418C0.726562 37.5254 1.14062 37.6699 1.57812 37.7754C2.01953 37.8809 2.42969 37.9336 2.80859 37.9336C3.36328 37.9336 3.77148 37.8281 4.0332 37.6172C4.29883 37.4062 4.43164 37.123 4.43164 36.7676C4.43164 36.4473 4.31055 36.1758 4.06836 35.9531C3.82617 35.7305 3.32617 35.4668 2.56836 35.1621C1.78711 34.8457 1.23633 34.4844 0.916016 34.0781C0.595703 33.6719 0.435547 33.1836 0.435547 32.6133C0.435547 31.8984 0.689453 31.3359 1.19727 30.9258C1.70508 30.5156 2.38672 30.3105 3.24219 30.3105C4.0625 30.3105 4.87891 30.4902 5.69141 30.8496L5.24609 31.9922C4.48438 31.6719 3.80469 31.5117 3.20703 31.5117C2.75391 31.5117 2.41016 31.6113 2.17578 31.8105C1.94141 32.0059 1.82422 32.2656 1.82422 32.5898C1.82422 32.8125 1.87109 33.0039 1.96484 33.1641C2.05859 33.3203 2.21289 33.4688 2.42773 33.6094C2.64258 33.75 3.0293 33.9355 3.58789 34.166C4.2168 34.4277 4.67773 34.6719 4.9707 34.8984C5.26367 35.125 5.47852 35.3809 5.61523 35.666C5.75195 35.9512 5.82031 36.2871 5.82031 36.6738ZM9.86211 39.1172C8.8543 39.1172 8.06523 38.8242 7.49492 38.2383C6.92852 37.6484 6.64531 36.8379 6.64531 35.8066C6.64531 34.748 6.90898 33.916 7.43633 33.3105C7.96367 32.7051 8.68828 32.4023 9.61016 32.4023C10.4656 32.4023 11.1414 32.6621 11.6375 33.1816C12.1336 33.7012 12.3816 34.416 12.3816 35.3262V36.0703H8.06328C8.08281 36.6992 8.25273 37.1836 8.57305 37.5234C8.89336 37.8594 9.34453 38.0273 9.92656 38.0273C10.3094 38.0273 10.6648 37.9922 10.993 37.9219C11.325 37.8477 11.6805 37.7266 12.0594 37.5586V38.6777C11.7234 38.8379 11.3836 38.9512 11.0398 39.0176C10.6961 39.084 10.3035 39.1172 9.86211 39.1172ZM9.61016 33.4453C9.17266 33.4453 8.82109 33.584 8.55547 33.8613C8.29375 34.1387 8.1375 34.543 8.08672 35.0742H11.0281C11.0203 34.5391 10.8914 34.1348 10.6414 33.8613C10.3914 33.584 10.0477 33.4453 9.61016 33.4453ZM17.7008 39L17.4254 38.0977H17.3785C17.066 38.4922 16.7516 38.7617 16.4352 38.9062C16.1187 39.0469 15.7125 39.1172 15.2164 39.1172C14.5797 39.1172 14.0816 38.9453 13.7223 38.6016C13.3668 38.2578 13.1891 37.7715 13.1891 37.1426C13.1891 36.4746 13.4371 35.9707 13.9332 35.6309C14.4293 35.291 15.1852 35.1055 16.2008 35.0742L17.3199 35.0391V34.6934C17.3199 34.2793 17.2223 33.9707 17.027 33.7676C16.8355 33.5605 16.5367 33.457 16.1305 33.457C15.7984 33.457 15.4801 33.5059 15.1754 33.6035C14.8707 33.7012 14.5777 33.8164 14.2965 33.9492L13.8512 32.9648C14.2027 32.7812 14.5875 32.6426 15.0055 32.5488C15.4234 32.4512 15.818 32.4023 16.1891 32.4023C17.0133 32.4023 17.6344 32.582 18.0523 32.9414C18.4742 33.3008 18.6852 33.8652 18.6852 34.6348V39H17.7008ZM15.65 38.0625C16.15 38.0625 16.5504 37.9238 16.8512 37.6465C17.1559 37.3652 17.3082 36.9727 17.3082 36.4688V35.9062L16.4762 35.9414C15.8277 35.9648 15.3551 36.0742 15.0582 36.2695C14.7652 36.4609 14.6187 36.7559 14.6187 37.1543C14.6187 37.4434 14.7047 37.668 14.8766 37.8281C15.0484 37.9844 15.3062 38.0625 15.65 38.0625ZM23.5941 32.4023C23.8715 32.4023 24.1 32.4219 24.2797 32.4609L24.1449 33.7441C23.9496 33.6973 23.7465 33.6738 23.5355 33.6738C22.9848 33.6738 22.5375 33.8535 22.1938 34.2129C21.8539 34.5723 21.684 35.0391 21.684 35.6133V39H20.307V32.5195H21.3852L21.5668 33.6621H21.6371C21.852 33.2754 22.1313 32.9688 22.475 32.7422C22.8227 32.5156 23.1957 32.4023 23.5941 32.4023ZM27.8 39.1172C26.8195 39.1172 26.0734 38.832 25.5617 38.2617C25.0539 37.6875 24.8 36.8652 24.8 35.7949C24.8 34.7051 25.0656 33.8672 25.5969 33.2812C26.132 32.6953 26.9035 32.4023 27.9113 32.4023C28.5949 32.4023 29.2102 32.5293 29.757 32.7832L29.341 33.8906C28.759 33.6641 28.2785 33.5508 27.8996 33.5508C26.7785 33.5508 26.218 34.2949 26.218 35.7832C26.218 36.5098 26.3566 37.0566 26.634 37.4238C26.9152 37.7871 27.3254 37.9688 27.8645 37.9688C28.4777 37.9688 29.0578 37.8164 29.6047 37.5117V38.7129C29.3586 38.8574 29.0949 38.9609 28.8137 39.0234C28.5363 39.0859 28.1984 39.1172 27.8 39.1172ZM36.5293 39H35.1465V35.0156C35.1465 34.5156 35.0449 34.1426 34.8418 33.8965C34.6426 33.6504 34.3242 33.5273 33.8867 33.5273C33.3086 33.5273 32.8828 33.7012 32.6094 34.0488C32.3398 34.3926 32.2051 34.9707 32.2051 35.7832V39H30.8281V29.8828H32.2051V32.1973C32.2051 32.5684 32.1816 32.9648 32.1348 33.3867H32.2227C32.4102 33.0742 32.6699 32.832 33.002 32.6602C33.3379 32.4883 33.7285 32.4023 34.1738 32.4023C35.7441 32.4023 36.5293 33.1934 36.5293 34.7754V39Z" fill="#333333"/>
</svg>

