
<svg width="20" height="22" viewBox="0 0 20 22" fill="none" xmlns="http://www.w3.org/2000/svg">
<path fill-rule="evenodd" clip-rule="evenodd" d="M18.8066 6.62337L18.1842 5.54328C17.6576 4.62936 16.4907 4.31408 15.5755 4.83847V4.83847C15.1399 5.0951 14.6201 5.16791 14.1307 5.04084C13.6413 4.91378 13.2226 4.59727 12.9668 4.16113C12.8023 3.8839 12.7139 3.56815 12.7105 3.2458V3.2458C12.7254 2.72898 12.5304 2.22816 12.17 1.85743C11.8096 1.48669 11.3145 1.27762 10.7975 1.27783H9.54348C9.03695 1.27783 8.55129 1.47967 8.19398 1.8387C7.83667 2.19773 7.63715 2.68435 7.63959 3.19088V3.19088C7.62458 4.23668 6.77246 5.07657 5.72655 5.07646C5.40419 5.07311 5.08844 4.9847 4.81121 4.82017V4.82017C3.89604 4.29577 2.72909 4.61105 2.20252 5.52497L1.53433 6.62337C1.00839 7.53615 1.31938 8.70236 2.22998 9.23207V9.23207C2.82188 9.5738 3.18651 10.2053 3.18651 10.8888C3.18651 11.5723 2.82188 12.2038 2.22998 12.5456V12.5456C1.32054 13.0717 1.00921 14.2351 1.53433 15.1451V15.1451L2.1659 16.2344C2.41263 16.6795 2.82658 17.0081 3.31617 17.1472C3.80576 17.2863 4.33062 17.2247 4.7746 16.9758V16.9758C5.21106 16.7211 5.73117 16.6513 6.21932 16.782C6.70747 16.9126 7.12321 17.2328 7.37414 17.6714C7.53868 17.9486 7.62709 18.2644 7.63044 18.5868V18.5868C7.63044 19.6433 8.48693 20.4998 9.54348 20.4998H10.7975C11.8505 20.4998 12.7055 19.6489 12.7105 18.5959V18.5959C12.7081 18.0878 12.9088 17.5998 13.2681 17.2405C13.6274 16.8812 14.1155 16.6804 14.6236 16.6829C14.9452 16.6915 15.2596 16.7795 15.5389 16.9392V16.9392C16.4517 17.4651 17.6179 17.1541 18.1476 16.2435V16.2435L18.8066 15.1451C19.0617 14.7073 19.1317 14.1858 19.0012 13.6961C18.8706 13.2065 18.5502 12.7891 18.111 12.5364V12.5364C17.6717 12.2837 17.3514 11.8663 17.2208 11.3767C17.0902 10.8871 17.1602 10.3656 17.4153 9.92772C17.5812 9.63809 17.8214 9.39795 18.111 9.23207V9.23207C19.0161 8.70265 19.3264 7.54325 18.8066 6.63252V6.63252V6.62337Z" stroke="#200E32" stroke-width="1.5" stroke-linecap="round" stroke-linejoin="round"/>
</svg>
