<svg width="35" height="35" viewBox="0 0 35 35" fill="none" xmlns="http://www.w3.org/2000/svg">
<path d="M33.4395 17.2822C33.4395 26.1188 26.276 33.2822 17.4395 33.2822C8.6029 33.2822 1.43945 26.1188 1.43945 17.2822C1.43945 8.44567 8.6029 1.28223 17.4395 1.28223C26.276 1.28223 33.4395 8.44567 33.4395 17.2822Z" fill="#AEC3CC"/>
<path fill-rule="evenodd" clip-rule="evenodd" d="M34.6248 17.2824C34.6248 26.7735 26.9307 34.4675 17.4396 34.4675C7.94846 34.4675 0.254395 26.7735 0.254395 17.2824C0.254395 7.79124 7.94846 0.097168 17.4396 0.097168C26.9307 0.097168 34.6248 7.79124 34.6248 17.2824ZM17.4396 33.2824C26.2761 33.2824 33.4396 26.1189 33.4396 17.2824C33.4396 8.4458 26.2761 1.28235 17.4396 1.28235C8.60302 1.28235 1.43958 8.4458 1.43958 17.2824C1.43958 26.1189 8.60302 33.2824 17.4396 33.2824Z" fill="#81A5B0"/>
<path d="M29.2914 17.282C29.2914 23.8276 23.9851 29.1339 17.4395 29.1339C10.8939 29.1339 5.58765 23.8276 5.58765 17.282C5.58765 10.7364 10.8939 5.43018 17.4395 5.43018C23.9851 5.43018 29.2914 10.7364 29.2914 17.282Z" fill="#C7D4D8"/>
<path fill-rule="evenodd" clip-rule="evenodd" d="M30.4767 17.2822C30.4767 24.4823 24.6398 30.3192 17.4396 30.3192C10.2395 30.3192 4.40259 24.4823 4.40259 17.2822C4.40259 10.082 10.2395 4.24512 17.4396 4.24512C24.6398 4.24512 30.4767 10.082 30.4767 17.2822ZM17.4396 29.134C23.9852 29.134 29.2915 23.8278 29.2915 17.2822C29.2915 10.7366 23.9852 5.4303 17.4396 5.4303C10.894 5.4303 5.58777 10.7366 5.58777 17.2822C5.58777 23.8278 10.894 29.134 17.4396 29.134Z" fill="#81A5B0"/>
<path fill-rule="evenodd" clip-rule="evenodd" d="M21.6579 21.5785C21.6579 22.1717 21.177 22.6525 20.5838 22.6525H14.303C13.7098 22.6525 13.2289 22.1717 13.2289 21.5785V20.3324C13.2289 20.0593 13.3329 19.7966 13.5197 19.5975L16.4792 16.4432C16.8577 16.0291 17.1004 15.7063 17.2389 15.4683L17.2441 15.4596C17.3709 15.2464 17.3888 15.1203 17.3888 15.0648C17.3888 14.95 17.3742 14.8829 17.3635 14.85C17.3617 14.8443 17.36 14.8397 17.3585 14.8359C17.3413 14.8329 17.3138 14.8298 17.2735 14.8298C17.1931 14.8298 17.1594 14.8434 17.1527 14.8463C17.1485 14.8482 17.1456 14.8499 17.1425 14.8523C17.1393 14.8548 17.1321 14.8607 17.1216 14.8731C17.0864 14.9155 17.0196 15.0221 17.0196 15.2977C17.0196 15.8908 16.5387 16.3717 15.9455 16.3717H14.1205C13.5273 16.3717 13.0464 15.8908 13.0464 15.2977C13.0464 14.5619 13.2229 13.8667 13.5849 13.2346L13.5885 13.2282C13.9602 12.5895 14.4855 12.091 15.1403 11.7403C15.8008 11.3824 16.5311 11.2153 17.3049 11.2153C18.4117 11.2153 19.4277 11.4815 20.2051 12.1578C21.0103 12.8543 21.3621 13.8167 21.3621 14.8886C21.3621 15.5331 21.1939 16.1582 20.8962 16.7535C20.5984 17.3491 20.1225 17.9803 19.5205 18.6398C19.5159 18.6449 19.5113 18.6499 19.5065 18.6548L19.1431 19.038H20.5838C21.177 19.038 21.6579 19.5189 21.6579 20.1121V21.5785ZM16.6441 20.1121L18.7272 17.9157C19.2978 17.2906 19.7006 16.743 19.9356 16.2731C20.1705 15.8032 20.288 15.3417 20.288 14.8886C20.288 14.062 20.0258 13.4222 19.5013 12.9691C18.9811 12.516 18.2489 12.2894 17.3049 12.2894C16.6882 12.2894 16.1364 12.4216 15.6498 12.6859C15.1631 12.946 14.7855 13.3068 14.5169 13.7684C14.4328 13.9152 14.3621 14.067 14.3048 14.2236C14.1819 14.5592 14.1205 14.9172 14.1205 15.2977H15.9455C15.9455 14.8361 16.063 14.4648 16.298 14.1837C16.5371 13.8984 16.8623 13.7558 17.2735 13.7558C17.6553 13.7558 17.9489 13.8732 18.1545 14.1082C18.3601 14.339 18.4629 14.6578 18.4629 15.0648C18.4629 15.3627 18.3643 15.6774 18.1671 16.0088C17.9741 16.3403 17.6741 16.7284 17.2672 17.1731L14.303 20.3324V21.5785H20.5838V20.1121H16.6441Z" fill="#81A5B0"/>
</svg>
