<svg width="26" height="26" viewBox="0 0 26 26" fill="none" xmlns="http://www.w3.org/2000/svg">
<path d="M23.9067 8.3223L23.5743 8.96095H23.5743L23.9067 8.3223ZM24.6169 10.5747L25.2555 10.9071L24.6169 10.5747ZM22.1848 7.42592H21.4648C21.4648 7.69441 21.6142 7.94059 21.8523 8.06457L22.1848 7.42592ZM18.5734 3.81458L17.9348 4.14704C18.0587 4.38519 18.3049 4.53458 18.5734 4.53458V3.81458ZM17.677 2.09256L18.3156 1.7601V1.7601L17.677 2.09256ZM15.4246 1.38239L15.0922 0.743742V0.743742L15.4246 1.38239ZM13 2.6446L12.6675 3.28324C12.8759 3.39171 13.124 3.39171 13.3324 3.28324L13 2.6446ZM10.5753 1.38239L10.9077 0.743742V0.743742L10.5753 1.38239ZM8.32291 2.09256L8.96156 2.42502L8.96156 2.42502L8.32291 2.09256ZM7.42649 3.81458V4.53458C7.69497 4.53458 7.94116 4.38519 8.06513 4.14704L7.42649 3.81458ZM3.81525 7.42585L4.14771 8.0645C4.38586 7.94052 4.53525 7.69434 4.53525 7.42585H3.81525ZM2.09319 8.3223L1.76073 7.68365H1.76073L2.09319 8.3223ZM1.38301 10.5747L0.744367 10.9071H0.744367L1.38301 10.5747ZM2.64521 12.9993L3.28386 13.3318C3.39233 13.1234 3.39233 12.8752 3.28386 12.6669L2.64521 12.9993ZM1.383 15.424L0.744353 15.0915H0.744353L1.383 15.424ZM2.09317 17.6764L1.76071 18.315H1.76071L2.09317 17.6764ZM3.81525 18.5728H4.53525C4.53525 18.3043 4.38586 18.0582 4.14771 17.9342L3.81525 18.5728ZM7.42651 22.1841L8.06516 21.8517C7.94119 21.6135 7.695 21.4641 7.42651 21.4641V22.1841ZM8.32292 23.9061L8.96157 23.5737L8.96157 23.5737L8.32292 23.9061ZM10.5753 24.6163L10.9078 25.2549L10.5753 24.6163ZM13 23.3541L13.3324 22.7154C13.124 22.607 12.8759 22.607 12.6675 22.7154L13 23.3541ZM15.4246 24.6163L15.0922 25.2549L15.4246 24.6163ZM17.677 23.9061L18.3156 24.2386L17.677 23.9061ZM18.5734 22.1841V21.4641C18.3049 21.4641 18.0587 21.6135 17.9347 21.8517L18.5734 22.1841ZM22.1848 18.5728L21.8523 17.9341C21.6142 18.0581 21.4648 18.3043 21.4648 18.5728H22.1848ZM23.9067 17.6764L24.2392 18.315H24.2392L23.9067 17.6764ZM24.6169 15.424L25.2556 15.0915L24.6169 15.424ZM23.3547 12.9993L22.716 12.6669C22.6076 12.8752 22.6076 13.1234 22.716 13.3318L23.3547 12.9993ZM23.5743 8.96095C24.0396 9.2032 24.2205 9.77684 23.9782 10.2422L25.2555 10.9071C25.865 9.73633 25.41 8.29313 24.2392 7.68365L23.5743 8.96095ZM21.8523 8.06457L23.5743 8.96095L24.2392 7.68365L22.5173 6.78727L21.8523 8.06457ZM21.4648 5.48453V7.42592H22.9048V5.48453H21.4648ZM20.5148 4.53458C21.0395 4.53458 21.4648 4.95989 21.4648 5.48453H22.9048C22.9048 4.1646 21.8348 3.09458 20.5148 3.09458V4.53458ZM18.5734 4.53458H20.5148V3.09458H18.5734V4.53458ZM17.0384 2.42502L17.9348 4.14704L19.2121 3.48212L18.3156 1.7601L17.0384 2.42502ZM15.7571 2.02104C16.2225 1.77878 16.7961 1.95965 17.0384 2.42502L18.3156 1.7601C17.7062 0.589305 16.263 0.134262 15.0922 0.743742L15.7571 2.02104ZM13.3324 3.28324L15.7571 2.02104L15.0922 0.743742L12.6675 2.00595L13.3324 3.28324ZM10.2428 2.02104L12.6675 3.28324L13.3324 2.00595L10.9077 0.743742L10.2428 2.02104ZM8.96156 2.42502C9.20381 1.95965 9.77745 1.77878 10.2428 2.02104L10.9077 0.743742C9.73694 0.134262 8.29374 0.589305 7.68426 1.7601L8.96156 2.42502ZM8.06513 4.14704L8.96156 2.42502L7.68426 1.7601L6.78784 3.48212L8.06513 4.14704ZM5.48521 4.53458H7.42649V3.09458H5.48521V4.53458ZM4.53525 5.48453C4.53525 4.95989 4.96056 4.53458 5.48521 4.53458V3.09458C4.16527 3.09458 3.09525 4.16459 3.09525 5.48453H4.53525ZM4.53525 7.42585V5.48453H3.09525V7.42585H4.53525ZM2.42565 8.96095L4.14771 8.0645L3.48279 6.7872L1.76073 7.68365L2.42565 8.96095ZM2.02166 10.2422C1.77941 9.77684 1.96028 9.2032 2.42565 8.96095L1.76073 7.68365C0.58993 8.29313 0.134887 9.73633 0.744367 10.9071L2.02166 10.2422ZM3.28386 12.6669L2.02166 10.2422L0.744367 10.9071L2.00656 13.3318L3.28386 12.6669ZM2.02165 15.7565L3.28386 13.3318L2.00656 12.6669L0.744353 15.0915L2.02165 15.7565ZM2.42563 17.0377C1.96026 16.7955 1.77939 16.2218 2.02165 15.7565L0.744353 15.0915C0.134872 16.2623 0.589916 17.7055 1.76071 18.315L2.42563 17.0377ZM4.14771 17.9342L2.42563 17.0377L1.76071 18.315L3.48279 19.2115L4.14771 17.9342ZM4.53525 20.5142V18.5728H3.09525V20.5142H4.53525ZM5.48521 21.4641C4.96056 21.4641 4.53525 21.0388 4.53525 20.5142H3.09525C3.09525 21.8341 4.16527 22.9041 5.48521 22.9041V21.4641ZM7.42651 21.4641H5.48521V22.9041H7.42651V21.4641ZM8.96157 23.5737L8.06516 21.8517L6.78786 22.5166L7.68428 24.2386L8.96157 23.5737ZM10.2428 23.9776C9.77747 24.2199 9.20383 24.039 8.96157 23.5737L7.68428 24.2386C8.29375 25.4094 9.73695 25.8644 10.9078 25.2549L10.2428 23.9776ZM12.6675 22.7154L10.2428 23.9776L10.9078 25.2549L13.3324 23.9927L12.6675 22.7154ZM15.7571 23.9776L13.3324 22.7154L12.6675 23.9927L15.0922 25.2549L15.7571 23.9776ZM17.0383 23.5737C16.7961 24.039 16.2224 24.2199 15.7571 23.9776L15.0922 25.2549C16.263 25.8644 17.7062 25.4094 18.3156 24.2386L17.0383 23.5737ZM17.9347 21.8517L17.0383 23.5737L18.3156 24.2386L19.212 22.5166L17.9347 21.8517ZM20.5148 21.4641H18.5734V22.9041H20.5148V21.4641ZM21.4648 20.5142C21.4648 21.0388 21.0395 21.4641 20.5148 21.4641V22.9041C21.8348 22.9041 22.9048 21.8341 22.9048 20.5142H21.4648ZM21.4648 18.5728V20.5142H22.9048V18.5728H21.4648ZM23.5743 17.0377L21.8523 17.9341L22.5173 19.2114L24.2392 18.315L23.5743 17.0377ZM23.9783 15.7565C24.2205 16.2218 24.0396 16.7955 23.5743 17.0377L24.2392 18.315C25.41 17.7055 25.865 16.2623 25.2556 15.0915L23.9783 15.7565ZM22.716 13.3318L23.9783 15.7565L25.2556 15.0915L23.9933 12.6669L22.716 13.3318ZM23.9782 10.2422L22.716 12.6669L23.9933 13.3318L25.2555 10.9071L23.9782 10.2422Z" fill="#200E32"/>
<path d="M6.91174 14.4004C6.4506 14.4004 6.07676 14.7743 6.07676 15.2354C6.07676 15.6966 6.4506 16.0704 6.91174 16.0704V14.4004ZM8.43614 15.2354V16.0704C8.73512 16.0704 9.01129 15.9105 9.16019 15.6513L8.43614 15.2354ZM11.8783 9.24219L12.6915 9.05241C12.6135 8.71838 12.3392 8.46601 11.9998 8.4161C11.6605 8.36618 11.3251 8.52889 11.1543 8.82633L11.8783 9.24219ZM13.6322 16.757L12.8191 16.9468C12.8957 17.2753 13.1625 17.5253 13.4953 17.5807C13.828 17.636 14.1613 17.4857 14.3402 17.1997L13.6322 16.757ZM17.4186 10.7017V9.8667C17.1308 9.8667 16.8632 10.0149 16.7106 10.259L17.4186 10.7017ZM19.1233 11.5367C19.5845 11.5367 19.9583 11.1628 19.9583 10.7017C19.9583 10.2405 19.5845 9.8667 19.1233 9.8667V11.5367ZM6.91174 16.0704H8.43614V14.4004H6.91174V16.0704ZM9.16019 15.6513L12.6024 9.65805L11.1543 8.82633L7.71209 14.8195L9.16019 15.6513ZM11.0652 9.43196L12.8191 16.9468L14.4453 16.5672L12.6915 9.05241L11.0652 9.43196ZM14.3402 17.1997L18.1266 11.1444L16.7106 10.259L12.9242 16.3143L14.3402 17.1997ZM17.4186 11.5367H19.1233V9.8667H17.4186V11.5367Z" fill="#200E32"/>
</svg>

