<svg width="16" height="15" viewBox="0 0 16 15" fill="none" xmlns="http://www.w3.org/2000/svg">
<path d="M8.27334 1.28119L10.1626 5.10834L14.3871 5.72311C14.5774 5.75056 14.7356 5.88379 14.7951 6.06669C14.8546 6.24959 14.8049 6.45039 14.6671 6.58453L11.6096 9.5612L12.3313 13.7686C12.3638 13.9582 12.2859 14.1498 12.1303 14.2629C11.9747 14.3759 11.7684 14.3909 11.5981 14.3014L7.82016 12.318L4.0416 14.3032C3.8712 14.3923 3.66505 14.3771 3.50956 14.264C3.35407 14.1509 3.27612 13.9594 3.30837 13.7699L4.03006 9.56485L0.972593 6.58817C0.834771 6.45403 0.785141 6.25323 0.844603 6.07033C0.904066 5.88743 1.06229 5.75421 1.25264 5.72676L5.47709 5.10895L7.36637 1.28179C7.45162 1.10933 7.62729 1.00013 7.81967 1C8.01205 0.999871 8.18786 1.10884 8.27334 1.28119Z" stroke="#6E6E6E"/>
</svg>
