<svg width="14" height="14" viewBox="0 0 14 14" fill="none" xmlns="http://www.w3.org/2000/svg">
<path d="M4.65729 4.60834L6.54657 0.781186C6.63205 0.60884 6.80786 0.499871 7.00024 0.5L6.99975 11.818L3.22181 13.8014C3.05153 13.8909 2.84525 13.8759 2.68965 13.7629C2.53405 13.6498 2.4561 13.4582 2.48857 13.2686L3.21026 9.0612L0.152793 6.08453C0.0149713 5.95039 -0.0346575 5.74959 0.0248046 5.56669C0.0842667 5.38379 0.242488 5.25056 0.432844 5.22311L4.65729 4.60834Z" fill="#2D9B63"/>
<path d="M9.34295 4.60834L7.45368 0.781186C7.36819 0.60884 7.19238 0.499871 7 0.5L7.00049 11.818L10.7784 13.8014C10.9487 13.8909 11.155 13.8759 11.3106 13.7629C11.4662 13.6498 11.5441 13.4582 11.5117 13.2686L10.79 9.0612L13.8475 6.08453C13.9853 5.95039 14.0349 5.74959 13.9754 5.56669C13.916 5.38379 13.7578 5.25056 13.5674 5.22311L9.34295 4.60834Z" fill="#C4C4C4"/>
</svg>
