<!-- <svg width="16" height="15" viewBox="0 0 16 15" fill="none" xmlns="http://www.w3.org/2000/svg">
<path d="M8.45349 1.28119L10.3428 5.10834L14.5672 5.72311C14.7576 5.75056 14.9158 5.88379 14.9753 6.06669C15.0347 6.24959 14.9851 6.45039 14.8473 6.58453L11.7898 9.5612L12.5115 13.7686C12.544 13.9582 12.466 14.1498 12.3104 14.2629C12.1548 14.3759 11.9485 14.3909 11.7782 14.3014L8.0003 12.318L4.22175 14.3032C4.05134 14.3923 3.84519 14.3771 3.68971 14.264C3.53422 14.1509 3.45626 13.9594 3.48852 13.7699L4.21021 9.56485L1.15274 6.58817C1.01492 6.45403 0.965286 6.25323 1.02475 6.07033C1.08421 5.88743 1.24243 5.75421 1.43279 5.72676L5.65724 5.10895L7.54651 1.28179C7.63176 1.10933 7.80743 1.00013 7.99981 1C8.19219 0.999871 8.36801 1.10884 8.45349 1.28119Z" fill="white" fill-opacity="0.3" stroke="white" stroke-width="0.2"/>
</svg> -->
<svg width="16" height="15" viewBox="0 0 16 15" fill="none" xmlns="http://www.w3.org/2000/svg">
<path d="M8.45349 0.781186L10.3428 4.60834L14.5672 5.22311C14.7576 5.25056 14.9158 5.38379 14.9753 5.56669C15.0347 5.74959 14.9851 5.95039 14.8473 6.08453L11.7898 9.0612L12.5115 13.2686C12.544 13.4582 12.466 13.6498 12.3104 13.7629C12.1548 13.8759 11.9485 13.8909 11.7782 13.8014L8.0003 11.818L4.22175 13.8032C4.05134 13.8923 3.84519 13.8771 3.68971 13.764C3.53422 13.6509 3.45626 13.4594 3.48852 13.2699L4.21021 9.06485L1.15274 6.08817C1.01492 5.95403 0.965286 5.75323 1.02475 5.57033C1.08421 5.38743 1.24243 5.25421 1.43279 5.22676L5.65724 4.60895L7.54651 0.781794C7.63176 0.609333 7.80743 0.500129 7.99981 0.5C8.19219 0.499871 8.36801 0.60884 8.45349 0.781186Z" stroke="#6E6E6E"/>
</svg>

