<svg width="14" height="14" viewBox="0 0 14 14" fill="none" xmlns="http://www.w3.org/2000/svg">
<path d="M7.45349 0.281186L9.34276 4.10834L13.5672 4.72311C13.7576 4.75056 13.9158 4.88379 13.9753 5.06669C14.0347 5.24959 13.9851 5.45039 13.8473 5.58453L10.7898 8.5612L11.5115 12.7686C11.544 12.9582 11.466 13.1498 11.3104 13.2629C11.1548 13.3759 10.9485 13.3909 10.7782 13.3014L7.0003 11.318L3.22175 13.3032C3.05134 13.3923 2.84519 13.3771 2.68971 13.264C2.53422 13.1509 2.45626 12.9594 2.48852 12.7699L3.21021 8.56485L0.152738 5.58817C0.0149159 5.45403 -0.0347135 5.25323 0.0247487 5.07033C0.0842108 4.88743 0.242433 4.75421 0.432788 4.72676L4.65724 4.10895L6.54651 0.281794C6.63176 0.109333 6.80743 0.000128969 6.99981 1.14152e-07C7.19219 -0.000128741 7.36801 0.10884 7.45349 0.281186Z" fill="#2D9B63"/>
</svg>
