<svg width="40" height="40" viewBox="0 0 40 40" fill="none" xmlns="http://www.w3.org/2000/svg">
<rect width="40" height="40" rx="8" fill="#F05757"/>
<path d="M27.3249 17.4678C27.3249 17.4678 26.7819 24.2028 26.4669 27.0398C26.3169 28.3948 25.4799 29.1888 24.1089 29.2138C21.4999 29.2608 18.8879 29.2638 16.2799 29.2088C14.9609 29.1818 14.1379 28.3778 13.9909 27.0468C13.6739 24.1848 13.1339 17.4678 13.1339 17.4678" stroke="white" stroke-width="1.5" stroke-linecap="round" stroke-linejoin="round"/>
<path d="M28.7082 14.2393H11.7502" stroke="white" stroke-width="1.5" stroke-linecap="round" stroke-linejoin="round"/>
<path d="M25.4406 14.2395C24.6556 14.2395 23.9796 13.6845 23.8256 12.9155L23.5826 11.6995C23.4326 11.1385 22.9246 10.7505 22.3456 10.7505H18.1126C17.5336 10.7505 17.0256 11.1385 16.8756 11.6995L16.6326 12.9155C16.4786 13.6845 15.8026 14.2395 15.0176 14.2395" stroke="white" stroke-width="1.5" stroke-linecap="round" stroke-linejoin="round"/>
</svg>


