<svg width="22" height="22" viewBox="0 0 22 22" fill="none" xmlns="http://www.w3.org/2000/svg">
<circle cx="11" cy="10.9995" r="9.40385" stroke="#333333" stroke-width="1.5"/>
<path d="M15.25 11C15.25 13.6702 14.7072 16.0506 13.8647 17.7357C12.9998 19.4656 11.9436 20.25 11 20.25C10.0564 20.25 9.00024 19.4656 8.13529 17.7357C7.29276 16.0506 6.75 13.6702 6.75 11C6.75 8.32976 7.29276 5.9494 8.13529 4.26434C9.00024 2.53443 10.0564 1.75 11 1.75C11.9436 1.75 12.9998 2.53443 13.8647 4.26434C14.7072 5.9494 15.25 8.32976 15.25 11Z" stroke="#333333" stroke-width="1.5"/>
<path d="M1.76923 14.4612H20.2308M1.76923 8.23047H20.2308" stroke="#333333" stroke-width="1.5"/>
</svg>

